<svg xmlns="http://www.w3.org/2000/svg" width="28.687" height="28.687" viewBox="0 0 28.687 28.687">
  <path id="FontAwsome_envelope-open_" data-name="FontAwsome (envelope-open)" d="M27.711,9.218c-.263-.218-6.26-5.04-7.578-6.088C18.895,2.14,16.777,0,14.343,0S9.825,2.113,8.554,3.13C7.183,4.219,1.21,9.024.981,9.212A2.69,2.69,0,0,0,0,11.289V26a2.689,2.689,0,0,0,2.689,2.689H26A2.689,2.689,0,0,0,28.687,26V11.29a2.689,2.689,0,0,0-.976-2.073ZM26,25.661a.336.336,0,0,1-.336.336H3.026a.336.336,0,0,1-.336-.336V11.449a.336.336,0,0,1,.125-.261c.889-.718,6.1-4.906,7.416-5.955,1.018-.813,2.791-2.543,4.113-2.543s3.13,1.758,4.113,2.543c1.321,1.05,6.528,5.238,7.416,5.957a.336.336,0,0,1,.125.261ZM24.205,15.144a.672.672,0,0,1-.1.951c-1.623,1.3-3.321,2.667-3.974,3.186-1.272,1.017-3.369,3.13-5.79,3.13s-4.554-2.142-5.79-3.13c-.632-.5-2.339-1.872-3.974-3.186a.672.672,0,0,1-.1-.951l.855-1.038a.672.672,0,0,1,.94-.1c1.6,1.289,3.281,2.635,3.953,3.17.983.786,2.786,2.543,4.113,2.543s3.1-1.73,4.113-2.543c.672-.534,2.35-1.881,3.954-3.169a.672.672,0,0,1,.94.1l.855,1.038Z" fill="#fff"/>
</svg>
