<svg xmlns="http://www.w3.org/2000/svg" width="69" height="69" viewBox="0 0 69 69">
  <g id="Grupo_1096" data-name="Grupo 1096" transform="translate(-716 -2529)">
    <rect id="Rectángulo_1088" data-name="Rectángulo 1088" width="69" height="69" transform="translate(716 2529)" fill="none"/>
    <g id="calidad" transform="translate(724 2500.413)">
      <path id="Trazado_119" data-name="Trazado 119" d="M52.582,55.493,47.85,44.622a1.723,1.723,0,0,0-1.58-1.035H6.5a1.723,1.723,0,0,0-1.58,1.035L.188,55.494a2.3,2.3,0,0,0,.356,2.4l24.52,28.772a1.721,1.721,0,0,0,1.311.606h0a1.721,1.721,0,0,0,1.311-.605L35.931,77a.782.782,0,1,0-1.19-1.015L28.248,83.6l10.237-26.33H50.7L37.029,73.3a.782.782,0,0,0,1.19,1.015L52.225,57.891a2.3,2.3,0,0,0,.357-2.4Zm-1.615.209H39.486l7.186-9.868ZM17.727,65.9l6.966,17.918L2.067,57.266h12.3l2.148,5.524a.782.782,0,0,0,1.457-.567l-1.927-4.957H36.807l-10.379,26.7L19.184,65.332a.782.782,0,1,0-1.457.567Zm11.66-20.748,1.789,2.66a.782.782,0,1,0,1.3-.873l-1.2-1.788H45.235l-7.26,9.97-3.612-5.372a.782.782,0,1,0-1.3.873L36.481,55.7H16.373l7.095-10.551ZM14.88,55.121l-7.26-9.97H21.584ZM6.13,45.761,13.369,55.7H1.8Z" transform="translate(0 0)" fill="#002e66"/>
      <path id="Trazado_120" data-name="Trazado 120" d="M61.672,384.2a1.312,1.312,0,0,0-1.266-.083L56.361,386a1.323,1.323,0,0,0-.679,1.653c.771,2.062,2.524,3.178,5.212,3.317l.067,0a1.319,1.319,0,0,0,1.321-1.319v-4.346a1.312,1.312,0,0,0-.61-1.112Zm-.954,5.2c-2.482-.205-3.217-1.435-3.487-2.071l3.487-1.627Z" transform="translate(-49.804 -304.914)" fill="#002e66"/>
      <path id="Trazado_121" data-name="Trazado 121" d="M38.032,303.842a1.312,1.312,0,0,0-.354-1.218l-3.153-3.16a1.323,1.323,0,0,0-1.786-.075c-1.676,1.427-2.127,3.456-1.343,6.03a1.321,1.321,0,0,0,1.711.856l4.086-1.481A1.312,1.312,0,0,0,38.032,303.842Zm-5.21.874c-.653-2.4.252-3.514.759-3.984l2.718,2.724Z" transform="translate(-27.789 -228.855)" fill="#002e66"/>
      <path id="Trazado_122" data-name="Trazado 122" d="M393.2,386l-4.045-1.888a1.318,1.318,0,0,0-1.876,1.195v4.346a1.319,1.319,0,0,0,1.321,1.319l.067,0c2.688-.139,4.441-1.255,5.212-3.317A1.323,1.323,0,0,0,393.2,386Zm-4.357,3.391v-3.7l3.487,1.627C392.065,387.959,391.33,389.188,388.848,389.393Z" transform="translate(-346.908 -304.914)" fill="#002e66"/>
      <path id="Trazado_123" data-name="Trazado 123" d="M413.742,299.388a1.323,1.323,0,0,0-1.786.075l-3.153,3.16a1.318,1.318,0,0,0,.484,2.17l4.086,1.481a1.32,1.32,0,0,0,1.711-.856C415.87,302.844,415.418,300.815,413.742,299.388Zm-.082,5.327-3.477-1.26,2.718-2.724C413.408,301.2,414.313,302.311,413.66,304.715Z" transform="translate(-365.838 -228.854)" fill="#002e66"/>
    </g>
  </g>
</svg>
