<svg xmlns="http://www.w3.org/2000/svg" xmlns:xlink="http://www.w3.org/1999/xlink" width="52" height="52" viewBox="0 0 52 52">
  <defs>
    <clipPath id="clip-path">
      <rect id="Rectángulo_939" data-name="Rectángulo 939" width="52" height="52" transform="translate(580 6354)" fill="none" stroke="#707070" stroke-width="1"/>
    </clipPath>
  </defs>
  <g id="Enmascarar_grupo_14" data-name="Enmascarar grupo 14" transform="translate(-580 -6354)" clip-path="url(#clip-path)">
    <g id="colaboracion" transform="translate(585 6352.084)">
      <path id="Trazado_31" data-name="Trazado 31" d="M5.805,21.427c.214-.5.452-.976.708-1.437a16.278,16.278,0,0,1,1.068-1.684.609.609,0,0,1,.987.715,15.191,15.191,0,0,0-.992,1.559c-.154.277-.3.56-.436.846H9.364a.609.609,0,0,1,.611.609v5.341a3.859,3.859,0,0,1-.341,1.589,5.309,5.309,0,0,1,1.605,1,2.7,2.7,0,0,1,.943,1.972v2.977a.612.612,0,0,1-.611.611H7.781c.2.344.415.68.641,1.006a14.809,14.809,0,0,0,1.381,1.7.609.609,0,0,1-.888.835,16.569,16.569,0,0,1-1.494-1.843,16.342,16.342,0,0,1-1.036-1.7H.611A.612.612,0,0,1,0,34.918V31.941a2.705,2.705,0,0,1,.929-1.96,5.335,5.335,0,0,1,1.619-1.015,3.859,3.859,0,0,1-.341-1.589V23.869A2.445,2.445,0,0,1,4.65,21.426H5.805Zm32.424,5.03-3.22-1.091L32.9,26.4v.978a2.663,2.663,0,0,0,5.325,0ZM32.9,25.045l1.762-.863a.6.6,0,0,1,.5-.051l3.065,1.038v-1.3a1.229,1.229,0,0,0-1.222-1.222H34.124a1.224,1.224,0,0,0-1.22,1.222v1.176ZM3.427,24.314H8.755V22.647H4.649a1.229,1.229,0,0,0-1.222,1.222v.445Zm5.328,1.22H3.427v1.843a2.664,2.664,0,0,0,5.328,0V25.534ZM23.492,37.6a4.243,4.243,0,0,1-3.471-.927,3.2,3.2,0,0,1-1.857.443V38.6a2.664,2.664,0,0,0,5.327,0ZM18.164,35.9a1.966,1.966,0,0,0,1.513-.459l0,0,.014-.014a.609.609,0,0,1,.858.062,3.03,3.03,0,0,0,2.941.888V35.089a1.228,1.228,0,0,0-1.222-1.222H19.387a1.228,1.228,0,0,0-1.222,1.222V35.9ZM8.946,30a3.869,3.869,0,0,1-5.71,0,4.331,4.331,0,0,0-1.467.858,1.53,1.53,0,0,0-.549,1.079v2.369h9.742V31.941a1.531,1.531,0,0,0-.558-1.086A4.362,4.362,0,0,0,8.946,30Zm30.5-2.625a3.859,3.859,0,0,1-.341,1.589,5.36,5.36,0,0,1,1.617,1.012,2.7,2.7,0,0,1,.932,1.963v2.977a.61.61,0,0,1-.609.611h-5.8A17.272,17.272,0,0,1,34.2,37.2a17.6,17.6,0,0,1-1.5,1.834.609.609,0,0,1-.888-.835,16.116,16.116,0,0,0,1.4-1.7q.335-.47.636-.964H30.085a.612.612,0,0,1-.611-.611V31.941a2.708,2.708,0,0,1,.941-1.969,5.312,5.312,0,0,1,1.61-1.006,3.824,3.824,0,0,1-.344-1.589V23.869a2.445,2.445,0,0,1,2.442-2.442h.4c-.131-.281-.274-.558-.427-.83a15.061,15.061,0,0,0-1.012-1.582.609.609,0,0,1,.983-.72,16.447,16.447,0,0,1,1.093,1.711,15.618,15.618,0,0,1,.7,1.421h1.148a2.441,2.441,0,0,1,2.442,2.442v3.508ZM38.42,30a3.871,3.871,0,0,1-5.71,0,4.337,4.337,0,0,0-1.46.853,1.532,1.532,0,0,0-.554,1.084v2.369h9.74V31.941a1.525,1.525,0,0,0-.551-1.079A4.3,4.3,0,0,0,38.42,30ZM24.712,38.6a3.852,3.852,0,0,1-.341,1.589A5.366,5.366,0,0,1,25.987,41.2a3.318,3.318,0,0,1,.567.7,14.847,14.847,0,0,0,1.428-.7,15.565,15.565,0,0,0,1.85-1.215.608.608,0,1,1,.738.966,16.735,16.735,0,0,1-2,1.312,15.629,15.629,0,0,1-1.656.8c0,.032,0,.067,0,.1v2.977a.608.608,0,0,1-.609.609H15.348a.61.61,0,0,1-.611-.609V43.163c0-.032,0-.065,0-.1a16.961,16.961,0,0,1-1.693-.8,16.356,16.356,0,0,1-1.993-1.28.607.607,0,1,1,.729-.971A15.5,15.5,0,0,0,13.628,41.2a15.13,15.13,0,0,0,1.471.7,3.4,3.4,0,0,1,.563-.692,5.3,5.3,0,0,1,1.626-1.019,3.825,3.825,0,0,1-.344-1.591V35.089a2.449,2.449,0,0,1,2.442-2.442h2.883a2.449,2.449,0,0,1,2.442,2.442V38.6Zm-1.029,2.627a3.871,3.871,0,0,1-5.71,0,4.327,4.327,0,0,0-1.471.865,1.523,1.523,0,0,0-.544,1.075v2.366H25.7V43.163a1.526,1.526,0,0,0-.549-1.079,4.331,4.331,0,0,0-1.467-.86ZM10.307,17.017a.608.608,0,0,1-.844-.876,15.872,15.872,0,0,1,2.917-2.23,8.473,8.473,0,0,1,16.894-.042c.477.293.939.611,1.381.948a16.532,16.532,0,0,1,1.529,1.319.608.608,0,1,1-.846.872,15.877,15.877,0,0,0-1.421-1.222c-.212-.164-.429-.318-.646-.468a10.966,10.966,0,0,1-2.219,5.4,8.048,8.048,0,0,0-1.776,4.437l0,2.821a2.957,2.957,0,0,1-2.947,2.947H19.327a2.953,2.953,0,0,1-2.948-2.947l0-2.821a8.065,8.065,0,0,0-1.776-4.437,10.963,10.963,0,0,1-2.216-5.374c-.228.152-.452.311-.671.475a14.553,14.553,0,0,0-1.411,1.2ZM17.6,27.052h6.458V25.815H17.6Zm6.432,1.22H17.625a1.734,1.734,0,0,0,1.7,1.432h3.005a1.734,1.734,0,0,0,1.7-1.432ZM20.24,19.21c-.1-.364-.272-.863-.468-1.432a18.643,18.643,0,0,1-1.285-5.318c0-1.538.588-2.636,2.341-2.636s2.343,1.1,2.343,2.636a18.643,18.643,0,0,1-1.285,5.318c-.2.572-.371,1.075-.473,1.439a.607.607,0,0,1-1.174-.007Zm-.533-6.751a16.726,16.726,0,0,0,1.121,4.659,16.654,16.654,0,0,0,1.123-4.659c0-.826-.284-1.416-1.123-1.416s-1.121.591-1.121,1.416Zm.512,8.9a.61.61,0,0,1,1.22,0V22a.61.61,0,0,1-1.22,0ZM17.569,24.6h6.517a9.6,9.6,0,0,1,1.951-4.543,9.445,9.445,0,0,0,2.043-5.5,7.252,7.252,0,1,0-14.5,0,9.444,9.444,0,0,0,2.043,5.5A9.593,9.593,0,0,1,17.569,24.6Z"/>
    </g>
  </g>
</svg>
