<svg id="lider" xmlns="http://www.w3.org/2000/svg" width="66.01" height="51.899" viewBox="0 0 66.01 51.899">
  <path id="Trazado_161" data-name="Trazado 161" d="M20.452,74.222a9.425,9.425,0,0,1,2.4,1.381V72.3a4.471,4.471,0,0,1,1.539-3.245,9.017,9.017,0,0,1,2.752-1.718,6.377,6.377,0,0,1-.592-2.69V58.763a4.055,4.055,0,0,1,4.038-4.038h4.835a4.049,4.049,0,0,1,4.038,4.038v5.884a6.406,6.406,0,0,1-.592,2.694,9,9,0,0,1,2.73,1.692A4.494,4.494,0,0,1,43.165,72.3v3.307a9.424,9.424,0,0,1,2.408-1.389,6.41,6.41,0,0,1-.588-2.682V65.652a4.055,4.055,0,0,1,4.042-4.038h4.832A4.049,4.049,0,0,1,57.9,65.652v5.884a6.379,6.379,0,0,1-.585,2.679,9.127,9.127,0,0,1,2.8,1.736,4.463,4.463,0,0,1,1.539,3.238v7.1h3.391a.967.967,0,0,1,.965.968.952.952,0,0,1-.216.607l-3.545,5.16,3.589,5.219a.966.966,0,0,1-.245,1.341.985.985,0,0,1-.548.172H43.874l.358,4.6a2.115,2.115,0,0,1-3.022,2.061l-8.2-3.388-8.322,3.435a2.109,2.109,0,0,1-2.459-.651,2.164,2.164,0,0,1-.446-1.458l.358-4.6H15.222a.967.967,0,0,1,0-1.933H22.29l.19-2.445-5.785-6.79a1.874,1.874,0,0,1-.267-.365H2.8L5.72,92.462a.966.966,0,0,1,.007,1.111L2.8,97.824h8.04a.967.967,0,0,1,0,1.933H.969A.967.967,0,0,1,.22,98.182l3.545-5.157L.176,87.806a.97.97,0,0,1,.83-1.517H4.386V81.381a.967.967,0,1,1,1.933,0v4.908H16.333a2.142,2.142,0,0,1,.621-.782,2.368,2.368,0,0,1,.921-.417l4.978-1.2v-4.7a2.615,2.615,0,0,0-.954-1.857,7.375,7.375,0,0,0-2.536-1.465,6.439,6.439,0,0,1-9.557,0,6.729,6.729,0,0,0-2.92,1.882.966.966,0,0,1-1.506-1.21,8.315,8.315,0,0,1,3.336-2.321,6.41,6.41,0,0,1-.588-2.682V65.652a4.055,4.055,0,0,1,4.042-4.038h7.9a.967.967,0,0,1,.965.968v8.954a6.416,6.416,0,0,1-.589,2.686Zm35.512-4.268L50.5,68.1l-3.581,1.758v1.674a4.521,4.521,0,0,0,9.041,0V69.954Zm-9.041-2.237,3.037-1.487a.958.958,0,0,1,.789-.08l5.215,1.765V65.652a2.115,2.115,0,0,0-2.1-2.105H49.027a2.115,2.115,0,0,0-2.1,2.105v2.065ZM10.062,66.46h9.045V63.547H12.17a2.121,2.121,0,0,0-2.109,2.105Zm9.045,1.933H10.062v3.143a4.523,4.523,0,0,0,9.045,0V68.393ZM37.53,62.915a7.075,7.075,0,0,1-5.869-1.557,5.3,5.3,0,0,1-3.176.749v2.54a4.523,4.523,0,0,0,9.045,0V62.915Zm-9.045-2.752a3.339,3.339,0,0,0,2.657-.793.966.966,0,0,1,1.36.1,5.136,5.136,0,0,0,5.029,1.495v-2.2a2.121,2.121,0,0,0-2.105-2.105H30.59a2.121,2.121,0,0,0-2.105,2.105Zm18.178,15.7a7.451,7.451,0,0,0-2.587,1.506,2.583,2.583,0,0,0-.91,1.82v4.7L48.26,85.12a2.175,2.175,0,0,1,1.422,1.169H59.721v-7.1a2.594,2.594,0,0,0-.935-1.838,7.375,7.375,0,0,0-2.566-1.484c-.069.077-.142.153-.216.227a6.432,6.432,0,0,1-9.122,0q-.115-.11-.219-.23ZM28.236,68.985a7.322,7.322,0,0,0-2.514,1.469,2.609,2.609,0,0,0-.936,1.846V83.424l1.71-.413,4.711-7.671a2.113,2.113,0,0,1,3.611.015l4.7,7.656,1.707.413V72.3a2.61,2.61,0,0,0-.95-1.86,7.4,7.4,0,0,0-2.5-1.458,6.433,6.433,0,0,1-9.542,0ZM49.59,88.223a2.1,2.1,0,0,1-.227.314l-1.623,1.908a.964.964,0,0,1-1.465-1.254L47.9,87.284a.19.19,0,0,0,.033-.175.174.174,0,0,0-.124-.117Q43.273,85.9,38.75,84.806a.949.949,0,0,1-.669-.446L33.17,76.367a.181.181,0,0,0-.314-.015L27.936,84.36a.976.976,0,0,1-.6.431q-4.506,1.085-9.009,2.174c-.091.026-.186.026-.234.121a.178.178,0,0,0,.022.2l6.056,7.108a.953.953,0,0,1,.263.738q-.362,4.682-.727,9.37a.182.182,0,0,0,.249.179l8.683-3.585a.948.948,0,0,1,.734,0l8.578,3.541c.142.051.373.117.354-.135q-.362-4.687-.727-9.37a.976.976,0,0,1,.23-.7l1.626-1.9A.964.964,0,1,1,44.9,93.778l-1.363,1.6.187,2.445H63.211l-2.916-4.239a.961.961,0,0,1-.007-1.107l2.924-4.254Z" transform="translate(0 -54.725)" fill="#565f81"/>
</svg>
