<svg xmlns="http://www.w3.org/2000/svg" xmlns:xlink="http://www.w3.org/1999/xlink" width="24" height="24" viewBox="0 0 24 24">
  <defs>
    <clipPath id="clip-path">
      <rect id="Rectángulo_964" data-name="Rectángulo 964" width="24" height="24" transform="translate(644 1285)" fill="none" stroke="#707070" stroke-width="1"/>
    </clipPath>
  </defs>
  <g id="Enmascarar_grupo_28" data-name="Enmascarar grupo 28" transform="translate(-644 -1285)" clip-path="url(#clip-path)">
    <g id="Icon_feather-share-2" data-name="Icon feather-share-2" transform="translate(649.406 1290.82)">
      <path id="Trazado_11" data-name="Trazado 11" d="M26.49,4.89a2,2,0,0,1-3.99,0,2,2,0,0,1,3.99,0Z" transform="translate(-14.52 -3)" fill="none" stroke="#fff" stroke-linecap="round" stroke-linejoin="round" stroke-width="2"/>
      <path id="Trazado_12" data-name="Trazado 12" d="M8.49,15.39a1.945,1.945,0,0,1-1.995,1.89,1.893,1.893,0,1,1,0-3.78A1.945,1.945,0,0,1,8.49,15.39Z" transform="translate(-4.5 -9.089)" fill="none" stroke="#fff" stroke-linecap="round" stroke-linejoin="round" stroke-width="2"/>
      <path id="Trazado_13" data-name="Trazado 13" d="M26.49,25.89A2,2,0,1,1,24.495,24,1.945,1.945,0,0,1,26.49,25.89Z" transform="translate(-14.52 -15.179)" fill="none" stroke="#fff" stroke-linecap="round" stroke-linejoin="round" stroke-width="2"/>
      <path id="Trazado_14" data-name="Trazado 14" d="M12.885,20.265l4.542,2.508" transform="translate(-9.168 -13.013)" fill="none" stroke="#fff" stroke-linecap="round" stroke-linejoin="round" stroke-width="2"/>
      <path id="Trazado_15" data-name="Trazado 15" d="M17.42,9.765l-4.535,2.508" transform="translate(-9.168 -6.923)" fill="none" stroke="#fff" stroke-linecap="round" stroke-linejoin="round" stroke-width="2"/>
    </g>
  </g>
</svg>
