<svg xmlns="http://www.w3.org/2000/svg" xmlns:xlink="http://www.w3.org/1999/xlink" width="78" height="78" viewBox="0 0 78 78">
  <defs>
    <clipPath id="clip-path">
      <rect id="Rectángulo_977" data-name="Rectángulo 977" width="78" height="78" transform="translate(555 1183)" fill="none" stroke="#707070" stroke-width="1"/>
    </clipPath>
  </defs>
  <g id="Enmascarar_grupo_40" data-name="Enmascarar grupo 40" transform="translate(-555 -1183)" clip-path="url(#clip-path)">
    <g id="idea" transform="translate(562.964 1183)">
      <path id="Trazado_214" data-name="Trazado 214" d="M188.245,36.529,183.3,41.471a15.176,15.176,0,1,0,1.566,1.559l4.94-4.94,5.4,1.351a1.106,1.106,0,0,0,1.05-.291l8.266-8.264A1.106,1.106,0,0,0,203.858,29l-5.935-.587-.587-5.935a1.106,1.106,0,0,0-1.882-.673l-8.266,8.266a1.106,1.106,0,0,0-.291,1.05Zm-1.569,16.425a13.291,13.291,0,1,1-4.719-10.137l-4.877,4.878a6.43,6.43,0,1,0,1.567,1.559l4.876-4.875a13.209,13.209,0,0,1,3.153,8.572Zm-8.745,0a4.527,4.527,0,1,1-2.218-3.889L172.6,52.173a1.106,1.106,0,0,0,1.564,1.564l3.117-3.117a4.494,4.494,0,0,1,.649,2.332Zm17.21-15.807-3.509-.877,5.688-5.688,3.992.395Zm.22-12.122.395,3.992L190.068,34.7l-.875-3.509Z" transform="translate(-142.483 -19.814)" fill="#005fab"/>
      <path id="Trazado_215" data-name="Trazado 215" d="M125.954,123.315a13.526,13.526,0,0,1,4.329,9.957v10.217a4.1,4.1,0,0,0,4.1,4.1H139.5v3.14a.948.948,0,0,0,1.9,0v-3.14h5.115a4.1,4.1,0,0,0,4.1-4.1V133.255a13.808,13.808,0,0,1,4.439-10.044,21.45,21.45,0,0,0,6.813-16.241,21.2,21.2,0,0,0-4.5-12.565.948.948,0,0,0-1.5,1.165,19.317,19.317,0,0,1,4.1,11.448,19.554,19.554,0,0,1-6.212,14.806,15.758,15.758,0,0,0-5.011,10.5h-16.6a15.4,15.4,0,0,0-4.909-10.4,19.526,19.526,0,0,1,13.2-33.913h.184a19.34,19.34,0,0,1,11.5,3.9.948.948,0,0,0,1.138-1.517,21.224,21.224,0,0,0-12.62-4.276h-.2a21.422,21.422,0,0,0-14.485,37.2ZM146.5,145.692H134.377a2.2,2.2,0,0,1-2.2-2.2v-.407h10.862a.948.948,0,0,0,0-1.9H132.176v-2.609h2.671a.948.948,0,1,0,0-1.9h-2.672v-2.466h16.53v2.466h-10.6a.948.948,0,1,0,0,1.9h10.6v2.608H146.3a.948.948,0,1,0,0,1.9h2.409v.407a2.2,2.2,0,0,1-2.2,2.2Z" transform="translate(-109.475 -74.231)" fill="#005fab"/>
      <path id="Trazado_216" data-name="Trazado 216" d="M254.3,19.1a.952.952,0,0,0,.948-.948v-6.3a.948.948,0,0,0-1.9,0v6.3a.952.952,0,0,0,.948.948Z" transform="translate(-222.581 -10.9)" fill="#005fab"/>
      <path id="Trazado_217" data-name="Trazado 217" d="M399.686,200.9a.948.948,0,1,0,0,1.9h6.3a.948.948,0,1,0,0-1.9Z" transform="translate(-345.002 -170.882)" fill="#005fab"/>
      <path id="Trazado_218" data-name="Trazado 218" d="M59.56,202.8h6.3a.948.948,0,1,0,0-1.9h-6.3a.948.948,0,1,0,0,1.9Z" transform="translate(-58.612 -170.882)" fill="#005fab"/>
      <path id="Trazado_219" data-name="Trazado 219" d="M113.613,67.24a.948.948,0,0,0,1.34-1.34l-4.915-4.916a.948.948,0,1,0-1.34,1.34Z" transform="translate(-100.551 -52.836)" fill="#005fab"/>
    </g>
  </g>
</svg>
