<svg xmlns="http://www.w3.org/2000/svg" xmlns:xlink="http://www.w3.org/1999/xlink" width="85" height="85" viewBox="0 0 85 85">
  <defs>
    <clipPath id="clip-path">
      <rect id="Rectángulo_954" data-name="Rectángulo 954" width="85" height="85" transform="translate(650 1495)" fill="none" stroke="#707070" stroke-width="1"/>
    </clipPath>
  </defs>
  <g id="Enmascarar_grupo_23" data-name="Enmascarar grupo 23" transform="translate(-650 -1495)" clip-path="url(#clip-path)">
    <g id="Page-1" transform="translate(660.576 1507.002)">
      <g id="_026---Idea" data-name="026---Idea" transform="translate(0.424)">
        <path id="Shape" d="M56.993,31.729a2.068,2.068,0,0,0-2.029-1.678h-2l-.147-.88a2.078,2.078,0,0,0-1.728-1.713c-.2-.031-.395-.052-.59-.079a6.306,6.306,0,0,0-.786-4.61,4.23,4.23,0,0,0-3.065-5.659A8.8,8.8,0,0,0,38.058,9.93c-.1,0-.2.013-.294.017a4.206,4.206,0,0,0-6.433-.8A7.1,7.1,0,0,0,27.471,8a7.178,7.178,0,0,0-5.643,2.779,5.149,5.149,0,0,0-6.581,4.627,4.255,4.255,0,0,0-2.606,3.92,4.2,4.2,0,0,0,.1.882,8.32,8.32,0,0,0-.991,7.133c-.277.038-.56.072-.827.112a2.08,2.08,0,0,0-1.741,1.712l-.147.883h-2a2.068,2.068,0,0,0-2.028,1.674L.481,54.964a3.1,3.1,0,0,0,3.051,3.693H25.091c.856,1.412,3.457,2.068,5.909,2.068,2.426,0,5-.64,5.883-2.068H58.469a3.1,3.1,0,0,0,3.051-3.692ZM15.767,21.2a2.183,2.183,0,0,1,1.117-4.055,2.144,2.144,0,0,1,1.736.877,1.034,1.034,0,0,0,1.66-1.232,4.177,4.177,0,0,0-2.932-1.654,3.143,3.143,0,0,1,3.065-2.488,3.223,3.223,0,0,1,.376.041,6.791,6.791,0,0,0-.217.647,1.034,1.034,0,0,0,2,.517,5.027,5.027,0,0,1,.537-1.294,5.1,5.1,0,0,1,4.361-2.488,5.021,5.021,0,0,1,2.739.827,4.2,4.2,0,0,0-.243,1.355,1.034,1.034,0,1,0,2.068,0,2.175,2.175,0,1,1,4.349,0,1.034,1.034,0,1,0,2.068,0c0-.08-.02-.155-.024-.235a6.711,6.711,0,0,1,6.122,5.175,4.2,4.2,0,0,0-1.338.667,1.034,1.034,0,1,0,1.241,1.654,2.179,2.179,0,0,1,3.2,2.819,2.205,2.205,0,0,1-.979.906,1.034,1.034,0,0,0,.44,1.964,1.02,1.02,0,0,0,.438-.1,4.246,4.246,0,0,0,.772-.483,4.415,4.415,0,0,1-.875,4.409l-.025.026a4.465,4.465,0,0,1-5.272.968,4.1,4.1,0,0,1-.5-.312,3.521,3.521,0,0,0,.273-3.639,1.034,1.034,0,1,0-1.847.93,1.539,1.539,0,0,1-.5,1.949,1.56,1.56,0,0,1-2.245-.573,1.034,1.034,0,1,0-1.849.925A3.584,3.584,0,0,0,38.7,31.3a3.546,3.546,0,0,0,1.3-.255,6.119,6.119,0,0,0,1.212.827,6.368,6.368,0,0,0,4.775.441,6.59,6.59,0,0,1-4.257,2.61,1.034,1.034,0,0,0,.162,2.054,1.1,1.1,0,0,0,.164-.012,8.5,8.5,0,0,0,1.834-.536,9.244,9.244,0,0,1,.771,1.775,1.066,1.066,0,0,1,.054.334,1.115,1.115,0,0,1-.678,1.026A1.17,1.17,0,0,1,42.7,39.2a6.6,6.6,0,0,0-3.026-2.011c-2.234-.748-3.1-1.417-3.462-2.145a9.925,9.925,0,0,0,1.585-.331,1.034,1.034,0,1,0-.608-1.977,7.834,7.834,0,0,1-1.784.328,7.673,7.673,0,0,1-3.426-.517,1.034,1.034,0,0,0-1.159.288,4.427,4.427,0,0,1-7.14-5.176A1.037,1.037,0,0,0,21.9,26.6a6.456,6.456,0,0,0-.591,1.331A1.551,1.551,0,0,1,19.842,26.4v-.026a1.022,1.022,0,0,0-1.034-1.02A1.044,1.044,0,0,0,17.775,26.4a3.6,3.6,0,0,0,3.21,3.568A6.49,6.49,0,0,0,21.079,31a6.318,6.318,0,0,1-7.148-8.652,4.167,4.167,0,0,0,.769.613,1.034,1.034,0,0,0,1.067-1.771Zm-4.549,8.3c.477-.07.969-.132,1.458-.2a8.347,8.347,0,0,0,9.067,3.678A6.476,6.476,0,0,0,31.886,34.7a9.924,9.924,0,0,0,2.158.391c.5,1.894,1.943,3.041,4.975,4.058a4.582,4.582,0,0,1,2.1,1.386,3.293,3.293,0,0,0,2.5,1.173,3.14,3.14,0,0,0,1.227-.25,3.183,3.183,0,0,0,1.932-2.927,3.067,3.067,0,0,0-.157-.978,11.3,11.3,0,0,0-.914-2.1A8.715,8.715,0,0,0,49.145,30.2a6.476,6.476,0,0,0,.6-.833c.346.044.693.084,1.041.142l3.732,22.448a35.487,35.487,0,0,0-22.479,0V39.014a1.034,1.034,0,0,0-2.068,0V51.96a35.493,35.493,0,0,0-22.479-.008ZM2.726,56.209a1.026,1.026,0,0,1-.217-.848L7.036,32.119H8.69l-3.244,19.5a2.075,2.075,0,0,0,2.668,2.31A34.586,34.586,0,0,1,25.19,52.842l-.308,3.748H3.532a1.041,1.041,0,0,1-.805-.38ZM31,58.657c-2.49,0-3.919-.736-4.129-1.064l.356-4.29a22.093,22.093,0,0,1,3.327,1.115,1.043,1.043,0,0,0,.447.1,1.028,1.028,0,0,0,.448-.1A22.02,22.02,0,0,1,34.774,53.3l.356,4.3c-.21.329-1.639,1.065-4.129,1.065Zm28.274-2.448a1.041,1.041,0,0,1-.805.38H37.121l-.31-3.755a34.6,34.6,0,0,1,17.083,1.093,2.074,2.074,0,0,0,2.659-2.315L53.312,32.12h1.654l4.528,23.24a1.026,1.026,0,0,1-.22.849Z" transform="translate(-0.424 0.271)" fill="#005fab"/>
        <path id="Shape-2" data-name="Shape" d="M26.7,22.776a1.034,1.034,0,0,0-.073,1.46,6.234,6.234,0,0,0,3.313,1.91,3.08,3.08,0,0,1-2.516,1.3,1.034,1.034,0,0,0,0,2.068A5.127,5.127,0,0,0,32.237,26.2a6.239,6.239,0,0,0,5.1-4.962,1.034,1.034,0,1,0-2.03-.389A4.121,4.121,0,0,1,33.6,23.47a4.22,4.22,0,0,1-5.442-.62,1.034,1.034,0,0,0-1.46-.073Z" transform="translate(0.453 0.676)" fill="#005fab"/>
        <path id="Shape-3" data-name="Shape" d="M23.234,21.789a1.034,1.034,0,0,0,1.034-1.034,2.688,2.688,0,0,1,2.688-2.688,1.034,1.034,0,0,0,0-2.068A4.761,4.761,0,0,0,22.2,20.756a1.034,1.034,0,0,0,1.034,1.034Z" transform="translate(0.312 0.541)" fill="#005fab"/>
        <path id="Shape-4" data-name="Shape" d="M31.068,2.068V1.034a1.034,1.034,0,0,0-2.068,0V2.068a1.034,1.034,0,0,0,2.068,0Z" transform="translate(0.542)" fill="#005fab"/>
        <path id="Shape-5" data-name="Shape" d="M46.454,7.186,45.42,8.22a1.034,1.034,0,1,0,1.462,1.462l1.034-1.034a1.034,1.034,0,1,0-1.462-1.462Z" transform="translate(1.087 0.232)" fill="#005fab"/>
        <path id="Shape-6" data-name="Shape" d="M13.951,9.985a1.034,1.034,0,0,0,.731-1.765L13.648,7.186a1.034,1.034,0,1,0-1.462,1.462L13.22,9.682a1.034,1.034,0,0,0,.731.3Z" transform="translate(-0.037 0.232)" fill="#005fab"/>
        <path id="Shape-7" data-name="Shape" d="M21.654,5.837a1.048,1.048,0,0,0,.4-.079,1.034,1.034,0,0,0,.559-1.351L21.421,1.542a1.034,1.034,0,1,0-1.909.792L20.7,5.2a1.034,1.034,0,0,0,.955.638Z" transform="translate(0.219 0.03)" fill="#005fab"/>
        <path id="Shape-8" data-name="Shape" d="M40.036.982a1.034,1.034,0,0,0-1.35.559L37.5,4.407a1.034,1.034,0,0,0,.559,1.352,1.048,1.048,0,0,0,.4.079,1.034,1.034,0,0,0,.955-.638l1.187-2.866A1.034,1.034,0,0,0,40.036.982Z" transform="translate(0.827 0.031)" fill="#005fab"/>
        <path id="Shape-9" data-name="Shape" d="M50.359,17.688a1.034,1.034,0,0,0,.4-.08l2.865-1.187a1.034,1.034,0,1,0-.791-1.91L49.963,15.7a1.034,1.034,0,0,0,.4,1.99Z" transform="translate(1.23 0.488)" fill="#005fab"/>
        <path id="Shape-10" data-name="Shape" d="M9.407,17.609A1.034,1.034,0,1,0,10.2,15.7L7.333,14.512a1.034,1.034,0,1,0-.791,1.91Z" transform="translate(-0.239 0.488)" fill="#005fab"/>
      </g>
    </g>
  </g>
</svg>
