<svg xmlns="http://www.w3.org/2000/svg" xmlns:xlink="http://www.w3.org/1999/xlink" width="78" height="78" viewBox="0 0 78 78">
  <defs>
    <clipPath id="clip-path">
      <rect id="Rectángulo_978" data-name="Rectángulo 978" width="78" height="78" transform="translate(865 1183)" fill="none" stroke="#707070" stroke-width="1"/>
    </clipPath>
  </defs>
  <g id="Enmascarar_grupo_41" data-name="Enmascarar grupo 41" transform="translate(-865 -1183)" clip-path="url(#clip-path)">
    <g id="management" transform="translate(877.305 1183.676)">
      <path id="Trazado_220" data-name="Trazado 220" d="M318.125,371.832A1.123,1.123,0,0,0,317,372.955v2.066a1.285,1.285,0,0,1-.824,1.194,1.123,1.123,0,0,0,.8,2.1,3.543,3.543,0,0,0,2.27-3.293v-2.066A1.123,1.123,0,0,0,318.125,371.832Z" transform="translate(-277.459 -316.162)" fill="#005fab"/>
      <path id="Trazado_221" data-name="Trazado 221" d="M81.42,154.657H65.195a1.279,1.279,0,0,1-1.277-1.277V112.287a1.123,1.123,0,0,0-2.246,0V153.38a3.527,3.527,0,0,0,3.523,3.523H81.42a1.123,1.123,0,1,0,0-2.246Z" transform="translate(-61.672 -94.522)" fill="#005fab"/>
      <path id="Trazado_222" data-name="Trazado 222" d="M62.794,14.146a1.123,1.123,0,0,0,1.123-1.127V9.925a1.279,1.279,0,0,1,1.277-1.277H73.27v1.576a2.217,2.217,0,0,0,2.214,2.215H89.643a2.217,2.217,0,0,0,2.214-2.214V8.649h8.075a1.28,1.28,0,0,1,1.279,1.277v6.162a1.123,1.123,0,0,0,2.246,0V9.925A3.528,3.528,0,0,0,99.933,6.4h-8.1a2.216,2.216,0,0,0-2.193-1.9H88.076a5.627,5.627,0,0,0-11.03,0H75.478a2.216,2.216,0,0,0-2.189,1.9h-8.1a3.527,3.527,0,0,0-3.523,3.523v3.093a1.123,1.123,0,0,0,1.123,1.127Zm19.772-11.9A3.387,3.387,0,0,1,85.755,4.5H79.376A3.387,3.387,0,0,1,82.566,2.245Zm-7.049,4.5h14.1v3.446h-14.1Z" transform="translate(-61.671)" fill="#005fab"/>
      <path id="Trazado_223" data-name="Trazado 223" d="M328.038,168.141v-3.679a1.123,1.123,0,1,0-2.246,0v3.679a1.123,1.123,0,1,0,2.246,0Z" transform="translate(-286.244 -138.885)" fill="#005fab"/>
      <path id="Trazado_224" data-name="Trazado 224" d="M287.089,340.624a8.135,8.135,0,1,0,8.135,8.135A8.135,8.135,0,0,0,287.089,340.624Zm0,14.024a5.888,5.888,0,1,1,5.888-5.888A5.888,5.888,0,0,1,287.089,354.648Z" transform="translate(-246.422 -289.627)" fill="#005fab"/>
      <path id="Trazado_225" data-name="Trazado 225" d="M250.339,268.662l-3.129-.479a14.2,14.2,0,0,0-.685-1.654l1.873-2.551a1.123,1.123,0,0,0-.111-1.459l-.4-.4a1.123,1.123,0,0,0-1.825,1.244l-1.764,2.4a1.123,1.123,0,0,0-.076,1.211,11.912,11.912,0,0,1,1.043,2.521,1.123,1.123,0,0,0,.912.8l2.868.439v4.092l-2.868.439a1.123,1.123,0,0,0-.912.8,11.906,11.906,0,0,1-1.043,2.521,1.123,1.123,0,0,0,.076,1.211l1.718,2.338-2.893,2.894-2.339-1.718a1.124,1.124,0,0,0-1.211-.076,11.9,11.9,0,0,1-2.52,1.044,1.123,1.123,0,0,0-.8.912l-.44,2.869H231.72l-.439-2.868a1.123,1.123,0,0,0-.8-.912,11.9,11.9,0,0,1-2.52-1.043,1.123,1.123,0,0,0-1.211.076l-2.338,1.718-2.894-2.894,1.718-2.338a1.123,1.123,0,0,0,.076-1.211,11.9,11.9,0,0,1-1.044-2.52,1.123,1.123,0,0,0-.912-.8l-2.868-.439v-4.092l2.868-.439a1.123,1.123,0,0,0,.912-.8,11.91,11.91,0,0,1,1.044-2.52,1.123,1.123,0,0,0-.076-1.211l-1.718-2.338,2.894-2.893,2.338,1.717a1.123,1.123,0,0,0,1.211.076,11.912,11.912,0,0,1,2.521-1.043,1.124,1.124,0,0,0,.8-.912l.439-2.868h4.092l.439,2.868a1.124,1.124,0,0,0,.8.912,11.9,11.9,0,0,1,2.521,1.043,1.123,1.123,0,0,0,1.211-.076l2.339-1.717a1.123,1.123,0,0,0,1.576-1.6l-.669-.669a1.123,1.123,0,0,0-1.459-.111l-2.551,1.873a14.188,14.188,0,0,0-1.654-.685l-.479-3.129a1.123,1.123,0,0,0-1.113-.96h-1.887v-2.867a1.123,1.123,0,1,0-2.246,0v2.867h-1.888a1.123,1.123,0,0,0-1.11.953l-.476,3.128a14.138,14.138,0,0,0-1.655.685l-2.551-1.873a1.123,1.123,0,0,0-1.458.11l-4.257,4.257a1.123,1.123,0,0,0-.111,1.459l1.874,2.551a14.161,14.161,0,0,0-.685,1.654l-3.129.479a1.123,1.123,0,0,0-.953,1.11v6.02a1.123,1.123,0,0,0,.953,1.11l3.129.479a14.157,14.157,0,0,0,.685,1.655l-1.874,2.551a1.123,1.123,0,0,0,.111,1.459l4.257,4.258a1.123,1.123,0,0,0,1.459.111l2.551-1.874a14.145,14.145,0,0,0,1.655.685l.478,3.129a1.123,1.123,0,0,0,1.11.953h6.017a1.123,1.123,0,0,0,1.11-.953l.478-3.129a14.13,14.13,0,0,0,1.655-.685l2.551,1.874a1.123,1.123,0,0,0,1.459-.111l4.257-4.257a1.123,1.123,0,0,0,.111-1.459l-1.873-2.551a14.18,14.18,0,0,0,.685-1.655l3.129-.478a1.123,1.123,0,0,0,.953-1.11v-6.02a1.123,1.123,0,0,0-.95-1.11Z" transform="translate(-193.101 -213.65)" fill="#005fab"/>
      <path id="Trazado_226" data-name="Trazado 226" d="M170.426,115.8a.738.738,0,0,0-.011-.083c-.01-.088-.022-.175-.036-.262,0-.027-.01-.055-.015-.083-.015-.083-.031-.172-.049-.256-.007-.029-.013-.057-.02-.083-.019-.083-.039-.166-.061-.249-.008-.032-.017-.062-.027-.094-.022-.077-.045-.154-.07-.23-.012-.035-.023-.07-.036-.1-.024-.071-.05-.14-.076-.209q-.022-.059-.046-.118-.038-.094-.079-.185l-.061-.134c-.021-.045-.051-.105-.077-.158s-.051-.1-.077-.15-.046-.083-.07-.126-.065-.114-.1-.171c-.017-.027-.035-.055-.051-.083a6.565,6.565,0,0,0-.7-.934l-.012-.014c-.057-.063-.117-.124-.177-.186l-.055-.056c-.054-.054-.109-.106-.166-.158l-.083-.075c-.025-.022-.049-.046-.075-.068l-.032-.029-.036-.031-.149-.123-.073-.057-.083-.064h0l-.056-.041-.083-.061c-.044-.032-.088-.061-.138-.095l-.1-.065-.119-.075-.013-.008-.016-.009h0l-.091-.055-.1-.057-.059-.032-.039-.022-.047-.027-.07-.036-.046-.022q-.132-.066-.267-.127l-.057-.026a6.513,6.513,0,0,0-1.448-.442l-.039-.007q-.161-.028-.324-.049l-.065-.008q-.152-.017-.305-.027l-.076-.006c-.124-.007-.249-.012-.372-.012a6.583,6.583,0,0,0-6.576,6.576v2.629a6.576,6.576,0,1,0,13.151,0V116.5q0-.176-.009-.349c0-.026,0-.051-.006-.078C170.443,115.978,170.436,115.888,170.426,115.8Zm-6.3-3.626.1.007a1.307,1.307,0,0,1,.139.012l.117.015.114.017.124.022.105.022.123.028.119.032.1.029c.074.023.147.047.219.075l.031.012c.066.026.133.052.2.083l.038.017q.1.043.192.091l.093.047.042.023.129.074.038.023.012.007.134.083h0l.044.031.119.083.047.036q.057.043.112.088l.046.038c.03.025.059.05.087.075l.079.07.083.075.066.066.083.083.057.062.083.1.051.061.083.1.047.063q.037.05.072.1l.047.069c.022.032.042.066.063.1l.049.079c.018.03.035.061.052.091s.035.061.051.092.027.054.041.083.036.071.053.107.02.045.03.067q.029.062.055.124c.007.016.012.033.019.049.019.048.038.1.056.145l.009.027a4.318,4.318,0,0,1,.21.887c0,.027.007.053.01.083a3.593,3.593,0,0,1-1.358-1.237,1.123,1.123,0,0,0-1.776-.141,5.391,5.391,0,0,1-5.491,1.57.816.816,0,0,1,.007-.083c0-.025,0-.068.009-.1s.009-.075.014-.114.008-.066.013-.1.013-.076.021-.114.011-.063.017-.095.017-.077.027-.115.013-.06.022-.09.022-.083.034-.12l.023-.083c.016-.05.032-.1.05-.147.006-.017.011-.034.017-.051q.036-.1.076-.192l.028-.061.057-.126c.012-.026.026-.051.038-.075s.036-.072.056-.108.03-.052.045-.078l.057-.1c.019-.032.032-.052.049-.078s.04-.064.061-.1.036-.051.053-.076l.064-.09c.022-.03.038-.05.057-.075s.045-.058.068-.083l.061-.072.071-.083.065-.071.075-.079.069-.067.078-.075.071-.065.083-.071.075-.061.083-.067.077-.058.088-.062.083-.054.091-.059.083-.051.095-.055.083-.046.1-.05.083-.042.1-.046.089-.038.1-.041.09-.034.107-.036.09-.03.11-.032.091-.025.114-.027.091-.02c.04-.008.083-.015.119-.022l.09-.016c.042-.007.083-.011.128-.017l.083-.01c.048,0,.1-.007.144-.011l.071,0q.109-.006.218-.006c.081,0,.162,0,.241,0Zm-.24,11.279a4.335,4.335,0,0,1-4.33-4.33v-.593a7.621,7.621,0,0,0,6.228-1.493,5.788,5.788,0,0,0,2.432,1.41v.68a4.335,4.335,0,0,1-4.329,4.328Z" transform="translate(-142.994 -93.463)" fill="#005fab"/>
      <path id="Trazado_227" data-name="Trazado 227" d="M158.193,230.545a6.928,6.928,0,0,0-4.573-5.708q-.047-.021-.1-.037-.121-.041-.242-.076l-.026-.007-.051-.015-.2-.054c-.083-.02-.161-.038-.242-.055l-.038-.009c-.083-.017-.173-.033-.26-.047s-.166-.027-.249-.038l-.042-.006c-.09-.011-.179-.02-.274-.027l-.213-.014h-.11c-.078,0-.158,0-.238,0h-4.652c-.083,0-.159,0-.238,0h-.117c-.069,0-.138.008-.21.014-.091.007-.181.016-.274.027l-.04,0c-.083.011-.166.024-.249.038s-.174.03-.26.047l-.038.009c-.083.017-.166.036-.249.058l-.193.051-.051.015-.027.008q-.121.036-.243.076c-.032.011-.064.023-.095.036a6.927,6.927,0,0,0-4.574,5.708,1.123,1.123,0,0,0,.484,1.059,15.526,15.526,0,0,0,17.408,0A1.123,1.123,0,0,0,158.193,230.545Zm-9.185,1.486a13.2,13.2,0,0,1-6.829-1.889,4.68,4.68,0,0,1,3.024-3.205l.078-.029.094-.028.026-.007h.009l.15-.04c.056-.014.114-.027.17-.038l.035-.007c.05-.01.1-.019.152-.027h.022c.049-.009.1-.017.166-.025h.013c.06-.007.119-.013.177-.017l.153-.01h5.123l.148.01c.061,0,.121.011.192.019h.016c.051.007.1.014.15.023h.022l.152.027.035.007c.056.012.114.024.161.036l.16.042h.007l.027.008.092.028c.026.011.052.021.079.03a4.681,4.681,0,0,1,3.024,3.205,13.2,13.2,0,0,1-6.826,1.888Z" transform="translate(-128.111 -190.844)" fill="#005fab"/>
      <path id="Trazado_228" data-name="Trazado 228" d="M281.291,115.275a1.123,1.123,0,0,0,0,2.246h11.837a4.008,4.008,0,1,0,0-2.246Zm15.683-.639a1.762,1.762,0,1,1-1.762,1.762,1.762,1.762,0,0,1,1.762-1.762Z" transform="translate(-247.454 -95.564)" fill="#005fab"/>
      <path id="Trazado_229" data-name="Trazado 229" d="M280.168,204.326a1.123,1.123,0,0,0,1.123,1.123h11.837a4.008,4.008,0,1,0,0-2.246H281.291A1.123,1.123,0,0,0,280.168,204.326Zm16.806-1.762a1.762,1.762,0,1,1-1.762,1.762A1.762,1.762,0,0,1,296.974,202.564Z" transform="translate(-247.454 -170.327)" fill="#005fab"/>
    </g>
  </g>
</svg>
