<svg xmlns="http://www.w3.org/2000/svg" width="30" height="30" viewBox="0 0 30 30">
  <g id="Grupo_29" data-name="Grupo 29" transform="translate(-1342 -11)">
    <circle id="Elipse_10" data-name="Elipse 10" cx="11" cy="11" r="11" transform="translate(1346 15)" fill="#fff"/>
    <path id="Exclusión_4" data-name="Exclusión 4" d="M15,30A15,15,0,0,1,9.161,1.179,15,15,0,0,1,20.839,28.821,14.906,14.906,0,0,1,15,30Zm-.527-19.14a1.6,1.6,0,0,0-1.365.926,3.286,3.286,0,0,0-.086,3.065c-.141.7-.329,1.4-.511,2.074a15.163,15.163,0,0,0-.713,6.384c1.518-1.1,2.024-3.184,2.447-5.4.19.116.357.231.518.344a2.99,2.99,0,0,0,1.62.677c.121.009.243.014.362.014a4.21,4.21,0,0,0,3.242-1.515,7.261,7.261,0,0,0,1.492-5.634,4.716,4.716,0,0,0-2.02-3.286,6.927,6.927,0,0,0-3.955-1.149,8.6,8.6,0,0,0-.955.054A6.458,6.458,0,0,0,10.9,9.126,5.445,5.445,0,0,0,9.15,12.915,4.589,4.589,0,0,0,9.578,15.3a2.558,2.558,0,0,0,1.814,1.281,1.475,1.475,0,0,0-.046-1.8,2.29,2.29,0,0,1-.362-.846,4.149,4.149,0,0,1,.971-3.4,4.975,4.975,0,0,1,3.681-1.731A3.826,3.826,0,0,1,18.422,9.96a3.777,3.777,0,0,1,.9,2.43,6.763,6.763,0,0,1-.484,2.918,2.809,2.809,0,0,1-2.419,2.034,2.251,2.251,0,0,1-.442-.045,1.261,1.261,0,0,1-.905-.556c-.367-.624-.039-1.655.278-2.652.416-1.308.847-2.661-.29-3.11A1.592,1.592,0,0,0,14.474,10.86Z" transform="translate(1342 11)" fill="#c8232c"/>
  </g>
</svg>
