<svg xmlns="http://www.w3.org/2000/svg" width="30" height="30" viewBox="0 0 30 30">
  <g id="Grupo_27" data-name="Grupo 27" transform="translate(-1258 -11)">
    <circle id="Elipse_7" data-name="Elipse 7" cx="11" cy="11" r="11" transform="translate(1262 15)" fill="#fff"/>
    <path id="Exclusión_2" data-name="Exclusión 2" d="M15,30A15,15,0,0,1,9.161,1.179,15,15,0,0,1,20.839,28.821,14.906,14.906,0,0,1,15,30ZM14.769,9.849a43.689,43.689,0,0,0-5.725.308,1.842,1.842,0,0,0-1.3,1.3,19.438,19.438,0,0,0-.306,3.55,19.428,19.428,0,0,0,.306,3.549,1.8,1.8,0,0,0,1.3,1.283,43.689,43.689,0,0,0,5.725.308,43.683,43.683,0,0,0,5.725-.308,1.8,1.8,0,0,0,1.3-1.283,19.385,19.385,0,0,0,.307-3.549,19.4,19.4,0,0,0-.307-3.55,1.84,1.84,0,0,0-1.3-1.3A43.683,43.683,0,0,0,14.769,9.849Zm-1.5,7.341h0V12.832L17.1,15.011l-3.828,2.178Z" transform="translate(1258 11)" fill="#c4302b"/>
  </g>
</svg>
