<svg xmlns="http://www.w3.org/2000/svg" xmlns:xlink="http://www.w3.org/1999/xlink" width="85" height="85" viewBox="0 0 85 85">
  <defs>
    <clipPath id="clip-path">
      <rect id="Rectángulo_952" data-name="Rectángulo 952" width="85" height="85" transform="translate(661 1212)" fill="none" stroke="#707070" stroke-width="1"/>
    </clipPath>
  </defs>
  <g id="Enmascarar_grupo_21" data-name="Enmascarar grupo 21" transform="translate(-661 -1212)" clip-path="url(#clip-path)">
    <g id="grupo" transform="translate(663.488 1136.649)">
      <g id="Grupo_956" data-name="Grupo 956" transform="translate(22.553 92.184)">
        <g id="Grupo_955" data-name="Grupo 955" transform="translate(0 0)">
          <path id="Trazado_183" data-name="Trazado 183" d="M175.539,121.032,168.728,118a1.335,1.335,0,0,1-.792-1.219v-1.871a9.927,9.927,0,0,0,3.759-7.777v-2.633a2.429,2.429,0,0,0,1.253-2.123v-.256A9.954,9.954,0,0,0,163,92.184H160.5a9.954,9.954,0,0,0-9.943,9.943v2.319a2.458,2.458,0,0,0,.935,1.97,2.288,2.288,0,0,0,.317.206v.518a9.927,9.927,0,0,0,3.759,7.777v1.871a1.335,1.335,0,0,1-.792,1.219l-6.812,3.027a6.189,6.189,0,0,0-3.672,5.651v15.537a1.172,1.172,0,1,0,2.344,0V126.683a3.833,3.833,0,0,1,.024-.4l3.139,3.139a2.57,2.57,0,0,1,.758,1.829V142.22a1.172,1.172,0,0,0,2.344,0V131.247a4.9,4.9,0,0,0-1.444-3.487l-3.742-3.742a3.829,3.829,0,0,1,1.2-.844l6.7-2.976,4.966,4.966v17.055a1.172,1.172,0,1,0,2.344,0V125.164l4.966-4.966,6.7,2.976a3.827,3.827,0,0,1,1.2.844l-3.742,3.742a4.9,4.9,0,0,0-1.444,3.487V142.22a1.172,1.172,0,0,0,2.344,0V131.247a2.57,2.57,0,0,1,.758-1.829l3.139-3.139a3.827,3.827,0,0,1,.024.4v15.537a1.172,1.172,0,0,0,2.344,0V126.683A6.19,6.19,0,0,0,175.539,121.032Zm-13.788,1.989-4.358-4.358a3.672,3.672,0,0,0,.518-1.877v-.477a9.934,9.934,0,0,0,7.679,0v.477a3.671,3.671,0,0,0,.519,1.877Zm0-8.285a7.607,7.607,0,0,1-7.6-7.6v-.527a6.93,6.93,0,0,0,2.129-1.382,1.172,1.172,0,0,0-1.59-1.723,4.211,4.211,0,0,1-1.741,1.039.189.189,0,0,1-.031.006.238.238,0,0,1-.02-.106v-2.319a7.607,7.607,0,0,1,7.6-7.6H163a7.607,7.607,0,0,1,7.6,7.6v.256a.075.075,0,0,1-.053.077c-7.02,1.386-10.54-1.226-11.728-2.414a1.172,1.172,0,0,0-1.658,1.658c3.64,3.64,8.952,3.706,12.186,3.317v2.118A7.607,7.607,0,0,1,161.752,114.736Z" transform="translate(-144.292 -92.184)" fill="#005fab"/>
        </g>
      </g>
      <g id="Grupo_958" data-name="Grupo 958" transform="translate(0 98.449)">
        <g id="Grupo_957" data-name="Grupo 957" transform="translate(0 0)">
          <path id="Trazado_184" data-name="Trazado 184" d="M21.138,148.472v-2.506a8.688,8.688,0,0,0-3.984-7.3,4.931,4.931,0,1,0-9.412,0,8.687,8.687,0,0,0-3.984,7.3v2.506a8.685,8.685,0,0,0,3.759,7.15V158.2a1.326,1.326,0,0,1-.737,1.193l-4.055,2.027A4.9,4.9,0,0,0,0,165.83v10.206a1.172,1.172,0,0,0,2.344,0v-9.7l1.91,1.91a2.57,2.57,0,0,1,.758,1.829v5.96a1.172,1.172,0,0,0,2.344,0v-5.96a4.9,4.9,0,0,0-1.444-3.487l-2.658-2.658c-.013-.013-.027-.024-.04-.036a2.614,2.614,0,0,1,.56-.379l4.055-2.027a3.734,3.734,0,0,0,.581-.363l2.866,2.866v12.044a1.172,1.172,0,1,0,2.344,0V163.993l2.866-2.866a3.717,3.717,0,0,0,.581.363l1.118.559a1.172,1.172,0,1,0,1.049-2.1l-1.118-.559a1.326,1.326,0,0,1-.737-1.193v-2.578A8.685,8.685,0,0,0,21.138,148.472Zm-8.69-13.863a2.589,2.589,0,0,1,2.586,2.586,2.627,2.627,0,0,1-.041.462,8.689,8.689,0,0,0-5.087,0,2.571,2.571,0,0,1,2.542-3.047Zm0,5.012a6.352,6.352,0,0,1,6.345,6.345v.425a7.359,7.359,0,0,1-7.913-2.381,1.172,1.172,0,0,0-1.767-.126A7.669,7.669,0,0,1,6.107,145.8,6.351,6.351,0,0,1,12.448,139.621Zm0,22.228L9.74,159.14a3.712,3.712,0,0,0,.122-.941v-1.431a8.705,8.705,0,0,0,5.173,0V158.2a3.711,3.711,0,0,0,.122.941Zm0-7.032A6.352,6.352,0,0,1,6.1,148.472v-.243a9.4,9.4,0,0,0,3.767-1.877,10.578,10.578,0,0,0,2.174,1.583,9.324,9.324,0,0,0,4.48,1.156,9.822,9.822,0,0,0,2.26-.271A6.353,6.353,0,0,1,12.448,154.817Z" transform="translate(0 -132.265)" fill="#005fab"/>
        </g>
      </g>
      <g id="Grupo_960" data-name="Grupo 960" transform="translate(56.381 100.955)">
        <g id="Grupo_959" data-name="Grupo 959" transform="translate(0 0)">
          <path id="Trazado_185" data-name="Trazado 185" d="M381.644,172.441l-6.56-3.28a1.326,1.326,0,0,1-.737-1.193v-1.661a7.419,7.419,0,0,0,2.506-5.56v-1.334h.081a1.172,1.172,0,0,0,1.172-1.172v-2.506a7.445,7.445,0,0,0-7.437-7.437h-2.506a7.445,7.445,0,0,0-7.437,7.437v2.506a1.172,1.172,0,0,0,1.172,1.172l.081,0v1.336a7.42,7.42,0,0,0,2.506,5.56v1.661a1.326,1.326,0,0,1-.737,1.193,1.172,1.172,0,1,0,1.048,2.1,3.733,3.733,0,0,0,.581-.363l2.866,2.866v15.8a1.172,1.172,0,1,0,2.344,0v-15.8l2.866-2.866a3.722,3.722,0,0,0,.581.363l6.348,3.174-1.925,1.925a4.9,4.9,0,0,0-1.444,3.487v9.719a1.172,1.172,0,1,0,2.344,0v-9.719a2.57,2.57,0,0,1,.758-1.829l1.824-1.824a2.611,2.611,0,0,1,.086.66v12.712a1.172,1.172,0,0,0,2.345,0V176.851A4.9,4.9,0,0,0,381.644,172.441ZM363.07,156.827v-1.093h0a5.1,5.1,0,0,1,5.092-5.092h2.506a5.1,5.1,0,0,1,5.092,5.092v1.3a17.929,17.929,0,0,1-8.2-2.277,1.172,1.172,0,0,0-1.479.146A7.678,7.678,0,0,1,363.07,156.827Zm6.345,14.79-2.709-2.709a3.713,3.713,0,0,0,.122-.941v-.25a7.43,7.43,0,0,0,5.173,0v.25a3.7,3.7,0,0,0,.122.941Zm0-5.779a5.1,5.1,0,0,1-5.092-5.092v-1.89h0a9.92,9.92,0,0,0,2.751-1.679,20.827,20.827,0,0,0,7.434,2.113v1.455A5.1,5.1,0,0,1,369.416,165.839Z" transform="translate(-360.726 -148.298)" fill="#005fab"/>
        </g>
      </g>
    </g>
  </g>
</svg>
