<svg id="ropa" xmlns="http://www.w3.org/2000/svg" width="55.164" height="62.045" viewBox="0 0 55.164 62.045">
  <path id="Trazado_162" data-name="Trazado 162" d="M82.647,41.869a.908.908,0,0,0,.908-.908V3.936A3.941,3.941,0,0,0,79.619,0H32.327c-2.253,0-3.936,2.334-3.936,4.421V58.108a3.941,3.941,0,0,0,3.936,3.936h3.685a.908.908,0,1,0,0-1.817H32.327a2.122,2.122,0,0,1-2.12-2.12V4.421c0-1.172.978-2.6,2.12-2.6H69.511V60.228H40.164a.908.908,0,1,0,0,1.817H79.619a3.941,3.941,0,0,0,3.936-3.936V45a.908.908,0,0,0-1.817,0v13.1a2.122,2.122,0,0,1-2.12,2.12H71.328v-4.48H76.46a.908.908,0,0,0,0-1.817H71.328V47.843h1.658a.908.908,0,0,0,0-1.817H71.328V39.938H76.46a.908.908,0,0,0,0-1.817H71.328V32.034h1.658a.908.908,0,1,0,0-1.817H71.328V24.129H76.46a.908.908,0,0,0,0-1.817H71.328V16.224h1.658a.908.908,0,1,0,0-1.817H71.328V8.319h6.041a.908.908,0,1,0,0-1.817H71.328V1.817h8.291a2.122,2.122,0,0,1,2.12,2.12V40.961A.908.908,0,0,0,82.647,41.869Z" transform="translate(-28.391 0)" fill="#565f81"/>
  <path id="Trazado_163" data-name="Trazado 163" d="M145.68,60.07a11.055,11.055,0,0,0-3.483,5.978l-.544,2.586a35.668,35.668,0,0,0-.761,7.321,1.9,1.9,0,0,0,1.9,1.9h9.5v1.2a.908.908,0,1,0,1.817,0v-1.2h9.5a1.9,1.9,0,0,0,1.9-1.9,35.674,35.674,0,0,0-.761-7.328l-.543-2.586a11.058,11.058,0,0,0-3.469-5.965,2.081,2.081,0,0,1-.467-2.523l1.88-3.607a12.319,12.319,0,0,0,1.389-5.671V45.464a1.913,1.913,0,0,0-1.073-1.712l-5.651-2.736a.085.085,0,0,1-.048-.077v-.993a1.474,1.474,0,0,0-1.472-1.472h-1.183v-.9a2.689,2.689,0,1,0-1.817,0v.9h-1.183a1.474,1.474,0,0,0-1.472,1.472v.993a.086.086,0,0,1-.048.077l-5.651,2.736a1.913,1.913,0,0,0-1.073,1.712v2.817a12.274,12.274,0,0,0,.458,3.321.908.908,0,1,0,1.749-.492,10.45,10.45,0,0,1-.39-2.829V45.464a.086.086,0,0,1,.048-.077l5.651-2.736a1.912,1.912,0,0,0,1.073-1.712v-.649h3.495v.649a1.913,1.913,0,0,0,1.073,1.712l5.65,2.736a.085.085,0,0,1,.048.077v2.817a10.5,10.5,0,0,1-1.183,4.831l-1.88,3.607a3.9,3.9,0,0,0,.874,4.724,9.228,9.228,0,0,1,2.9,4.979l.544,2.586a33.843,33.843,0,0,1,.722,6.954.083.083,0,0,1-.085.079h-20.81a.085.085,0,0,1-.085-.085,33.84,33.84,0,0,1,.722-6.948l.544-2.586a9.227,9.227,0,0,1,2.907-4.989,3.879,3.879,0,0,0,.862-4.713l-1.183-2.271a.908.908,0,0,0-1.611.84l1.183,2.271a2.066,2.066,0,0,1-.453,2.511Zm7.519-25.9a.872.872,0,1,1-.872.872A.873.873,0,0,1,153.2,34.174Z" transform="translate(-127.26 -28.436)" fill="#565f81"/>
  <path id="Trazado_164" data-name="Trazado 164" d="M70.8,85.508a.908.908,0,0,0-1.285,1.285l2.246,2.246a.909.909,0,0,0,1.285,0l2.246-2.246a.908.908,0,0,0-1.285-1.285l-.7.7V49.493l.7.7A.908.908,0,1,0,75.293,48.9l-2.246-2.246a.909.909,0,0,0-1.285,0L69.515,48.9A.908.908,0,1,0,70.8,50.188l.7-.7V86.2Z" transform="translate(-64.298 -40.77)" fill="#565f81"/>
  <path id="Trazado_165" data-name="Trazado 165" d="M165.995,428.552a.909.909,0,0,0,1.285,0l2.246-2.246a.908.908,0,0,0,0-1.285l-2.246-2.246a.908.908,0,0,0-1.285,1.285l.7.7h-17.4l.7-.7a.908.908,0,1,0-1.285-1.285l-2.246,2.246a.908.908,0,0,0,0,1.285l2.246,2.246a.908.908,0,1,0,1.285-1.285l-.7-.7h17.4l-.7.7A.908.908,0,0,0,165.995,428.552Z" transform="translate(-131.914 -371.308)" fill="#565f81"/>
</svg>
