<svg xmlns="http://www.w3.org/2000/svg" width="26.316" height="26.365" viewBox="0 0 26.316 26.365">
  <path id="Icon_feather-phone" data-name="Icon feather-phone" d="M27.482,21.24v3.668a2.445,2.445,0,0,1-2.665,2.445A24.194,24.194,0,0,1,14.266,23.6a23.839,23.839,0,0,1-7.335-7.335,24.194,24.194,0,0,1-3.753-10.6A2.445,2.445,0,0,1,5.611,3H9.278a2.445,2.445,0,0,1,2.445,2.1,15.7,15.7,0,0,0,.856,3.435,2.445,2.445,0,0,1-.55,2.58L10.476,12.67a19.56,19.56,0,0,0,7.335,7.335l1.553-1.553a2.445,2.445,0,0,1,2.58-.55,15.7,15.7,0,0,0,3.435.856A2.445,2.445,0,0,1,27.482,21.24Z" transform="translate(-2.167 -2)" fill="none" stroke="#a4aed4" stroke-linecap="round" stroke-linejoin="round" stroke-width="2"/>
</svg>
