<svg xmlns="http://www.w3.org/2000/svg" xmlns:xlink="http://www.w3.org/1999/xlink" width="85" height="85" viewBox="0 0 85 85">
  <defs>
    <clipPath id="clip-path">
      <rect id="Rectángulo_955" data-name="Rectángulo 955" width="85" height="85" transform="translate(1064 1495)" fill="none" stroke="#707070" stroke-width="1"/>
    </clipPath>
  </defs>
  <g id="Enmascarar_grupo_24" data-name="Enmascarar grupo 24" transform="translate(-1064 -1495)" clip-path="url(#clip-path)">
    <g id="comentario" transform="translate(1081.93 1508.843)">
      <g id="Grupo_965" data-name="Grupo 965" transform="translate(0 4.011)">
        <g id="Grupo_964" data-name="Grupo 964" transform="translate(0 0)">
          <path id="Trazado_186" data-name="Trazado 186" d="M49.876,42.905l-2.907-8.461A21.166,21.166,0,0,0,28.314,4.014,21.142,21.142,0,0,0,6.831,24.878a15.406,15.406,0,0,0-4.677,18.93l-2,5.828a2.754,2.754,0,0,0,2.593,3.647,2.772,2.772,0,0,0,.9-.152l5.828-2a15.472,15.472,0,0,0,6.587,1.487h.024A15.384,15.384,0,0,0,28.525,46.29a21.209,21.209,0,0,0,8.737-2.139l8.461,2.907a3.294,3.294,0,0,0,1.071.18,3.272,3.272,0,0,0,3.082-4.334Zm-33.79,6.731h-.019A12.461,12.461,0,0,1,10.278,48.2,1.49,1.49,0,0,0,9.1,48.107L3.122,50.161l2.053-5.976A1.49,1.49,0,0,0,5.083,43,12.423,12.423,0,0,1,7.108,28.6,21.224,21.224,0,0,0,24.8,46.061,12.39,12.39,0,0,1,16.085,49.636Zm30.9-5.464a.27.27,0,0,1-.3.069l-9.058-3.112a1.49,1.49,0,0,0-1.181.092A18.2,18.2,0,0,1,28,43.319h-.028A18.236,18.236,0,0,1,9.81,25.45,18.164,18.164,0,0,1,28.267,6.993a18.169,18.169,0,0,1,15.77,26.642,1.49,1.49,0,0,0-.092,1.181l3.112,9.058A.27.27,0,0,1,46.989,44.172Z" transform="translate(0 -4.011)" fill="#005fab"/>
        </g>
      </g>
      <g id="Grupo_967" data-name="Grupo 967" transform="translate(17.607 17.258)">
        <g id="Grupo_966" data-name="Grupo 966">
          <path id="Trazado_187" data-name="Trazado 187" d="M199.334,139.512h-17.75a1.49,1.49,0,0,0,0,2.98h17.75a1.49,1.49,0,1,0,0-2.98Z" transform="translate(-180.094 -139.512)" fill="#005fab"/>
        </g>
      </g>
      <g id="Grupo_969" data-name="Grupo 969" transform="translate(17.607 23.385)">
        <g id="Grupo_968" data-name="Grupo 968">
          <path id="Trazado_188" data-name="Trazado 188" d="M199.334,202.183h-17.75a1.49,1.49,0,0,0,0,2.979h17.75a1.49,1.49,0,1,0,0-2.979Z" transform="translate(-180.094 -202.183)" fill="#005fab"/>
        </g>
      </g>
      <g id="Grupo_971" data-name="Grupo 971" transform="translate(17.607 29.512)">
        <g id="Grupo_970" data-name="Grupo 970">
          <path id="Trazado_189" data-name="Trazado 189" d="M192.5,264.852H181.583a1.49,1.49,0,0,0,0,2.98H192.5a1.49,1.49,0,0,0,0-2.98Z" transform="translate(-180.093 -264.852)" fill="#005fab"/>
        </g>
      </g>
    </g>
  </g>
</svg>
