<svg xmlns="http://www.w3.org/2000/svg" xmlns:xlink="http://www.w3.org/1999/xlink" width="50" height="50" viewBox="0 0 50 50">
  <defs>
    <clipPath id="clip-path">
      <rect id="Rectángulo_946" data-name="Rectángulo 946" width="50" height="50" transform="translate(929 2350)" fill="none" stroke="#707070" stroke-width="1"/>
    </clipPath>
  </defs>
  <g id="Enmascarar_grupo_18" data-name="Enmascarar grupo 18" transform="translate(-929 -2350)" clip-path="url(#clip-path)">
    <g id="pintar" transform="translate(929 2350)">
      <path id="Trazado_95" data-name="Trazado 95" d="M46.722,32.788H38.781l6.874-3.969a2.457,2.457,0,0,0,.908-3.359l-5.739-9.938a2.458,2.458,0,0,0-1.5-1.145,2.433,2.433,0,0,0-1.868.25L30.585,18.6l3.968-6.872a2.459,2.459,0,0,0-.9-3.368L23.72,2.617a2.458,2.458,0,0,0-3.356.908L16.394,10.4V2.459A2.462,2.462,0,0,0,13.935,0H2.459A2.462,2.462,0,0,0,0,2.459V46.722a2.462,2.462,0,0,0,2.459,2.459H46.722a2.462,2.462,0,0,0,2.459-2.459V35.247A2.462,2.462,0,0,0,46.722,32.788Zm-44.263,0a2.438,2.438,0,0,0-.82.151V24.591H8.2l-4.732,8.2Zm33.043,0H24.293l-3.755-6.5,8.517-4.918L35.61,32.726ZM27.745,20.237l-9.7,5.6-6.5-3.753,4.916-8.515,11.352,6.554Zm-12.99-7L9.718,21.966s-.007.006-.009.011l0,.013-.555.962H1.639V13.115H14.755ZM10.721,23.507l5.681,3.28-10.391,6H5.362Zm7.719,4,.011-.006.668-.386L22.4,32.788H9.289Zm-3.685,6.924h9.836V47.542H14.755Zm11.476,0h9.836V47.542H26.23ZM38.283,16.044a.809.809,0,0,1,.621-.084.832.832,0,0,1,.5.385l5.736,9.933a.816.816,0,0,1-.305,1.12l-7.808,4.508L30.475,20.553Zm-16.5-11.7a.818.818,0,0,1,1.117-.3l9.931,5.736a.831.831,0,0,1,.388.5.811.811,0,0,1-.087.624l-4.506,7.8L17.276,12.152ZM2.459,1.639H13.935a.821.821,0,0,1,.82.82v9.016H1.639V2.459A.821.821,0,0,1,2.459,1.639Zm-.82,45.083V35.247a.821.821,0,0,1,.82-.82H13.115V47.542H2.459A.821.821,0,0,1,1.639,46.722Zm45.9,0a.821.821,0,0,1-.82.82H37.706V34.427h9.016a.821.821,0,0,1,.82.82Zm0,0" fill="#002e66"/>
      <path id="Trazado_96" data-name="Trazado 96" d="M54.478,392.535a3.279,3.279,0,1,0,3.279,3.279A3.279,3.279,0,0,0,54.478,392.535Zm0,4.918a1.639,1.639,0,1,1,1.639-1.639A1.639,1.639,0,0,1,54.478,397.453Zm0,0" transform="translate(-46.281 -354.829)" fill="#002e66"/>
    </g>
  </g>
</svg>
