<svg xmlns="http://www.w3.org/2000/svg" width="60.719" height="60.719" viewBox="0 0 60.719 60.719">
  <g id="referencia" transform="translate(-16 -16)">
    <path id="Trazado_90" data-name="Trazado 90" d="M75.707,283.227H73.683v-7.084a1.012,1.012,0,0,0-1.012-1.012H67.4a5.441,5.441,0,0,0,1.225-3.443,6.85,6.85,0,0,0-.975-3.523l-2.2-3.674a1.012,1.012,0,0,0-1.86.322,12.478,12.478,0,0,1-4.755,7.545l-3.7,2.773H51.246a7.861,7.861,0,0,0-4.886,1.688,7.861,7.861,0,0,0-4.886-1.688H20.048a1.012,1.012,0,0,0-1.012,1.012v7.084H17.012A1.012,1.012,0,0,0,16,284.239v4.048a1.012,1.012,0,0,0,1.012,1.012H38.857l1.6,1.6a8.341,8.341,0,0,0,11.8,0l1.6-1.6H75.707a1.012,1.012,0,0,0,1.012-1.012v-4.048a1.012,1.012,0,0,0-1.012-1.012Zm-15.665-9.25a14.5,14.5,0,0,0,4.86-6.454l1.01,1.683a4.824,4.824,0,0,1,.687,2.482,3.447,3.447,0,0,1-3.444,3.443H58.5Zm11.617,3.178v2.024H64.575V281.2h7.084v2.024H52.432a1.012,1.012,0,0,0-.716.3L49.1,286.14a3.851,3.851,0,0,1-1.728,1v-2.654a6.274,6.274,0,0,1,5.538-3.284h9.642v-2.024H52.909a8.294,8.294,0,0,0-5.538,2.1v-2.668a5.854,5.854,0,0,1,3.874-1.453Zm-50.6,0H41.473a5.855,5.855,0,0,1,3.874,1.451v2.671a8.294,8.294,0,0,0-5.538-2.1H33.2V281.2H39.81a6.274,6.274,0,0,1,5.538,3.284v2.654a3.85,3.85,0,0,1-1.728-1L41,283.524a1.012,1.012,0,0,0-.716-.3H21.06ZM74.7,287.275H53.444a1.012,1.012,0,0,0-.716.3l-1.9,1.9a6.317,6.317,0,0,1-8.934,0l-1.9-1.9a1.012,1.012,0,0,0-.716-.3H18.024v-2.024H39.869l2.32,2.32a5.9,5.9,0,0,0,8.341,0l2.32-2.32H74.7Z" transform="translate(0 -216.628)" fill="#565f81"/>
    <rect id="Rectángulo_205" data-name="Rectángulo 205" width="3" height="2" transform="translate(29 63)" fill="#565f81"/>
    <path id="Trazado_91" data-name="Trazado 91" d="M43.036,113.3H51.77l6.8,5.828a1.012,1.012,0,0,0,1.671-.768V113.3h3.036a3.039,3.039,0,0,0,3.036-3.036V91.036A3.039,3.039,0,0,0,63.276,88H43.036A3.039,3.039,0,0,0,40,91.036v19.228A3.039,3.039,0,0,0,43.036,113.3ZM42.024,91.036a1.013,1.013,0,0,1,1.012-1.012h20.24a1.013,1.013,0,0,1,1.012,1.012v19.228a1.013,1.013,0,0,1-1.012,1.012H56.192V113.3h2.024v2.86l-5.413-4.64a1.012,1.012,0,0,0-.659-.244H43.036a1.013,1.013,0,0,1-1.012-1.012Z" transform="translate(-20.964 -62.892)" fill="#565f81"/>
    <path id="Trazado_92" data-name="Trazado 92" d="M264,19.036V37.252a3.039,3.039,0,0,0,3.036,3.036h3.036v5.06a1.012,1.012,0,0,0,1.671.768l6.8-5.828h8.734a3.039,3.039,0,0,0,3.036-3.036V19.036A3.039,3.039,0,0,0,287.276,16h-20.24A3.039,3.039,0,0,0,264,19.036Zm24.288,0V37.252a1.013,1.013,0,0,1-1.012,1.012h-9.108a1.012,1.012,0,0,0-.659.244l-5.413,4.64v-2.86h2.024V38.264h-7.084a1.013,1.013,0,0,1-1.012-1.012V19.036a1.013,1.013,0,0,1,1.012-1.012h20.24A1.013,1.013,0,0,1,288.288,19.036Z" transform="translate(-216.628)" fill="#565f81"/>
    <path id="Trazado_93" data-name="Trazado 93" d="M337.012,78.692V83.1a1.009,1.009,0,0,0,.3.716h0l1.012,1.012a1.012,1.012,0,0,0,.716.3h2.024a1.012,1.012,0,0,0,.716-.3l1.012-1.012h0a1.009,1.009,0,0,0,.3-.716V78.692a4.048,4.048,0,1,0-6.072,0Zm2.024,3.4V79.938a4.062,4.062,0,0,0,2.024,0V82.09Zm1.012-8.1a2.024,2.024,0,1,1-2.024,2.024A2.024,2.024,0,0,1,340.048,73.994Z" transform="translate(-279.52 -48.887)" fill="#565f81"/>
    <rect id="Rectángulo_206" data-name="Rectángulo 206" width="3" height="2" transform="translate(59 20)" fill="#565f81"/>
    <rect id="Rectángulo_207" data-name="Rectángulo 207" width="2.024" height="2.024" transform="matrix(0.707, -0.707, 0.707, 0.707, 54.803, 22.838)" fill="#565f81"/>
    <rect id="Rectángulo_208" data-name="Rectángulo 208" width="2" height="2" transform="translate(54 26)" fill="#565f81"/>
    <rect id="Rectángulo_209" data-name="Rectángulo 209" width="2" height="2" transform="translate(66 26)" fill="#565f81"/>
    <rect id="Rectángulo_210" data-name="Rectángulo 210" width="2.024" height="2.024" transform="translate(63.39 22.838) rotate(-45.002)" fill="#565f81"/>
    <path id="Trazado_94" data-name="Trazado 94" d="M74.794,132.717l-1.542,1.8a1.012,1.012,0,0,0,.768,1.671H89.2a1.012,1.012,0,0,0,1.012-1.012v-10.12a1.012,1.012,0,0,0-1.012-1.012H85.482a7.084,7.084,0,1,0-10.688,8.675Zm1.427,1.445,3.872-4.517,3.872,4.517Zm11.968,0H86.631l-5.525-6.446v-1.65h7.084Zm-9.108-12.144a5.071,5.071,0,0,1,4.048,2.024H80.093a1.012,1.012,0,0,0-1.012,1.012v2.662l-2.965,3.459a5.058,5.058,0,0,1,2.965-9.157Z" transform="translate(-48.913 -90.838)" fill="#565f81"/>
  </g>
</svg>
