<svg xmlns="http://www.w3.org/2000/svg" width="30" height="30" viewBox="0 0 30 30">
  <g id="Grupo_26" data-name="Grupo 26" transform="translate(-1217 -11)">
    <circle id="Elipse_8" data-name="Elipse 8" cx="11" cy="11" r="11" transform="translate(1221 15)" fill="#fff"/>
    <path id="Exclusión_1" data-name="Exclusión 1" d="M15,30A15,15,0,0,1,9.161,1.179,15,15,0,0,1,20.839,28.821,14.906,14.906,0,0,1,15,30Zm-4.76-17.122V15.7h2.481V22.53h3.054V15.7h2.276l.434-2.825h-2.71V11.044a1.408,1.408,0,0,1,1.592-1.526H18.6v-2.4a14.954,14.954,0,0,0-2.187-.191,3.444,3.444,0,0,0-3.691,3.8v2.153Z" transform="translate(1217 11)" fill="#3b5998"/>
  </g>
</svg>
