<svg xmlns="http://www.w3.org/2000/svg" width="52.677" height="58.632" viewBox="0 0 52.677 58.632">
  <g id="apoyo" transform="translate(-26)">
    <g id="Grupo_554" data-name="Grupo 554" transform="translate(63.79 45.348)">
      <g id="Grupo_553" data-name="Grupo 553">
        <path id="Trazado_158" data-name="Trazado 158" d="M357.145,396a1.145,1.145,0,1,0,1.145,1.145A1.146,1.146,0,0,0,357.145,396Z" transform="translate(-356 -396)" fill="#565f81"/>
      </g>
    </g>
    <g id="Grupo_556" data-name="Grupo 556" transform="translate(26)">
      <g id="Grupo_555" data-name="Grupo 555">
        <path id="Trazado_159" data-name="Trazado 159" d="M67.755,41.645l-5.443-1.814-1.954-3.908a12.542,12.542,0,0,0,3.395-6.635L64,27.827H66.08a3.439,3.439,0,0,0,3.435-3.435V17.177a17.177,17.177,0,1,0-34.355,0v7.214a3.441,3.441,0,0,0,2.29,3.238v1.342a3.439,3.439,0,0,0,3.435,3.435h1.006a12.423,12.423,0,0,0,1.921,2.974c.162.186.331.367.5.543l-1.953,3.906-5.443,1.814C30.593,43.755,26,50.418,26,57.487a1.145,1.145,0,0,0,1.145,1.145H77.532a1.145,1.145,0,0,0,1.145-1.145C78.677,50.418,74.084,43.755,67.755,41.645Zm-.529-17.253a1.146,1.146,0,0,1-1.145,1.145H64.333c.291-2.255.485-4.654.563-7.018,0-.067,0-.131.006-.2h2.324ZM38.6,25.537a1.146,1.146,0,0,1-1.145-1.145V18.322h2.324q.006.179.012.36v.012h0c.08,2.3.272,4.636.556,6.841H38.6Zm2.29,4.581a1.146,1.146,0,0,1-1.145-1.145V27.827h.939l.244,1.461c.046.278.1.554.17.829ZM39.744,16.032H37.5a14.888,14.888,0,0,1,29.687,0H64.933A11.6,11.6,0,0,0,53.364,4.581h-2.05A11.6,11.6,0,0,0,39.744,16.032Zm11.57-9.161h2.05a9.312,9.312,0,0,1,9.281,9.323c0,.36,0,.674-.009.96,0,0,0,.007,0,.011l-1.432-.2a18.4,18.4,0,0,1-10.346-5.173,1.145,1.145,0,0,0-.81-.335,10.36,10.36,0,0,0-7.965,3.768A9.309,9.309,0,0,1,51.314,6.871ZM43.468,30.118A65.456,65.456,0,0,1,42.094,19l1.541-2.055a8.061,8.061,0,0,1,5.96-3.194A20.713,20.713,0,0,0,60.88,19.227l1.686.241c-.113,2.392-.343,4.792-.673,7v0c-.1.71-.188,1.166-.4,2.442a9.727,9.727,0,0,1-6.9,7.823,9.01,9.01,0,0,1-10.115-4.326H46.81a3.441,3.441,0,0,0,3.238,2.29h2.29a3.435,3.435,0,1,0,0-6.871h-2.29a3.437,3.437,0,0,0-3.24,2.29Zm6.484,8.934a11.486,11.486,0,0,0,4.259.1l-2.023,2.14Zm.661,3.9-3.632,3.841a43.632,43.632,0,0,1-2.564-5.945l1.364-2.728Zm8.088-5.22,1.558,3.116A43.62,43.62,0,0,1,57.7,46.8l-3.888-3.888Zm-9.8-6.469a1.145,1.145,0,0,1,1.145-1.145h2.29a1.145,1.145,0,1,1,0,2.29h-2.29A1.146,1.146,0,0,1,48.9,31.263ZM28.336,56.342c.454-5.673,4.229-10.829,9.31-12.524l4.82-1.606a45.906,45.906,0,0,0,3.259,7.07l.006.012h0a45.917,45.917,0,0,0,3.135,4.787l1.409,2.262Zm24-1.021-1.553-2.493q-.026-.042-.056-.081a43.664,43.664,0,0,1-2.58-3.855l4.084-4.319,4.3,4.3a43.616,43.616,0,0,1-2.589,3.87C53.891,52.821,53.971,52.7,52.339,55.321ZM54.4,56.342,55.81,54.08a45.9,45.9,0,0,0,3.157-4.825l.017-.03,0,0a45.869,45.869,0,0,0,3.225-7.01l4.82,1.606c5.081,1.694,8.857,6.851,9.31,12.524H54.4Z" transform="translate(-26)" fill="#565f81"/>
      </g>
    </g>
    <g id="Grupo_558" data-name="Grupo 558" transform="translate(67.814 47.534)">
      <g id="Grupo_557" data-name="Grupo 557">
        <path id="Trazado_160" data-name="Trazado 160" d="M396.224,419.262a11.449,11.449,0,0,0-3.242-3.936,1.145,1.145,0,0,0-1.4,1.815,9.145,9.145,0,0,1,2.589,3.144,1.145,1.145,0,0,0,2.049-1.023Z" transform="translate(-391.139 -415.088)" fill="#565f81"/>
      </g>
    </g>
  </g>
</svg>
