<svg xmlns="http://www.w3.org/2000/svg" width="55.035" height="54.858" viewBox="0 0 55.035 54.858">
  <g id="bosquejo" transform="translate(0 -0.82)">
    <g id="Grupo_308" data-name="Grupo 308" transform="translate(38.752 39.509)">
      <g id="Grupo_307" data-name="Grupo 307">
        <path id="Trazado_77" data-name="Trazado 77" d="M370.462,360.811a.808.808,0,0,0-.88.175l-8.828,8.828a.808.808,0,0,0,.571,1.379h8.828a.808.808,0,0,0,.808-.808v-8.828A.808.808,0,0,0,370.462,360.811Zm-7.187,8.766,6.07-6.07v6.07Z" transform="translate(-360.517 -360.749)" fill="#565f81"/>
      </g>
    </g>
    <g id="Grupo_310" data-name="Grupo 310" transform="translate(0 0.82)">
      <g id="Grupo_309" data-name="Grupo 309" transform="translate(0 0)">
        <path id="Trazado_78" data-name="Trazado 78" d="M54.536,26.623a.808.808,0,0,0-.88.175l-2.419,2.419V12.768a.808.808,0,0,0-.808-.808H44.222l2.253-2.253h0l2.171-2.171a2.463,2.463,0,0,0,0-3.483l-2.51-2.51a2.463,2.463,0,0,0-3.483,0L40.481,3.713,37.857,6.338,32.235,11.96H7.161V3.968a.808.808,0,0,0-.808-.808A6.361,6.361,0,0,0,0,9.514V43.823A.81.81,0,0,0,.019,44a6.118,6.118,0,0,0,6.1,5.654H30.8L26.154,54.3a.808.808,0,0,0,.571,1.379h27.5a.808.808,0,0,0,.808-.808v-27.5A.808.808,0,0,0,54.536,26.623ZM43.8,2.684a.848.848,0,0,1,1.2,0l2.51,2.51a.848.848,0,0,1,0,1.2l-1.6,1.6L42.2,4.284ZM41.053,5.427l3.709,3.709-1.482,1.482L39.571,6.909ZM53.419,36.445h-1.49a.808.808,0,0,0,0,1.616h1.49V40.5h-1.49a.808.808,0,0,0,0,1.616h1.49v2.434h-1.49a.808.808,0,0,0,0,1.616h1.49v2.434h-1.49a.808.808,0,0,0,0,1.616h1.49v3.853H28.675L36.835,45.9a.808.808,0,0,0-1.143-1.142l-3.274,3.274H6.119a4.478,4.478,0,0,1-4.5-4.358q.007-.23.036-.456v0q.014-.107.032-.213l0-.024q.017-.095.038-.188l.012-.052q.018-.079.04-.158c.008-.028.016-.056.024-.085s.024-.082.037-.123.027-.081.041-.121.019-.056.03-.084c.02-.053.041-.105.062-.157l.018-.045c.028-.064.056-.128.087-.191l0-.008A4.755,4.755,0,0,1,5.39,39.184l.012,0c.067-.014.134-.025.2-.036l.034-.006c.061-.009.123-.017.185-.024l.052-.006c.06-.006.12-.01.181-.014l.057,0q.119-.006.239-.006a.808.808,0,0,0,.808-.808V32.421a.808.808,0,0,0-1.616,0v5.1a6.309,6.309,0,0,0-3.629,1.756c-.105.1-.2.209-.3.318V9.514a4.746,4.746,0,0,1,3.93-4.669V29.19h0a.808.808,0,1,0,1.616,0h0V13.575H30.619l-4.466,4.466A.808.808,0,1,0,27.3,19.183l5.845-5.845h0l5.287-5.287,3.709,3.709L41.7,12.2h0L25.413,28.484,21.7,24.775l3.21-3.21a.808.808,0,0,0-1.142-1.142L19.99,24.2a.812.812,0,0,0-.057.064l-.017.023c-.011.015-.023.03-.033.046l-.017.028c-.009.015-.018.03-.025.046l-.015.031c-.007.016-.014.032-.02.048l-.007.017-1.574,4.458L17.153,32a.817.817,0,0,0-.032.123H14.435a.808.808,0,0,0,0,1.616h22.37a.808.808,0,1,0,0-1.616H20.755l4.926-1.739.012-.005.057-.024.022-.01c.019-.01.038-.02.057-.032l.018-.011c.019-.012.038-.026.057-.041l.014-.01a.811.811,0,0,0,.065-.058L42.607,13.575h7.014V30.832L38.066,42.387a.808.808,0,0,0,0,1.142.825.825,0,0,0,.061.055.807.807,0,0,0,1.081-.055h0L53.419,29.319ZM23.935,29.291l-2.314.817L20.08,28.567l.817-2.314Z" transform="translate(0 -0.82)" fill="#565f81"/>
      </g>
    </g>
  </g>
</svg>
