<svg xmlns="http://www.w3.org/2000/svg" xmlns:xlink="http://www.w3.org/1999/xlink" width="100" height="100" viewBox="0 0 100 100">
  <defs>
    <clipPath id="clip-path">
      <rect id="Rectángulo_943" data-name="Rectángulo 943" width="100" height="100" transform="translate(1018 3022)" fill="none" stroke="#707070" stroke-width="1"/>
    </clipPath>
  </defs>
  <g id="Enmascarar_grupo_17" data-name="Enmascarar grupo 17" transform="translate(-1018 -3022)" clip-path="url(#clip-path)">
    <g id="colaboracion" transform="translate(1019 3018.513)">
      <path id="Trazado_175" data-name="Trazado 175" d="M13.583,41.984c.5-1.16,1.058-2.283,1.657-3.362a38.087,38.087,0,0,1,2.5-3.939,1.426,1.426,0,0,1,2.31,1.673A35.545,35.545,0,0,0,17.727,40c-.361.647-.7,1.311-1.02,1.98h5.2a1.424,1.424,0,0,1,1.43,1.425v12.5a9.03,9.03,0,0,1-.8,3.718A12.423,12.423,0,0,1,26.3,61.972,6.326,6.326,0,0,1,28.5,66.585v6.966a1.433,1.433,0,0,1-1.43,1.43H18.207c.469.8.971,1.592,1.5,2.353a34.651,34.651,0,0,0,3.232,3.988,1.426,1.426,0,0,1-2.077,1.953,38.768,38.768,0,0,1-3.5-4.312,38.239,38.239,0,0,1-2.423-3.982H1.43A1.433,1.433,0,0,1,0,73.551V66.585A6.329,6.329,0,0,1,2.175,62a12.483,12.483,0,0,1,3.788-2.374,9.03,9.03,0,0,1-.8-3.718V47.7a5.721,5.721,0,0,1,5.715-5.715h2.7ZM89.449,53.753,81.916,51.2l-4.927,2.417v2.288a6.23,6.23,0,0,0,12.46,0Zm-12.46-3.3,4.123-2.018a1.411,1.411,0,0,1,1.165-.119l7.172,2.428V47.7a2.875,2.875,0,0,0-2.86-2.86H79.843a2.865,2.865,0,0,0-2.855,2.86v2.752ZM8.019,48.74H20.484v-3.9H10.879a2.875,2.875,0,0,0-2.86,2.86V48.74Zm12.465,2.855H8.019v4.312a6.233,6.233,0,0,0,12.466,0V51.595ZM54.966,79.833a9.927,9.927,0,0,1-8.121-2.169A7.475,7.475,0,0,1,42.5,78.7v3.459a6.233,6.233,0,0,0,12.465,0ZM42.5,75.84a4.6,4.6,0,0,0,3.54-1.074l.005.005.032-.032a1.426,1.426,0,0,1,2.007.146,7.089,7.089,0,0,0,6.88,2.077V73.951a2.874,2.874,0,0,0-2.86-2.86H45.361a2.874,2.874,0,0,0-2.86,2.86V75.84ZM20.932,62.047a9.053,9.053,0,0,1-13.361.005A10.134,10.134,0,0,0,4.139,64.06a3.581,3.581,0,0,0-1.284,2.525v5.542H25.649V66.585a3.582,3.582,0,0,0-1.306-2.542,10.207,10.207,0,0,0-3.411-2ZM92.3,55.906a9.03,9.03,0,0,1-.8,3.718,12.541,12.541,0,0,1,3.783,2.369,6.318,6.318,0,0,1,2.18,4.592v6.966a1.428,1.428,0,0,1-1.425,1.43H82.477a40.415,40.415,0,0,1-2.461,3.907,41.173,41.173,0,0,1-3.518,4.29,1.426,1.426,0,0,1-2.077-1.953A37.71,37.71,0,0,0,77.7,77.238q.785-1.1,1.489-2.256H70.394a1.432,1.432,0,0,1-1.43-1.43V66.586a6.337,6.337,0,0,1,2.2-4.608,12.428,12.428,0,0,1,3.767-2.353,8.947,8.947,0,0,1-.8-3.718V47.7a5.721,5.721,0,0,1,5.714-5.715h.934c-.308-.658-.642-1.306-1-1.943a35.241,35.241,0,0,0-2.369-3.7,1.425,1.425,0,0,1,2.3-1.684,38.485,38.485,0,0,1,2.558,4A36.544,36.544,0,0,1,83.9,41.984h2.687A5.711,5.711,0,0,1,92.3,47.7v8.207ZM89.9,62.053a9.058,9.058,0,0,1-13.361,0,10.147,10.147,0,0,0-3.416,2,3.585,3.585,0,0,0-1.3,2.536v5.542H94.613V66.585a3.568,3.568,0,0,0-1.29-2.525A10.052,10.052,0,0,0,89.9,62.053ZM57.821,82.159a9.012,9.012,0,0,1-.8,3.718,12.557,12.557,0,0,1,3.783,2.374,7.763,7.763,0,0,1,1.328,1.63,34.734,34.734,0,0,0,3.34-1.635A36.419,36.419,0,0,0,69.8,85.4a1.422,1.422,0,1,1,1.727,2.261,39.157,39.157,0,0,1-4.673,3.07,36.569,36.569,0,0,1-3.875,1.878c.005.075.005.156.005.232V99.81a1.423,1.423,0,0,1-1.425,1.425H35.912a1.428,1.428,0,0,1-1.43-1.425V92.843c0-.076.005-.151.005-.227a39.688,39.688,0,0,1-3.961-1.878,38.273,38.273,0,0,1-4.662-2.995,1.42,1.42,0,1,1,1.705-2.272,36.26,36.26,0,0,0,4.317,2.768,35.4,35.4,0,0,0,3.443,1.646,7.963,7.963,0,0,1,1.317-1.619,12.391,12.391,0,0,1,3.8-2.385,8.95,8.95,0,0,1-.8-3.723V73.951a5.73,5.73,0,0,1,5.715-5.714h6.745a5.73,5.73,0,0,1,5.715,5.714v8.207Zm-2.407,6.146a9.058,9.058,0,0,1-13.361,0,10.124,10.124,0,0,0-3.443,2.024,3.564,3.564,0,0,0-1.273,2.515V98.38H60.131V92.844a3.57,3.57,0,0,0-1.284-2.525,10.134,10.134,0,0,0-3.432-2.013Zm-31.3-56.639a1.424,1.424,0,0,1-1.975-2.051A37.139,37.139,0,0,1,28.967,24.4a19.825,19.825,0,0,1,39.528-.1c1.117.685,2.2,1.43,3.232,2.218A38.682,38.682,0,0,1,75.305,29.6a1.422,1.422,0,1,1-1.98,2.04A37.151,37.151,0,0,0,70,28.785c-.5-.383-1-.745-1.511-1.1-.442,5.423-2.865,9.109-5.191,12.638-2.1,3.2-4.123,6.265-4.155,10.382l.005,6.6a6.918,6.918,0,0,1-6.9,6.9H45.221a6.909,6.909,0,0,1-6.9-6.9l.005-6.6c-.038-4.117-2.05-7.183-4.155-10.382-2.32-3.518-4.733-7.182-5.186-12.573-.534.356-1.058.729-1.57,1.112a34.05,34.05,0,0,0-3.3,2.8ZM41.179,55.146h15.11V52.253H41.179ZM56.229,58H41.238a4.058,4.058,0,0,0,3.982,3.351h7.031A4.058,4.058,0,0,0,56.229,58ZM47.358,36.8c-.232-.853-.637-2.018-1.1-3.351-1.29-3.729-3.006-8.693-3.006-12.444,0-3.6,1.376-6.168,5.477-6.168S54.216,17.4,54.216,21c0,3.75-1.716,8.715-3.006,12.444-.464,1.338-.869,2.515-1.106,3.367a1.421,1.421,0,0,1-2.747-.016ZM46.111,21c0,3.119,1.441,7.463,2.622,10.9,1.187-3.437,2.628-7.781,2.628-10.9,0-1.932-.664-3.313-2.628-3.313S46.111,19.072,46.111,21Zm1.2,20.835a1.427,1.427,0,0,1,2.855,0v1.484a1.427,1.427,0,0,1-2.855,0Zm-6.2,7.56h15.25c.378-4.268,2.429-7.387,4.565-10.631C63.26,35.217,65.7,31.5,65.7,25.909a16.968,16.968,0,1,0-33.937,0c0,5.59,2.444,9.308,4.781,12.859,2.131,3.243,4.187,6.362,4.56,10.631Z" transform="translate(0)" fill="#005fab"/>
    </g>
  </g>
</svg>
