<svg xmlns="http://www.w3.org/2000/svg" width="55" height="60" viewBox="0 0 55 60">
  <g id="Giftbox-Hands-Purchase-Buy-Commerce" transform="translate(-5 -2)">
    <path id="Trazado_60" data-name="Trazado 60" d="M46.83,8.45l-4-6A1,1,0,0,0,42,2H22a1,1,0,0,0-.83.45l-4,6A.967.967,0,0,0,17,9V29a3.009,3.009,0,0,0,3,3H44a3.009,3.009,0,0,0,3-3V9a.967.967,0,0,0-.17-.55ZM22.54,4H41.46l2.67,4H19.87ZM34,10v7.13l-1.45-.96a.963.963,0,0,0-1.1,0L30,17.13V10ZM19,10h9v4H19ZM45,29a1,1,0,0,1-1,1H20a1,1,0,0,1-1-1V16h9v3a.984.984,0,0,0,.53.88.963.963,0,0,0,1.02-.05L32,18.2l2.45,1.63A1,1,0,0,0,36,19V16h9Zm0-15H36V10h9Z" fill="#565f81"/>
    <path id="Trazado_61" data-name="Trazado 61" d="M32.707,36.293a1,1,0,0,0-1.414,0l-6,6A1,1,0,0,0,26,44h2v7h2V43a1,1,0,0,0-1-1h-.586L32,38.414,35.586,42H35a1,1,0,0,0-1,1V55h2V44h2a1,1,0,0,0,.707-1.707Z" fill="#565f81"/>
    <path id="Trazado_62" data-name="Trazado 62" d="M51,4h2v6H51Z" fill="#565f81"/>
    <path id="Trazado_63" data-name="Trazado 63" d="M51,12h2v2H51Z" fill="#565f81"/>
    <path id="Trazado_64" data-name="Trazado 64" d="M57,7h2v4H57Z" fill="#565f81"/>
    <path id="Trazado_65" data-name="Trazado 65" d="M57,13h2v2H57Z" fill="#565f81"/>
    <path id="Trazado_66" data-name="Trazado 66" d="M11,4h2v6H11Z" fill="#565f81"/>
    <path id="Trazado_67" data-name="Trazado 67" d="M11,12h2v2H11Z" fill="#565f81"/>
    <path id="Trazado_68" data-name="Trazado 68" d="M5,7H7v4H5Z" fill="#565f81"/>
    <path id="Trazado_69" data-name="Trazado 69" d="M5,13H7v2H5Z" fill="#565f81"/>
    <path id="Trazado_70" data-name="Trazado 70" d="M44,56h2v2H44Z" fill="#565f81"/>
    <path id="Trazado_71" data-name="Trazado 71" d="M56,18a4,4,0,0,0-4,4v8.44a3.354,3.354,0,0,0-.44.07,4,4,0,0,0-2.43,1.87l-7,12.12A1.063,1.063,0,0,0,42,45v7H41a1,1,0,0,0-1,1v8a1,1,0,0,0,1,1H57a1,1,0,0,0,1-1V53a1,1,0,0,0-1-1H56v-.65l3.78-4.73A.977.977,0,0,0,60,46V22a4,4,0,0,0-4-4Zm0,42H42V54H56Zm2-14.35-3.78,4.73A.977.977,0,0,0,54,51v1H44V45.27l6.87-11.89a2,2,0,1,1,3.46,2l-5,8.66,1.73,1,5-8.66a4.008,4.008,0,0,0-1.46-5.47,4.592,4.592,0,0,0-.6-.27V22a2,2,0,0,1,4,0Z" fill="#565f81"/>
    <path id="Trazado_72" data-name="Trazado 72" d="M24,52H23V45a1.063,1.063,0,0,0-.13-.5l-7-12.12A3.994,3.994,0,0,0,13,30.44V22a4,4,0,1,0-8,0V46a.977.977,0,0,0,.22.62L9,51.35V52H8a1,1,0,0,0-1,1v8a1,1,0,0,0,1,1H24a1,1,0,0,0,1-1V53A1,1,0,0,0,24,52ZM7,45.65V22a2,2,0,0,1,4,0v8.64a5.279,5.279,0,0,0-.6.27,4,4,0,0,0-1.46,5.47l5,8.66,1.73-1-5-8.66a2,2,0,1,1,3.46-2L21,45.27V52H11V51a.977.977,0,0,0-.22-.62ZM23,60H9V54H23Z" fill="#565f81"/>
    <path id="Trazado_73" data-name="Trazado 73" d="M19,56h2v2H19Z" fill="#565f81"/>
    <path id="Trazado_74" data-name="Trazado 74" d="M34,57h2v2H34Z" fill="#565f81"/>
    <path id="Trazado_75" data-name="Trazado 75" d="M28,53h2v2H28Z" fill="#565f81"/>
  </g>
</svg>
