<svg xmlns="http://www.w3.org/2000/svg" xmlns:xlink="http://www.w3.org/1999/xlink" width="50" height="50" viewBox="0 0 50 50">
  <defs>
    <clipPath id="clip-path">
      <rect id="Rectángulo_965" data-name="Rectángulo 965" width="50" height="50" transform="translate(725 2619.5)" fill="none" stroke="#707070" stroke-width="1"/>
    </clipPath>
  </defs>
  <g id="Enmascarar_grupo_30" data-name="Enmascarar grupo 30" transform="translate(-725 -2619.5)" clip-path="url(#clip-path)">
    <g id="calidad" transform="translate(725.957 2581.033)">
      <path id="Trazado_119" data-name="Trazado 119" d="M47.915,54.436,43.6,44.531a1.57,1.57,0,0,0-1.44-.944H5.923a1.57,1.57,0,0,0-1.44.944L.171,54.437A2.1,2.1,0,0,0,.5,56.621L22.839,82.84a1.568,1.568,0,0,0,1.2.552h0a1.568,1.568,0,0,0,1.195-.551l7.512-8.809a.712.712,0,1,0-1.084-.925l-5.917,6.938,9.328-23.993H46.2l-12.46,14.61a.712.712,0,0,0,1.084.925L47.589,56.622a2.1,2.1,0,0,0,.325-2.185Zm-1.471.19H35.981l6.548-8.992Zm-30.29,9.291L22.5,80.246,1.883,56.052H13.095l1.957,5.033a.712.712,0,0,0,1.328-.516l-1.756-4.517H33.54L24.082,80.379,17.481,63.4a.712.712,0,0,0-1.328.516ZM26.778,45.012l1.63,2.424a.712.712,0,1,0,1.182-.8l-1.1-1.629H41.22L34.6,54.1l-3.291-4.9a.713.713,0,1,0-1.183.8l3.113,4.63H14.92l6.465-9.615ZM13.559,54.1,6.944,45.012H19.668ZM5.586,45.568l6.6,9.059H1.643Z" transform="translate(0 0)" fill="#002e66"/>
      <path id="Trazado_120" data-name="Trazado 120" d="M61.133,384.178a1.2,1.2,0,0,0-1.153-.075l-3.686,1.72a1.206,1.206,0,0,0-.619,1.507c.7,1.879,2.3,2.9,4.749,3.022l.061,0a1.2,1.2,0,0,0,1.2-1.2v-3.961a1.2,1.2,0,0,0-.556-1.013Zm-.869,4.735c-2.262-.187-2.932-1.307-3.178-1.887l3.178-1.483Z" transform="translate(-50.318 -308.064)" fill="#002e66"/>
      <path id="Trazado_121" data-name="Trazado 121" d="M37.41,303.419a1.2,1.2,0,0,0-.322-1.11l-2.873-2.879a1.206,1.206,0,0,0-1.627-.068c-1.527,1.3-1.939,3.149-1.223,5.495a1.2,1.2,0,0,0,1.559.78l3.724-1.35A1.2,1.2,0,0,0,37.41,303.419Zm-4.748.8c-.595-2.19.23-3.2.692-3.63l2.477,2.482Z" transform="translate(-28.076 -231.219)" fill="#002e66"/>
      <path id="Trazado_122" data-name="Trazado 122" d="M392.679,385.823l-3.686-1.72a1.2,1.2,0,0,0-1.709,1.089v3.961a1.2,1.2,0,0,0,1.2,1.2l.061,0c2.449-.127,4.047-1.144,4.749-3.022A1.206,1.206,0,0,0,392.679,385.823Zm-3.97,3.09v-3.37l3.177,1.483C391.641,387.606,390.971,388.726,388.709,388.914Z" transform="translate(-350.491 -308.064)" fill="#002e66"/>
      <path id="Trazado_123" data-name="Trazado 123" d="M413.27,299.361a1.206,1.206,0,0,0-1.627.068l-2.873,2.879a1.2,1.2,0,0,0,.441,1.978l3.724,1.35a1.2,1.2,0,0,0,1.559-.78C415.208,302.51,414.8,300.661,413.27,299.361Zm-.075,4.854-3.169-1.148,2.477-2.482C412.965,301.013,413.79,302.024,413.2,304.215Z" transform="translate(-369.618 -231.219)" fill="#002e66"/>
    </g>
  </g>
</svg>
