<svg xmlns="http://www.w3.org/2000/svg" width="16.998" height="14.982" viewBox="0 0 16.998 14.982">
  <path id="Trazado_109" data-name="Trazado 109" d="M7.986-32.5C3.573-32.5,0-29.594,0-26.008a5.737,5.737,0,0,0,1.651,3.942A7.92,7.92,0,0,1,.2-19.782a.749.749,0,0,0-.144.811.751.751,0,0,0,.69.453,7.573,7.573,0,0,0,4.341-1.445,9.639,9.639,0,0,0,2.9.446c4.413,0,7.99-2.906,7.99-6.491S12.4-32.5,7.986-32.5Zm0,11.485a8.11,8.11,0,0,1-2.447-.378l-.708-.225-.609.431a6.712,6.712,0,0,1-1.795.905,7.828,7.828,0,0,0,.621-1.255l.331-.877-.643-.68a4.293,4.293,0,0,1-1.242-2.915C1.495-28.761,4.407-31,7.986-31s6.491,2.241,6.491,4.993S11.566-21.015,7.986-21.015Z" transform="translate(0.522 33)" fill="#fff" stroke="rgba(0,0,0,0)" stroke-width="1"/>
</svg>
