<svg xmlns="http://www.w3.org/2000/svg" xmlns:xlink="http://www.w3.org/1999/xlink" width="50" height="50" viewBox="0 0 50 50">
  <defs>
    <clipPath id="clip-path">
      <rect id="Rectángulo_948" data-name="Rectángulo 948" width="50" height="50" transform="translate(933 2303)" fill="none" stroke="#707070" stroke-width="1"/>
    </clipPath>
  </defs>
  <g id="Enmascarar_grupo_29" data-name="Enmascarar grupo 29" transform="translate(-933 -2303)" clip-path="url(#clip-path)">
    <g id="variedad" transform="translate(933 2293.109)">
      <path id="Trazado_76" data-name="Trazado 76" d="M49.926,25.971a27.721,27.721,0,0,0-12.312-14.94,1.352,1.352,0,0,0-1.859.514L34.5,13.806A23.754,23.754,0,1,0,23.753,58.745a23.517,23.517,0,0,0,14.609-5.024.727.727,0,1,0-.9-1.146,22.287,22.287,0,0,1-5.253,3.061l-2.486-6.82a15.157,15.157,0,0,0,7.257-6.636l6.5,3.215a22.367,22.367,0,0,1-3.778,5.174.727.727,0,1,0,1.041,1.016A23.771,23.771,0,0,0,46.6,28.468L49.05,27.7a1.352,1.352,0,0,0,.875-1.73ZM33.794,15.079l-3.516,6.339a15.086,15.086,0,0,0-12.469-.268L14.7,14.6a22.381,22.381,0,0,1,19.1.476Zm3.564,19.913a13.533,13.533,0,0,1-1.047,5.232L32.017,38.1a8.833,8.833,0,0,0,.318-5.183L36.9,31.492A13.625,13.625,0,0,1,37.359,34.993Zm-13.606,8.83a8.8,8.8,0,0,0,2.477-.354l1.638,4.494a13.615,13.615,0,0,1-8.751-.177l1.92-4.391A8.822,8.822,0,0,0,23.752,43.822Zm0-1.454a7.34,7.34,0,0,1-4.08-1.232.727.727,0,0,0-.806,1.211,8.842,8.842,0,0,0,.828.488l-1.916,4.38a13.7,13.7,0,0,1-6.208-6.167L15.989,39.2a8.833,8.833,0,0,0,.46.757.727.727,0,1,0,1.2-.818,7.375,7.375,0,1,1,6.1,3.232ZM10.146,34.993a13.611,13.611,0,0,1,.607-4.029l4.479,1.712a8.851,8.851,0,0,0,.17,5.191l-4.41,1.848A13.545,13.545,0,0,1,10.146,34.993Zm13.606-8.83a8.784,8.784,0,0,0-3.263.625l-2.055-4.323a13.637,13.637,0,0,1,11.137.227l-2.326,4.192a8.779,8.779,0,0,0-3.493-.721Zm8.125,5.374a8.886,8.886,0,0,0-3.349-3.967l3.518-6.341a16,16,0,0,1,6.763,8.145ZM7.985,19.225a22.368,22.368,0,0,1,5.4-3.987L16.5,21.789a15.1,15.1,0,0,0-3.08,2.245.727.727,0,1,0,1,1.058,13.64,13.64,0,0,1,2.708-1.987l2.059,4.331a8.888,8.888,0,0,0-3.458,3.872L11.257,29.6a13.572,13.572,0,0,1,1.234-2.245.727.727,0,1,0-1.2-.818A15.031,15.031,0,0,0,9.9,29.08L3.126,26.491A22.26,22.26,0,0,1,7.985,19.225ZM2.617,27.853l6.776,2.59a15.081,15.081,0,0,0,.256,9.833l-6.69,2.8a22.479,22.479,0,0,1-.342-15.225Zm.914,16.562,6.7-2.8A15.16,15.16,0,0,0,17.2,48.549L14.289,55.2A22.482,22.482,0,0,1,3.532,44.416ZM30.851,56.143a22.493,22.493,0,0,1-15.225-.375l2.908-6.649a15.066,15.066,0,0,0,9.833.209Zm-1.622-8.7-1.641-4.5a8.89,8.89,0,0,0,3.806-3.531l4.287,2.12a13.694,13.694,0,0,1-6.451,5.912ZM46.051,34.993a22.234,22.234,0,0,1-1.931,9.095l-6.5-3.216a15.079,15.079,0,0,0,.674-9.812L45.206,28.9A22.308,22.308,0,0,1,46.051,34.993ZM40.2,28.94a17.447,17.447,0,0,0-7.446-8.984l4.224-7.614a26.265,26.265,0,0,1,11.54,14Z" fill="#002e66"/>
    </g>
  </g>
</svg>
