<svg xmlns="http://www.w3.org/2000/svg" xmlns:xlink="http://www.w3.org/1999/xlink" width="78" height="78" viewBox="0 0 78 78">
  <defs>
    <clipPath id="clip-path">
      <rect id="Rectángulo_979" data-name="Rectángulo 979" width="78" height="78" transform="translate(1181 1183)" fill="none" stroke="#707070" stroke-width="1"/>
    </clipPath>
  </defs>
  <g id="Enmascarar_grupo_42" data-name="Enmascarar grupo 42" transform="translate(-1181 -1183)" clip-path="url(#clip-path)">
    <g id="shopping" transform="translate(1180.998 1185.717)">
      <path id="Trazado_230" data-name="Trazado 230" d="M215.886,301.889a1.521,1.521,0,1,0-2.15,0,1.521,1.521,0,0,0,2.15,0Zm0,0" transform="translate(-180.884 -253.819)" fill="#005fab"/>
      <path id="Trazado_231" data-name="Trazado 231" d="M225.531,64.043v3.039a9.117,9.117,0,0,0,18.233,0V64.043a1.52,1.52,0,0,0,0-3.039h-3.039a1.52,1.52,0,1,0,0,3.039v3.039a6.078,6.078,0,0,1-12.156,0V64.043a1.52,1.52,0,1,0,0-3.039h-3.039a1.52,1.52,0,0,0,0,3.039Zm0,0" transform="translate(-189.976 -51.735)" fill="#005fab"/>
      <path id="Trazado_232" data-name="Trazado 232" d="M17.659,71.859a1.521,1.521,0,0,0,2.148,0l4.665-4.667a7.034,7.034,0,0,0,2.04-5.7l1.673-1.616A7.049,7.049,0,0,1,33.1,57.889H53.105a13.6,13.6,0,0,0,9.537-3.876,1.428,1.428,0,0,0,.107-.116L76.362,37.554a6.078,6.078,0,0,0-9.249-7.889l-1.472,1.522V1.52A1.52,1.52,0,0,0,64.122,0H25.071a1.52,1.52,0,0,0-1.52,1.52V35.562a18.277,18.277,0,0,0-13.064,10.23,7.017,7.017,0,0,0-5.35,2.063L.448,52.518a1.52,1.52,0,0,0,0,2.152ZM62.6,3.035V34.33l-4.4,4.547a6.105,6.105,0,0,0-4.715-2.257H35.868a.839.839,0,0,1-.309-.065A19.635,19.635,0,0,0,28.11,35.1c-.509,0-1.016.018-1.52.052V3.039Zm-37.313,35.3a17.265,17.265,0,0,1,9.128,1.032,3.866,3.866,0,0,0,1.451.288H53.485a3.039,3.039,0,0,1,0,6.075H40.265a1.52,1.52,0,0,0,0,3.039h13.22A6.084,6.084,0,0,0,59.561,42.7a6.146,6.146,0,0,0-.054-.8c.317-.325,9.5-9.823,9.819-10.156.024-.024.046-.049.068-.074A3.039,3.039,0,1,1,74.032,35.6L60.467,51.892a10.573,10.573,0,0,1-7.362,2.961H33.1a10.071,10.071,0,0,0-7.024,2.836l-.67.647a7.073,7.073,0,0,0-.933-1.15l-9.327-9.332a7.1,7.1,0,0,0-1.676-1.24,15.212,15.212,0,0,1,11.822-8.276ZM7.284,50a4.029,4.029,0,0,1,5.707,0l9.333,9.333a4.031,4.031,0,0,1,0,5.707l-3.594,3.593L3.672,53.6Zm0,0" fill="#005fab"/>
    </g>
  </g>
</svg>
