<svg xmlns="http://www.w3.org/2000/svg" width="17" height="17" viewBox="0 0 17 17">
  <g id="Icon_ionic-logo-instagram" data-name="Icon ionic-logo-instagram" transform="translate(-4.5 -4.5)">
    <path id="Trazado_35" data-name="Trazado 35" d="M16.542,5.917a3.552,3.552,0,0,1,3.542,3.542v7.083a3.552,3.552,0,0,1-3.542,3.542H9.458a3.552,3.552,0,0,1-3.542-3.542V9.458A3.552,3.552,0,0,1,9.458,5.917h7.083m0-1.417H9.458A4.973,4.973,0,0,0,4.5,9.458v7.083A4.973,4.973,0,0,0,9.458,21.5h7.083A4.973,4.973,0,0,0,21.5,16.542V9.458A4.973,4.973,0,0,0,16.542,4.5Z"/>
    <path id="Trazado_36" data-name="Trazado 36" d="M24.688,11.125a1.063,1.063,0,1,1,1.063-1.062A1.06,1.06,0,0,1,24.688,11.125Z" transform="translate(-7.083 -1.667)"/>
    <path id="Trazado_37" data-name="Trazado 37" d="M15.5,12.667A2.833,2.833,0,1,1,12.667,15.5,2.836,2.836,0,0,1,15.5,12.667m0-1.417a4.25,4.25,0,1,0,4.25,4.25,4.251,4.251,0,0,0-4.25-4.25Z" transform="translate(-2.5 -2.5)"/>
  </g>
</svg>
