<svg xmlns="http://www.w3.org/2000/svg" xmlns:xlink="http://www.w3.org/1999/xlink" width="50" height="50" viewBox="0 0 50 50">
  <defs>
    <clipPath id="clip-path">
      <rect id="Rectángulo_948" data-name="Rectángulo 948" width="50" height="50" transform="translate(535 2353)" fill="none" stroke="#707070" stroke-width="1"/>
    </clipPath>
  </defs>
  <g id="Enmascarar_grupo_20" data-name="Enmascarar grupo 20" transform="translate(-535 -2353)" clip-path="url(#clip-path)">
    <path id="Icon_ionic-ios-move" data-name="Icon ionic-ios-move" d="M44.681,22.724l-7.588-7.588a1.327,1.327,0,0,0-1.873,0l-.019.019a1.327,1.327,0,0,0,0,1.873l5.247,5.247-15.463.048L25.033,6.86l5.247,5.247a1.327,1.327,0,0,0,1.873,0l.019-.019a1.327,1.327,0,0,0,0-1.873L24.583,2.627a1.327,1.327,0,0,0-1.873,0l-7.588,7.588a1.327,1.327,0,0,0,0,1.873l.019.019a1.327,1.327,0,0,0,1.873,0L22.261,6.86l.048,15.463L6.846,22.275l5.247-5.247a1.327,1.327,0,0,0,0-1.873l-.019-.019a1.327,1.327,0,0,0-1.873,0L2.612,22.724a1.327,1.327,0,0,0,0,1.873L10.2,32.185a1.327,1.327,0,0,0,1.873,0l.019-.019a1.327,1.327,0,0,0,0-1.873L6.846,25.047,22.309,25l-.048,15.463-5.247-5.247a1.327,1.327,0,0,0-1.873,0l-.019.019a1.327,1.327,0,0,0,0,1.873L22.71,44.7a1.327,1.327,0,0,0,1.873,0l7.588-7.588a1.327,1.327,0,0,0,0-1.873l-.019-.019a1.327,1.327,0,0,0-1.873,0l-5.247,5.247L24.985,25l15.463.048L35.2,30.293a1.327,1.327,0,0,0,0,1.873l.019.019a1.327,1.327,0,0,0,1.873,0L44.681,24.6A1.31,1.31,0,0,0,44.681,22.724Z" transform="translate(536.274 2354.261)" fill="#002e66" stroke="#fff" stroke-width="1"/>
  </g>
</svg>
