<svg xmlns="http://www.w3.org/2000/svg" xmlns:xlink="http://www.w3.org/1999/xlink" width="100" height="100" viewBox="0 0 100 100">
  <defs>
    <clipPath id="clip-path">
      <rect id="Rectángulo_941" data-name="Rectángulo 941" width="100" height="100" transform="translate(179 3022)" fill="none" stroke="#707070" stroke-width="1"/>
    </clipPath>
  </defs>
  <g id="Enmascarar_grupo_15" data-name="Enmascarar grupo 15" transform="translate(-179 -3022)" clip-path="url(#clip-path)">
    <g id="Layer_13" data-name="Layer 13" transform="translate(180.431 3022.485)">
      <path id="Trazado_171" data-name="Trazado 171" d="M67.673,65.143a35.64,35.64,0,1,0-42.768,0L6.449,83.583A1.551,1.551,0,0,0,7.7,86.217l12.242-1.348V95.53a1.55,1.55,0,0,0,.961,1.426,1.3,1.3,0,0,0,.589.124,1.55,1.55,0,0,0,1.1-.449L46.289,72.921,69.982,96.63a1.55,1.55,0,0,0,1.1.449,1.3,1.3,0,0,0,.589-.124,1.55,1.55,0,0,0,.961-1.426V84.869l12.226,1.348a1.551,1.551,0,0,0,1.255-2.634Zm-53.925-28.5A32.541,32.541,0,1,1,46.289,69.187,32.541,32.541,0,0,1,13.748,36.646Zm8.786,45.325a1.549,1.549,0,0,0-1.209-.372l-9.561,1.054L27.508,66.909A35.051,35.051,0,0,0,42.725,72.1L23.045,91.8V83.133A1.55,1.55,0,0,0,22.534,81.971Zm48.719-.387a1.524,1.524,0,0,0-1.72,1.55V91.8L49.853,72.1A35.051,35.051,0,0,0,65.07,66.909L80.814,82.653Z" transform="translate(2.758 0.008)" fill="#005fab"/>
      <path id="Trazado_172" data-name="Trazado 172" d="M71.884,34.442A29.442,29.442,0,1,0,42.442,63.884,29.442,29.442,0,0,0,71.884,34.442ZM17.261,26.694H33.145a1.55,1.55,0,0,0,1.1-.449l6.2-6.2a1.55,1.55,0,0,0,.449-1.1V14.3a3.1,3.1,0,0,1,3.1,3.1v7.748a1.55,1.55,0,0,0,1.55,1.55H59.487v3.1h-12.4v3.1h12.4v3.1h-12.4v3.1h12.4v3.1h-12.4v3.1h12.4v1.55a1.55,1.55,0,0,1-1.55,1.55H39.715L33.842,45.46a1.55,1.55,0,0,0-.7-.17H18.47A25.94,25.94,0,0,1,16.1,34.442a26.637,26.637,0,0,1,1.162-7.748Zm2.867,21.694H32.773l5.873,2.929a1.55,1.55,0,0,0,.7.17H57.938a4.649,4.649,0,0,0,4.649-4.649V25.145a1.55,1.55,0,0,0-1.55-1.55H47.091V17.4a6.2,6.2,0,0,0-6.2-6.2h-1.55a1.55,1.55,0,0,0-1.55,1.55v5.563l-5.284,5.284H18.47a26.343,26.343,0,1,1,1.658,24.793Z" transform="translate(6.605 2.212)" fill="#005fab"/>
      <path id="Trazado_173" data-name="Trazado 173" d="M13.407,16.493a1.55,1.55,0,0,0,1.55-1.968l-1.317-4.447,2.231-1.627a1.593,1.593,0,0,0-.542-2.8l-3.611-.868-1.55-2.96a1.55,1.55,0,0,0-2.727,0l-1.55,2.96-3.7.868a1.586,1.586,0,0,0-.573,2.8l2.262,1.627L2.56,14.525a1.559,1.559,0,0,0,2.4,1.689l3.8-2.82,3.734,2.743A1.55,1.55,0,0,0,13.407,16.493ZM10.943,8.218a1.55,1.55,0,0,0-.635,1.674l.325,1.147-.961-.744a1.55,1.55,0,0,0-1.829,0l-1.023.744.387-1.147a1.55,1.55,0,0,0-.573-1.674l-.511-.325,1.085-.279a1.55,1.55,0,0,0,.976-.759l.573-1.023.558,1.023a1.55,1.55,0,0,0,.992.759l1.1.279Z" transform="translate(0 0.016)" fill="#005fab"/>
      <path id="Trazado_174" data-name="Trazado 174" d="M68.5,6.918a1.55,1.55,0,0,0-1.178-1.255l-3.611-.914-1.55-2.96a1.55,1.55,0,0,0-2.727,0l-1.55,2.96-3.7.914a1.553,1.553,0,0,0-.542,2.758l2.231,1.627-1.317,4.494a1.559,1.559,0,0,0,2.4,1.689l3.8-2.82,3.734,2.743a1.542,1.542,0,0,0,2.464-1.612L65.69,10.094l2.231-1.627a1.55,1.55,0,0,0,.573-1.55ZM62.963,8.235A1.55,1.55,0,0,0,62.3,9.908l.325,1.147-.961-.744a1.55,1.55,0,0,0-1.829,0l-1.023.744L59.2,9.908a1.55,1.55,0,0,0-.573-1.674l-.449-.325L59.2,7.63a1.55,1.55,0,0,0,.976-.759l.573-1.023.558,1.023a1.55,1.55,0,0,0,.976.759l1.1.279Z" transform="translate(28.589 0)" fill="#005fab"/>
    </g>
  </g>
</svg>
