<svg xmlns="http://www.w3.org/2000/svg" xmlns:xlink="http://www.w3.org/1999/xlink" width="52" height="52" viewBox="0 0 52 52">
  <defs>
    <clipPath id="clip-path">
      <rect id="Rectángulo_940" data-name="Rectángulo 940" width="52" height="52" transform="translate(1017 6352)" fill="none" stroke="#707070" stroke-width="1"/>
    </clipPath>
  </defs>
  <g id="Enmascarar_grupo_13" data-name="Enmascarar grupo 13" transform="translate(-1017 -6352)" clip-path="url(#clip-path)">
    <g id="eficiencia" transform="translate(1019.43 6345.732)">
      <path id="Trazado_26" data-name="Trazado 26" d="M46.329,40.952a2.922,2.922,0,0,0-.719-1.929,2.955,2.955,0,0,0,1.527-2.517,2.892,2.892,0,0,0-.839-2.1,3.018,3.018,0,0,0-.7-.53A2.942,2.942,0,0,0,43.386,29H38.1l2.025-4.312A3.68,3.68,0,0,0,38.36,19.8a3.642,3.642,0,0,0-1.559-.348,3.692,3.692,0,0,0-3.33,2.114l-1.056,2.25c-.033.07-.067.14-.1.209a.691.691,0,0,0,1.226.635c.044-.084.085-.169.126-.256l1.056-2.251a2.306,2.306,0,0,1,2.08-1.32,2.271,2.271,0,0,1,.972.217,2.3,2.3,0,0,1,1.1,3.052L36.4,29.362a.69.69,0,0,0,.039.658l.021.033a.691.691,0,0,0,.586.326h6.336a1.562,1.562,0,1,1,0,3.125.69.69,0,0,0,0,1.381h.759a1.643,1.643,0,0,1,1.166.493,1.522,1.522,0,0,1,.445,1.1A1.569,1.569,0,0,1,44.2,38.009h-.809a.69.69,0,0,0,0,1.381,1.562,1.562,0,1,1,0,3.124h-.808a.69.69,0,0,0,0,1.381,1.553,1.553,0,0,1,1.1.456,1.577,1.577,0,0,1,.344.518l.006.016a1.565,1.565,0,0,1-1.454,2.135H30.3a3.293,3.293,0,0,1-1.967-.645,2.443,2.443,0,0,0,.141-.819V31.507s0-.006,0-.009,0,0,0,0a4.024,4.024,0,0,1,.348-1.721A4.087,4.087,0,0,1,30.5,27.9a7.72,7.72,0,0,0,1.192-.862A.69.69,0,1,0,30.779,26a6.339,6.339,0,0,1-.979.708,5.461,5.461,0,0,0-2.238,2.509c-.043.1-.083.2-.12.294a2.44,2.44,0,0,0-1.42-.454H22.543a2.457,2.457,0,0,0-2.454,2.454v8.66A12.935,12.935,0,0,0,0,50.951a13,13,0,0,0,.194,2.238.691.691,0,0,0,1.36-.238,11.568,11.568,0,0,1-.152-1.31h1.88a.69.69,0,1,0,0-1.381H1.4a11.477,11.477,0,0,1,1.2-4.481l.726.419A.69.69,0,0,0,4.02,45L3.3,44.585a11.656,11.656,0,0,1,3.279-3.279l.418.724a.69.69,0,1,0,1.2-.69l-.419-.725a11.477,11.477,0,0,1,4.481-1.2v1.88a.69.69,0,1,0,1.381,0v-1.88a11.477,11.477,0,0,1,4.481,1.2l-.419.725a.69.69,0,1,0,1.2.69l.418-.723a11.654,11.654,0,0,1,3.279,3.279L21.863,45a.69.69,0,1,0,.69,1.2l.725-.419a11.475,11.475,0,0,1,1.2,4.481H22.6a.69.69,0,1,0,0,1.381h1.879a11.477,11.477,0,0,1-1.2,4.481l-.725-.419a.69.69,0,1,0-.69,1.2l.723.418A11.654,11.654,0,0,1,19.308,60.6l-.418-.723a.69.69,0,1,0-1.2.69l.419.725a11.476,11.476,0,0,1-4.481,1.2V60.611a.69.69,0,0,0-1.381,0v1.879a11.546,11.546,0,0,1-4.483-1.2l.421-.73a.69.69,0,0,0-1.2-.69l-.422.731A11.533,11.533,0,0,1,3.29,57.32l.73-.421a.69.69,0,1,0-.69-1.2l-.728.42c-.11-.221-.216-.445-.313-.675a.69.69,0,0,0-1.272.538A12.944,12.944,0,0,0,25.546,48.01h.476a2.442,2.442,0,0,0,1.5-.517A4.664,4.664,0,0,0,30.3,48.4H42.578a2.946,2.946,0,0,0,2.748-4l-.009-.025a2.947,2.947,0,0,0-.513-.845,2.946,2.946,0,0,0,1.526-2.579ZM26.022,46.629H25.14a12.986,12.986,0,0,0-3.67-5.4V31.507a1.074,1.074,0,0,1,1.073-1.073h3.479A1.075,1.075,0,0,1,27.1,31.507V45.556A1.074,1.074,0,0,1,26.022,46.629Z" transform="translate(0 -8.76)"/>
      <path id="Trazado_27" data-name="Trazado 27" d="M62.233,302.375h0a2.254,2.254,0,0,0,2.251-2.251v-3.985a2.251,2.251,0,1,0-4.5,0v1.734H56.54a2.251,2.251,0,0,0,0,4.5Zm-.87-6.236a.87.87,0,1,1,1.74,0v3.985a.87.87,0,1,1-1.74,0Zm-5.692,3.985a.871.871,0,0,1,.87-.87h3.441v.87a2.239,2.239,0,0,0,.175.87H56.54A.871.871,0,0,1,55.67,300.123Z" transform="translate(-49.291 -257.933)"/>
      <path id="Trazado_28" data-name="Trazado 28" d="M184.616,14.383a1.942,1.942,0,0,0,1.833,1.307,1.919,1.919,0,0,0,.5-.066l.179-.048h0a1.94,1.94,0,0,0,1.4-2.24l-.386-1.974a1.934,1.934,0,0,0-2.4-1.5l-.445.119a1.934,1.934,0,0,0-1.329,2.5Zm.689-2.79a.548.548,0,0,1,.345-.274l.445-.119a.558.558,0,0,1,.145-.019.554.554,0,0,1,.541.447l.386,1.974a.555.555,0,0,1-.4.641l-.179.048a.555.555,0,0,1-.666-.355l-.652-1.9A.548.548,0,0,1,185.3,11.593Z" transform="translate(-166.932)"/>
      <path id="Trazado_29" data-name="Trazado 29" d="M111.377,54.993l1.516,1.322a1.94,1.94,0,0,0,2.639-.09l.131-.131a1.94,1.94,0,0,0,.09-2.639l-1.322-1.516a1.934,1.934,0,0,0-2.826-.1l-.326.326a1.934,1.934,0,0,0,.1,2.826Zm.88-1.849.326-.326a.547.547,0,0,1,.39-.162h.02a.548.548,0,0,1,.4.189l1.322,1.516a.555.555,0,0,1-.026.755l-.131.131a.555.555,0,0,1-.755.026l-1.516-1.322a.553.553,0,0,1-.028-.808Z" transform="translate(-100.521 -37.657)"/>
      <path id="Trazado_30" data-name="Trazado 30" d="M70.8,128.7l1.974.386a1.935,1.935,0,0,0,2.24-1.4l.048-.179h0a1.94,1.94,0,0,0-1.241-2.33l-1.9-.652a1.934,1.934,0,0,0-2.5,1.329l-.119.445a1.934,1.934,0,0,0,1.5,2.4Zm-.163-2.041.119-.445a.554.554,0,0,1,.533-.411.554.554,0,0,1,.18.03l1.9.652a.555.555,0,0,1,.355.666l-.048.179a.555.555,0,0,1-.641.4l-1.974-.386a.553.553,0,0,1-.428-.686Z" transform="translate(-62.863 -104.068)"/>
    </g>
  </g>
</svg>
