<svg id="revision" xmlns="http://www.w3.org/2000/svg" width="59.115" height="59.115" viewBox="0 0 59.115 59.115">
  <path id="Trazado_97" data-name="Trazado 97" d="M185.171,0H173.656a.868.868,0,0,0,0,1.735h11.515a.869.869,0,0,1,.868.868V20.067a.869.869,0,0,1-.868.868H161.3v-.417a3.069,3.069,0,0,0-6.139,0v.417h-8.838a.868.868,0,0,0,0,1.735h8.838V37.96l-2.061-2.31a6.719,6.719,0,0,0-5.008-2.243,2,2,0,0,0-1.755,2.954l3.455,6.348a17.161,17.161,0,0,0,3.247,4.233l3.682,3.5V52.3a1.987,1.987,0,0,0-1.579,1.942v2.885a1.986,1.986,0,0,0,1.984,1.984H170.8a1.986,1.986,0,0,0,1.984-1.984V54.247a1.986,1.986,0,0,0-1.522-1.927V50.391c.791-1,3.243-4.659,3.243-11.691V33.4a3.069,3.069,0,0,0-4.621-2.648,3.068,3.068,0,0,0-4.4-1.513,3.069,3.069,0,0,0-4.186-1.629V22.67h23.873a2.606,2.606,0,0,0,2.6-2.6V2.6a2.606,2.606,0,0,0-2.6-2.6ZM162.632,29.04a1.336,1.336,0,0,1,1.334,1.334v1.513a.868.868,0,1,0,1.735,0,1.334,1.334,0,1,1,2.668,0V33.4a.868.868,0,0,0,1.735,0,1.334,1.334,0,0,1,2.668,0v5.3c0,7.454-2.978,10.749-3,10.778a.867.867,0,0,0-.238.6v2.189h-2.1a.868.868,0,0,0,0,1.735h3.37a.249.249,0,0,1,.249.249v2.885a.249.249,0,0,1-.249.248H157.124a.249.249,0,0,1-.248-.248V54.247a.249.249,0,0,1,.248-.249h6.84a.868.868,0,0,0,0-1.735h-5.509V50.074a.868.868,0,0,0-.27-.629l-3.952-3.76a15.426,15.426,0,0,1-2.919-3.806l-3.455-6.348c-.082-.219,0-.356.231-.389a4.981,4.981,0,0,1,3.713,1.663l3.543,3.971a.892.892,0,0,0,1.548-.578V20.517a1.334,1.334,0,1,1,2.668,0v9.857a.868.868,0,1,0,1.735,0,1.336,1.336,0,0,1,1.334-1.334Z" transform="translate(-128.659 0)" fill="#565f81"/>
  <path id="Trazado_98" data-name="Trazado 98" d="M14.191,20.934H2.6a.869.869,0,0,1-.868-.868V2.6A.869.869,0,0,1,2.6,1.735H41.526a.868.868,0,1,0,0-1.735H2.6A2.606,2.606,0,0,0,0,2.6V20.066a2.606,2.606,0,0,0,2.6,2.6H14.191a.868.868,0,1,0,0-1.735Z" fill="#565f81"/>
  <path id="Trazado_99" data-name="Trazado 99" d="M213.665,43.553a1.857,1.857,0,0,0-1.029-3.167l-2.02-.293a.122.122,0,0,1-.092-.067l-.9-1.831a1.857,1.857,0,0,0-3.33,0l-.9,1.831a.122.122,0,0,1-.091.066l-2.021.293a1.857,1.857,0,0,0-1.029,3.167l1.462,1.425a.121.121,0,0,1,.035.107L203.4,47.1a1.857,1.857,0,0,0,2.694,1.957l1.807-.95a.121.121,0,0,1,.113,0l1.807.95a1.857,1.857,0,0,0,2.694-1.957l-.345-2.012a.121.121,0,0,1,.035-.107Zm-2.673.183a1.856,1.856,0,0,0-.534,1.643l.345,2.012a.121.121,0,0,1-.176.128l-1.807-.95a1.857,1.857,0,0,0-1.728,0l-1.807.95a.121.121,0,0,1-.176-.128l.345-2.012a1.856,1.856,0,0,0-.534-1.643l-1.462-1.425a.121.121,0,0,1,.067-.207l2.021-.293a1.857,1.857,0,0,0,1.4-1.016l.9-1.831a.121.121,0,0,1,.218,0l.9,1.831a1.857,1.857,0,0,0,1.4,1.016l2.02.293a.121.121,0,0,1,.067.207Z" transform="translate(-178.398 -32.87)" fill="#565f81"/>
  <path id="Trazado_100" data-name="Trazado 100" d="M62.678,47.1l-.345-2.012a.121.121,0,0,1,.035-.107l1.462-1.425A1.857,1.857,0,0,0,62.8,40.387l-2.02-.293a.122.122,0,0,1-.092-.067l-.9-1.831a1.857,1.857,0,0,0-3.33,0l-.9,1.831a.122.122,0,0,1-.091.067l-2.021.293a1.857,1.857,0,0,0-1.029,3.167l1.462,1.425a.121.121,0,0,1,.035.107L53.563,47.1a1.857,1.857,0,0,0,2.694,1.957l1.807-.95a.122.122,0,0,1,.113,0l1.807.95A1.857,1.857,0,0,0,62.678,47.1Zm-1.521-3.362a1.856,1.856,0,0,0-.534,1.643l.345,2.012a.121.121,0,0,1-.176.128l-1.807-.95a1.857,1.857,0,0,0-1.728,0l-1.807.95a.121.121,0,0,1-.176-.128l.345-2.012a1.856,1.856,0,0,0-.534-1.643l-1.462-1.425a.121.121,0,0,1,.067-.207l2.021-.293a1.857,1.857,0,0,0,1.4-1.016l.9-1.831a.121.121,0,0,1,.218,0l.9,1.831a1.857,1.857,0,0,0,1.4,1.016l2.02.293a.121.121,0,0,1,.067.207Z" transform="translate(-45.863 -32.87)" fill="#565f81"/>
  <path id="Trazado_101" data-name="Trazado 101" d="M363.5,43.553a1.857,1.857,0,0,0-1.029-3.167l-2.02-.293a.122.122,0,0,1-.092-.067l-.9-1.831a1.857,1.857,0,0,0-3.33,0l-.9,1.831a.122.122,0,0,1-.092.067l-2.021.293a1.857,1.857,0,0,0-1.029,3.167l1.462,1.425a.121.121,0,0,1,.035.107l-.345,2.012a1.857,1.857,0,0,0,2.694,1.957l1.807-.95a.121.121,0,0,1,.113,0l1.807.95a1.857,1.857,0,0,0,2.694-1.957L362,45.085a.121.121,0,0,1,.035-.107Zm-2.673.183a1.856,1.856,0,0,0-.534,1.643l.345,2.012a.122.122,0,0,1-.176.128l-1.807-.95a1.857,1.857,0,0,0-1.728,0l-1.807.95a.121.121,0,0,1-.176-.128l.345-2.012a1.856,1.856,0,0,0-.534-1.644l-1.462-1.425a.121.121,0,0,1,.067-.207l2.021-.293a1.858,1.858,0,0,0,1.4-1.016l.9-1.831a.121.121,0,0,1,.218,0l.9,1.831a1.857,1.857,0,0,0,1.4,1.016l2.02.293a.121.121,0,0,1,.067.207Z" transform="translate(-310.934 -32.87)" fill="#565f81"/>
</svg>
