<svg xmlns="http://www.w3.org/2000/svg" xmlns:xlink="http://www.w3.org/1999/xlink" width="100" height="100" viewBox="0 0 100 100">
  <defs>
    <clipPath id="clip-path">
      <rect id="Rectángulo_942" data-name="Rectángulo 942" width="100" height="100" transform="translate(597 3017)" fill="none" stroke="#707070" stroke-width="1"/>
    </clipPath>
  </defs>
  <g id="Enmascarar_grupo_16" data-name="Enmascarar grupo 16" transform="translate(-597 -3017)" clip-path="url(#clip-path)">
    <g id="apreton-de-manos-de-asociacion" transform="translate(598.169 3018.141)">
      <path id="Trazado_166" data-name="Trazado 166" d="M97.265,121.606,80.919,100.372a1.915,1.915,0,0,0-2.545-.447L67.82,106.637H54.055a1.9,1.9,0,0,0-.527.088L42.856,109.8l-11.074-3.029-10.76-6.843a1.914,1.914,0,0,0-2.518.413l-18.08,22.4a1.915,1.915,0,0,0,.241,2.654l9.476,8.155L18.644,145A6.762,6.762,0,0,0,22.9,156.357a6.811,6.811,0,0,0-.079,1.035,6.768,6.768,0,0,0,6.768,6.768l.072,0c0,.046,0,.092,0,.138a6.767,6.767,0,0,0,6.768,6.768,6.9,6.9,0,0,0,1.057-.083A6.768,6.768,0,0,0,49,175.1l1.035-1.035.434.35a6.765,6.765,0,0,0,11.47-4.97,6.756,6.756,0,0,0,6.87-6.866,6.762,6.762,0,0,0,6.869-6.873,6.764,6.764,0,0,0,5.781-10.45l6.208-13L97,124.226A1.915,1.915,0,0,0,97.265,121.606ZM20.41,104.074l7.737,4.92L11.316,129.5l-6.745-5.805ZM21.5,147.55l2.335-2.335c.071-.071.145-.138.221-.2a2.931,2.931,0,0,1,1.6-.648l.05,0c.083-.007.167-.011.251-.01a2.92,2.92,0,0,1,2.1.92,3.011,3.011,0,0,1-.13,4.166L25.655,151.7A2.938,2.938,0,0,1,21.5,147.55Zm6.008,11.919a2.937,2.937,0,0,1,0-4.154l4.528-4.528a2.969,2.969,0,0,1,3.34-.577A2.928,2.928,0,0,1,37,153.244a3.1,3.1,0,0,1-.875,1.77l-4.457,4.456a2.938,2.938,0,0,1-4.155,0Zm6.837,6.9a2.937,2.937,0,0,1,0-4.154l4.527-4.528a2.97,2.97,0,0,1,3.551-.466,2.923,2.923,0,0,1,1.4,2.969,3.1,3.1,0,0,1-.87,1.723L38.5,166.372a2.938,2.938,0,0,1-4.155,0Zm7.788,6.021a2.941,2.941,0,0,1,0-4.154l2.335-2.335c.071-.071.145-.137.221-.2l.005,0a2.927,2.927,0,0,1,1.3-.605l.034,0c.082-.015.165-.027.249-.034.034,0,.067,0,.1-.005.069,0,.136-.008.206-.007a2.919,2.919,0,0,1,2.1.92,2.648,2.648,0,0,1,.189.223,3.032,3.032,0,0,1-.331,3.955l-2.252,2.252A2.941,2.941,0,0,1,42.134,172.393Zm35.724-21.372a2.94,2.94,0,0,1-4.154,0,1.745,1.745,0,0,0-.13-.117L61.26,138.46a1.915,1.915,0,0,0-2.723,2.694l12.447,12.577,0,0a2.938,2.938,0,1,1-4.155,4.155l-8.327-8.413a1.915,1.915,0,0,0-2.722,2.694l8.2,8.284a1.816,1.816,0,0,0,.134.15,2.938,2.938,0,1,1-4.155,4.154l-4.544-4.592a1.915,1.915,0,0,0-2.723,2.694l4.418,4.463a1.709,1.709,0,0,0,.135.151A2.938,2.938,0,0,1,53.1,171.63a4.238,4.238,0,0,0-.434-.346c-.125-.1-.158-.162-.1-.314s.158-.294.221-.449c.07-.173.127-.351.182-.53a6.9,6.9,0,0,0,.248-2.946,6.7,6.7,0,0,0-5.709-5.765,6.83,6.83,0,0,0-1.64-6.163A6.718,6.718,0,0,0,41.044,153h-.2a6.7,6.7,0,0,0-6.634-6.9,6.887,6.887,0,0,0-1.634.174,6.743,6.743,0,0,0-11.19-4.007l-7.4-9.975,17.71-21.575,5.644,1.544-7.371,13.007a6.769,6.769,0,0,0,2.552,9.225q.148.084.3.159l.023.011a6.811,6.811,0,0,0,.812.341,6.767,6.767,0,0,0,8.091-3.062l4.79-8.453,8.553.607,22.776,22.775A2.942,2.942,0,0,1,77.859,151.021Zm.794-8.778L57.286,120.877a1.7,1.7,0,0,0-.127-.116,1.916,1.916,0,0,0-1.092-.44L45.6,119.579a1.947,1.947,0,0,0-1.8.966l-5.386,9.5a2.938,2.938,0,1,1-5.111-2.9l7.19-12.689,2.913-.838.057-.019,10.873-3.14H67.468l16.4,20.85Zm7.726-13.932L71.211,109.019l7.741-4.923,14.173,18.41Zm0,0" transform="translate(0 -80.217)" fill="#005fab"/>
      <path id="Trazado_167" data-name="Trazado 167" d="M302.059,45.783a1.91,1.91,0,0,0,1.355-.561L316.5,32.141a1.915,1.915,0,0,0-2.708-2.708L300.706,42.513a1.915,1.915,0,0,0,1.354,3.27Zm0,0" transform="translate(-242.893 -22.959)" fill="#005fab"/>
      <path id="Trazado_168" data-name="Trazado 168" d="M136.838,45.222a1.915,1.915,0,0,0,2.708-2.708L126.465,29.432a1.915,1.915,0,0,0-2.708,2.708Zm0,0" transform="translate(-99.696 -22.959)" fill="#005fab"/>
      <path id="Trazado_169" data-name="Trazado 169" d="M247.876,55.355a1.915,1.915,0,0,0,1.915-1.915V42.614a1.915,1.915,0,0,0-3.83,0V53.44A1.915,1.915,0,0,0,247.876,55.355Zm0,0" transform="translate(-199.045 -32.531)" fill="#005fab"/>
      <path id="Trazado_170" data-name="Trazado 170" d="M246.129,3.142A1.914,1.914,0,1,0,249.062.891a1.914,1.914,0,0,0-2.933,2.252Zm0,0" transform="translate(-199.065)" fill="#005fab"/>
    </g>
  </g>
</svg>
