<svg xmlns="http://www.w3.org/2000/svg" xmlns:xlink="http://www.w3.org/1999/xlink" width="78" height="78" viewBox="0 0 78 78">
  <defs>
    <clipPath id="clip-path">
      <rect id="Rectángulo_976" data-name="Rectángulo 976" width="78" height="78" transform="translate(243 1183)" fill="none" stroke="#707070" stroke-width="1"/>
    </clipPath>
  </defs>
  <g id="Enmascarar_grupo_39" data-name="Enmascarar grupo 39" transform="translate(-243 -1183)" clip-path="url(#clip-path)">
    <g id="cogwheels" transform="translate(244.54 1184)">
      <path id="Trazado_206" data-name="Trazado 206" d="M45.388,133.388v-2.434A10.966,10.966,0,0,1,34.434,120H32a13.4,13.4,0,0,0,13.388,13.388Zm0,0" transform="translate(-27.132 -101.743)" fill="#005fab"/>
      <path id="Trazado_207" data-name="Trazado 207" d="M72.52,81.039A8.52,8.52,0,1,0,64,72.519a8.52,8.52,0,0,0,8.52,8.52Zm0-14.6a6.086,6.086,0,1,1-6.086,6.086,6.086,6.086,0,0,1,6.086-6.086Zm0,0" transform="translate(-54.263 -54.263)" fill="#005fab"/>
      <path id="Trazado_208" data-name="Trazado 208" d="M99.651,103.3A3.651,3.651,0,1,0,96,99.651a3.651,3.651,0,0,0,3.651,3.649Zm0-4.868a1.217,1.217,0,1,1-1.217,1.217,1.217,1.217,0,0,1,1.217-1.217Zm0,0" transform="translate(-81.395 -81.395)" fill="#005fab"/>
      <path id="Trazado_209" data-name="Trazado 209" d="M75.46,58.068V49.037l-3.294-1.149a19.443,19.443,0,0,0-1.446-3.5l1.517-3.138-1.175-1.17a27.874,27.874,0,0,0-2.113-2.341c-.841-.85-1.811-1.773-2.469-2.35l-8.1-7.082.7-2.085,2.818,1.41,4.684-4.684-1.41-2.818,2.989-1V12.512l-2.989-1L66.578,8.7,61.894,4.015l-2.818,1.41-1-2.99H51.459l-1,2.989-2.818-1.41L42.962,8.7l1.41,2.818-2.99,1v.929L31.364,4.679A18.9,18.9,0,0,0,18.911,0V.033C18.692.026,18.478,0,18.257,0A18.277,18.277,0,0,0,0,18.257c0,.222.026.436.033.655H0A18.9,18.9,0,0,0,4.68,31.363l8.765,10.018H12.51l-1,2.989L8.7,42.961,4.014,47.645l1.41,2.818-2.989,1v6.623l2.989,1L4.014,61.9,8.7,66.577l2.818-1.41,1,2.99h6.623l1-2.989,2.818,1.41,4.684-4.684-1.41-2.818,2.1-.7L35.4,66.451c.554.632,1.384,1.511,2.166,2.3a28.818,28.818,0,0,0,2.523,2.308l1.18,1.18L44.4,70.722a19.523,19.523,0,0,0,3.5,1.446l1.153,3.292h9.031l1.149-3.294a19.442,19.442,0,0,0,3.5-1.446l3.138,1.517,6.387-6.387-1.517-3.138a19.53,19.53,0,0,0,1.446-3.5ZM36.384,44.393a19.53,19.53,0,0,0-1.446,3.5l-3.294,1.149v9.031l3.294,1.149a19.443,19.443,0,0,0,1.446,3.5l-.369.763-24.85-28.4A18.256,18.256,0,0,0,35.078,11.161L63.491,36.008l-.778.376a19.511,19.511,0,0,0-3.5-1.446l-1.15-3.294H49.037l-1.149,3.294a19.443,19.443,0,0,0-3.5,1.446L41.25,34.867l-6.387,6.387Zm7.432-30.127,2.794-.931.2-.539c.06-.157.122-.31.188-.461l.236-.527L45.922,9.177l2.2-2.2,2.632,1.316.527-.236c.151-.067.3-.128.461-.188l.539-.2.931-2.794h3.114l.931,2.794.539.2c.157.06.31.122.461.188l.527.236,2.632-1.316,2.2,2.2L62.3,11.809l.236.527c.067.151.128.3.188.461l.2.539,2.793.931V17.38l-2.794.931-.2.539c-.06.157-.122.31-.188.461l-.236.527,1.316,2.632-2.2,2.2-2.632-1.316-.527.236c-.151.067-.3.128-.461.188l-.539.2L56.4,26.571l-12.58-11ZM18.257,2.434A15.822,15.822,0,1,1,2.434,18.257,15.822,15.822,0,0,1,18.257,2.434Zm5.725,54.823-.2.539c-.06.157-.122.31-.188.461l-.236.527,1.316,2.632-2.2,2.2L19.836,62.3l-.527.236c-.151.067-.3.128-.461.188l-.539.2-.931,2.794H14.265l-.931-2.794-.539-.2c-.157-.06-.31-.122-.461-.188l-.527-.236-2.63,1.316-2.2-2.2,1.316-2.632-.236-.527c-.067-.151-.128-.3-.188-.461l-.2-.539-2.794-.931V53.212l2.794-.931.2-.539c.06-.157.122-.31.188-.461l.236-.527-1.316-2.63,2.2-2.2,2.632,1.316.526-.24c.151-.067.3-.128.461-.188l.539-.2.931-2.794h1.31l11,12.574Zm46.179.081-.167.622a16.937,16.937,0,0,1-1.7,4.1l-.324.559,1.318,2.728-3.941,3.941L62.619,67.97l-.559.324a17.052,17.052,0,0,1-4.1,1.7l-.622.167-1,2.865H50.765l-1-2.865-.622-.167a16.937,16.937,0,0,1-4.1-1.7l-.559-.324-2.728,1.318-3.941-3.941,1.318-2.728-.324-.559a17.052,17.052,0,0,1-1.7-4.1l-.167-.622-2.865-1V50.765l2.865-1,.167-.622a16.937,16.937,0,0,1,1.7-4.1l.324-.559-1.318-2.728,3.941-3.941,2.728,1.318.559-.324a17.052,17.052,0,0,1,4.1-1.7l.622-.167,1-2.865H56.34l1,2.865.622.167a16.937,16.937,0,0,1,4.1,1.7l.559.324,2.728-1.318,3.941,3.941-1.318,2.728.324.559a17.052,17.052,0,0,1,1.7,4.1l.167.622,2.865,1V56.34Zm0,0" fill="#005fab"/>
      <path id="Trazado_210" data-name="Trazado 210" d="M284.171,272a12.171,12.171,0,1,0,12.171,12.171A12.171,12.171,0,0,0,284.171,272Zm0,21.908a9.737,9.737,0,1,1,9.737-9.737,9.737,9.737,0,0,1-9.737,9.737Zm0,0" transform="translate(-230.619 -230.618)" fill="#005fab"/>
      <path id="Trazado_211" data-name="Trazado 211" d="M311.3,304a7.3,7.3,0,1,0,7.3,7.3A7.3,7.3,0,0,0,311.3,304Zm0,12.171a4.868,4.868,0,1,1,4.868-4.868A4.868,4.868,0,0,1,311.3,316.171Zm0,0" transform="translate(-257.75 -257.75)" fill="#005fab"/>
      <path id="Trazado_212" data-name="Trazado 212" d="M332.171,70.086a6.085,6.085,0,1,0-6.085,6.086,6.085,6.085,0,0,0,6.085-6.086Zm-9.737,0a3.651,3.651,0,1,1,3.651,3.651,3.651,3.651,0,0,1-3.651-3.651Zm0,0" transform="translate(-271.316 -54.263)" fill="#005fab"/>
      <path id="Trazado_213" data-name="Trazado 213" d="M64,326.086A6.086,6.086,0,1,0,70.086,320,6.086,6.086,0,0,0,64,326.086Zm9.737,0a3.651,3.651,0,1,1-3.651-3.651,3.651,3.651,0,0,1,3.651,3.651Zm0,0" transform="translate(-54.263 -271.316)" fill="#005fab"/>
    </g>
  </g>
</svg>
