<svg xmlns="http://www.w3.org/2000/svg" width="30" height="30" viewBox="0 0 30 30">
  <g id="Grupo_28" data-name="Grupo 28" transform="translate(-1300 -11)">
    <circle id="Elipse_9" data-name="Elipse 9" cx="11" cy="11" r="11" transform="translate(1304 15)" fill="#fff"/>
    <path id="Exclusión_3" data-name="Exclusión 3" d="M15,30A15,15,0,0,1,9.161,1.179,15,15,0,0,1,20.839,28.821,14.906,14.906,0,0,1,15,30ZM7.944,20.3h0a8.609,8.609,0,0,0,4.666,1.364,8.282,8.282,0,0,0,6.418-2.816,8.944,8.944,0,0,0,2.227-5.829c0-.129,0-.263-.009-.4a6.49,6.49,0,0,0,1.524-1.571,6.058,6.058,0,0,1-1.75.47,3.023,3.023,0,0,0,1.336-1.674,6.032,6.032,0,0,1-1.929.734,3.041,3.041,0,0,0-5.258,2.079,3.42,3.42,0,0,0,.075.7,8.653,8.653,0,0,1-6.265-3.18,3,3,0,0,0-.414,1.533,3.035,3.035,0,0,0,1.354,2.53,3.063,3.063,0,0,1-1.374-.386v.038a3.051,3.051,0,0,0,2.437,2.982,3.2,3.2,0,0,1-.8.1,3.841,3.841,0,0,1-.574-.047,3.046,3.046,0,0,0,2.841,2.107,6.06,6.06,0,0,1-3.772,1.3A6.175,6.175,0,0,1,7.944,20.3Z" transform="translate(1300 11)" fill="#00acee"/>
  </g>
</svg>
