<svg id="linkedin_1_" data-name="linkedin (1)" xmlns="http://www.w3.org/2000/svg" width="30.008" height="30.008" viewBox="0 0 30.008 30.008">
  <path id="Trazado_238" data-name="Trazado 238" d="M15,0A15,15,0,1,1,0,15,15,15,0,0,1,15,0Z" transform="translate(0 0)" fill="#0e76a8"/>
  <path id="Trazado_239" data-name="Trazado 239" d="M81.948,85.943h2.81V76.579h-2.81Zm10.945-9.689a4.217,4.217,0,0,0-3.449,1.6v-1.3h-2.82v9.4h2.82V80.863a2.23,2.23,0,0,1,2.216-2.121c1.232,0,1.536,1.047,1.536,2.095v5.106h2.81V80.627C96.006,76.935,94.258,76.255,92.893,76.255Zm-9.554-.611a1.407,1.407,0,1,0-1.407-1.407A1.407,1.407,0,0,0,83.34,75.643Z" transform="translate(-73.493 -65.328)" fill="#fff"/>
</svg>
