<svg xmlns="http://www.w3.org/2000/svg" width="78" height="78" viewBox="0 0 78 78">
  <path id="Icon_awesome-plus-circle" data-name="Icon awesome-plus-circle" d="M39.562.562a39,39,0,1,0,39,39A38.993,38.993,0,0,0,39.562.562Zm22.645,43.4a1.893,1.893,0,0,1-1.887,1.887H45.853V60.32a1.893,1.893,0,0,1-1.887,1.887H35.159a1.893,1.893,0,0,1-1.887-1.887V45.853H18.8a1.893,1.893,0,0,1-1.887-1.887V35.159A1.893,1.893,0,0,1,18.8,33.272H33.272V18.8a1.893,1.893,0,0,1,1.887-1.887h8.806A1.893,1.893,0,0,1,45.853,18.8V33.272H60.32a1.893,1.893,0,0,1,1.887,1.887Z" transform="translate(-0.563 -0.563)" fill="#fff" opacity="0.5"/>
</svg>
