<svg xmlns="http://www.w3.org/2000/svg" width="18.85" height="24.5" viewBox="0 0 18.85 24.5">
  <path id="Icon_awesome-pinterest-p" data-name="Icon awesome-pinterest-p" d="M10.014.457C4.977.457,0,3.815,0,9.249c0,3.456,1.944,5.419,3.122,5.419.486,0,.766-1.355.766-1.738,0-.457-1.163-1.428-1.163-3.328A6.634,6.634,0,0,1,9.616,2.857c3.343,0,5.817,1.9,5.817,5.39,0,2.607-1.046,7.5-4.433,7.5a2.18,2.18,0,0,1-2.268-2.15c0-1.856,1.3-3.652,1.3-5.567,0-3.25-4.609-2.661-4.609,1.266a5.767,5.767,0,0,0,.471,2.489c-.677,2.916-2.062,7.26-2.062,10.264,0,.928.133,1.841.221,2.769.167.187.083.167.339.074,2.474-3.387,2.386-4.05,3.5-8.482a3.981,3.981,0,0,0,3.4,1.767c5.213,0,7.555-5.081,7.555-9.66C18.85,3.638,14.638.457,10.014.457Z" transform="translate(0 -0.457)" fill="#565f81"/>
</svg>
