<svg xmlns="http://www.w3.org/2000/svg" width="283.132" height="285.679" viewBox="0 0 283.132 285.679">
  <g id="imagen" transform="translate(21.275 0.5)">
    <g id="Grupo_1094" data-name="Grupo 1094" transform="translate(-20.775)">
      <path id="Trazado_234" data-name="Trazado 234" d="M432.86,36.795A6.143,6.143,0,1,0,439,42.938,6.143,6.143,0,0,0,432.86,36.795Z" transform="translate(-187.807 -18.147)" fill="#002e66" stroke="#fff" stroke-width="1"/>
      <path id="Trazado_235" data-name="Trazado 235" d="M391.444,36.795a6.143,6.143,0,1,0,6.143,6.143A6.143,6.143,0,0,0,391.444,36.795Z" transform="translate(-167.38 -18.147)" fill="#002e66" stroke="#fff" stroke-width="1"/>
      <circle id="Elipse_51" data-name="Elipse 51" cx="6.143" cy="6.143" r="6.143" transform="translate(196.931 18.648)" fill="#002e66" stroke="#fff" stroke-width="1"/>
      <path id="Trazado_236" data-name="Trazado 236" d="M247.317,0H15.915A14.056,14.056,0,0,0,1.875,14.04V213.7a14.054,14.054,0,0,0,14.038,14.038h.04L-19.661,265.9a3.8,3.8,0,0,0,0,5.376,3.789,3.789,0,0,0,2.688,1.113,3.789,3.789,0,0,0,2.688-1.113l37.88-40.428,6.911,6.911L-7.375,278.19a3.8,3.8,0,0,0,0,5.376,3.789,3.789,0,0,0,2.688,1.113A3.789,3.789,0,0,0-2,283.566l37.887-40.434a3.792,3.792,0,0,0,5.241-.121l10.253-10.253a60,60,0,0,0,66.589-5.016H247.319A14.054,14.054,0,0,0,261.357,213.7V88.092a3.8,3.8,0,1,0-7.6,0V213.7a6.444,6.444,0,0,1-6.436,6.436h-121.3a59.894,59.894,0,0,0,14.575-32.329h61.67l.029,0h23.522a3.8,3.8,0,0,0,3.8-3.8v-23.55a3.8,3.8,0,0,0-3.8-3.8h-89.67a60.029,60.029,0,0,0-4.7-8.783H201.24a3.8,3.8,0,0,0,3.8-3.8V62.164a3.8,3.8,0,0,0-3.8-3.8H61.992a3.8,3.8,0,0,0-3.8,3.8V73.527a3.8,3.8,0,0,0,7.6,0V65.965H197.439v69.011L150.454,88.56a3.8,3.8,0,0,0-5.359.017l-24.254,24.258L107.357,99.351a3.8,3.8,0,0,0-5.355-.02L80.7,120.313a60.229,60.229,0,0,0-14.91,1.927V91.265a3.8,3.8,0,1,0-7.6,0v33.5a60.178,60.178,0,0,0-31.414,29.546,3.8,3.8,0,1,0,6.846,3.3,52.53,52.53,0,1,1-5.2,22.811,53.431,53.431,0,0,1,.468-7.038,3.8,3.8,0,1,0-7.535-1.006,61.02,61.02,0,0,0-.535,8.044,59.744,59.744,0,0,0,7.78,29.549L18.436,220.139H15.914A6.444,6.444,0,0,1,9.477,213.7V49.58H253.755V70.354a3.8,3.8,0,1,0,7.6,0V14.04A14.056,14.056,0,0,0,247.317,0ZM206.066,164.259h15.948v15.948H206.066Zm-7.6,0v15.949H141.045a59.955,59.955,0,0,0-2.208-15.949ZM147.8,96.624l44.184,43.648H148.278l-22.062-22.062ZM90.725,121.111l13.925-13.717,32.877,32.878h-11.9A60.087,60.087,0,0,0,90.725,121.111Zm-57.87,95.36A60.621,60.621,0,0,0,44.886,228.5l-6.445,6.445L26.41,222.916ZM9.477,41.978V14.04A6.445,6.445,0,0,1,15.915,7.6h231.4a6.445,6.445,0,0,1,6.438,6.438V41.978Z" transform="translate(20.775)" fill="#002e66" stroke="#fff" stroke-width="1"/>
      <path id="Trazado_237" data-name="Trazado 237" d="M113.434,357.18A43.733,43.733,0,1,0,69.7,313.447a43.783,43.783,0,0,0,43.733,43.733Zm0-79.864A36.131,36.131,0,1,1,77.3,313.447a36.171,36.171,0,0,1,36.131-36.131Z" transform="translate(-11.727 -133.023)" fill="#002e66" stroke="#fff" stroke-width="1"/>
    </g>
  </g>
</svg>
