<svg xmlns="http://www.w3.org/2000/svg" xmlns:xlink="http://www.w3.org/1999/xlink" width="120.796" height="49.266" viewBox="0 0 120.796 49.266">
  <defs>
    <clipPath id="clip-path">
      <rect id="Rectángulo_72" data-name="Rectángulo 72" width="90.477" height="22.623" fill="none"/>
    </clipPath>
  </defs>
  <g id="Grupo_907" data-name="Grupo 907" transform="translate(613.398 -2829)">
    <g id="Grupo_906" data-name="Grupo 906">
      <path id="Trazado_299" data-name="Trazado 299" d="M-56.063-.79h-.048a2.1,2.1,0,0,1-1.848.9,2.186,2.186,0,0,1-1.8-.79A3.475,3.475,0,0,1-60.4-2.927a3.534,3.534,0,0,1,.645-2.261,2.169,2.169,0,0,1,1.794-.806,2.141,2.141,0,0,1,1.837.87h.07l-.038-.424-.021-.414v-2.4h.892V0h-.725Zm-1.783.15a1.623,1.623,0,0,0,1.324-.5,2.51,2.51,0,0,0,.411-1.6v-.188a2.954,2.954,0,0,0-.416-1.786,1.581,1.581,0,0,0-1.329-.534,1.365,1.365,0,0,0-1.2.61,3.031,3.031,0,0,0-.416,1.721,2.906,2.906,0,0,0,.414,1.7A1.4,1.4,0,0,0-57.847-.639ZM-52.438,0h-.892V-5.887h.892ZM-53.4-7.482a.592.592,0,0,1,.15-.448.526.526,0,0,1,.376-.142.525.525,0,0,1,.371.145.581.581,0,0,1,.156.446.591.591,0,0,1-.156.448.52.52,0,0,1-.371.148.515.515,0,0,1-.376-.148A.6.6,0,0,1-53.4-7.482Zm6.655,5.876a1.475,1.475,0,0,1-.612,1.268,2.878,2.878,0,0,1-1.719.446,3.737,3.737,0,0,1-1.826-.371V-1.09A4.416,4.416,0,0,0-50-.752a3.8,3.8,0,0,0,.937.124,2.125,2.125,0,0,0,1.074-.223.737.737,0,0,0,.376-.679.737.737,0,0,0-.3-.588A4.689,4.689,0,0,0-49.07-2.7a6.306,6.306,0,0,1-1.168-.534,1.6,1.6,0,0,1-.516-.518,1.352,1.352,0,0,1-.169-.693,1.321,1.321,0,0,1,.585-1.136,2.728,2.728,0,0,1,1.606-.416,4.7,4.7,0,0,1,1.858.387l-.317.725A4.266,4.266,0,0,0-48.8-5.248a1.848,1.848,0,0,0-.956.2.614.614,0,0,0-.322.548.667.667,0,0,0,.121.4,1.193,1.193,0,0,0,.389.317,8.7,8.7,0,0,0,1.031.435,3.853,3.853,0,0,1,1.415.768A1.354,1.354,0,0,1-46.75-1.606ZM-42.813.107a2.7,2.7,0,0,1-2.06-.795A3.077,3.077,0,0,1-45.627-2.9a3.413,3.413,0,0,1,.7-2.261,2.328,2.328,0,0,1,1.883-.838,2.22,2.22,0,0,1,1.751.728,2.789,2.789,0,0,1,.645,1.92v.564H-44.7a2.333,2.333,0,0,0,.524,1.574,1.811,1.811,0,0,0,1.4.537,4.741,4.741,0,0,0,1.88-.4v.795A4.718,4.718,0,0,1-41.8.019,5.026,5.026,0,0,1-42.813.107Zm-.242-5.355a1.456,1.456,0,0,0-1.131.462,2.129,2.129,0,0,0-.5,1.278H-41.6A1.96,1.96,0,0,0-41.98-4.8,1.323,1.323,0,0,0-43.055-5.248ZM-35.1,0V-3.808a1.536,1.536,0,0,0-.328-1.074,1.335,1.335,0,0,0-1.026-.354,1.692,1.692,0,0,0-1.354.5,2.522,2.522,0,0,0-.43,1.649V0h-.892V-5.887h.725l.145.806h.043a1.821,1.821,0,0,1,.768-.674,2.5,2.5,0,0,1,1.1-.239,2.236,2.236,0,0,1,1.6.513,2.183,2.183,0,0,1,.537,1.641V0Zm-.666-6.676a1.086,1.086,0,0,1-.451-.1q-.22-.1-.432-.22t-.408-.22a.836.836,0,0,0-.379-.1.5.5,0,0,0-.406.161,1.154,1.154,0,0,0-.212.489h-.526A1.858,1.858,0,0,1-38.2-7.683a.993.993,0,0,1,.8-.368,1.2,1.2,0,0,1,.478.1,4.209,4.209,0,0,1,.44.22q.209.121.4.22a.8.8,0,0,0,.365.1.476.476,0,0,0,.392-.158,1.256,1.256,0,0,0,.209-.491h.532a1.884,1.884,0,0,1-.373,1.018A1,1,0,0,1-35.766-6.676Zm8.47,3.728A3.247,3.247,0,0,1-28.021-.7a2.554,2.554,0,0,1-2,.808,2.653,2.653,0,0,1-1.4-.371,2.446,2.446,0,0,1-.945-1.063A3.706,3.706,0,0,1-32.7-2.949a3.242,3.242,0,0,1,.72-2.242,2.545,2.545,0,0,1,2-.8,2.49,2.49,0,0,1,1.963.822A3.233,3.233,0,0,1-27.3-2.949Zm-4.485,0A2.794,2.794,0,0,0-31.33-1.23,1.566,1.566,0,0,0-30-.639a1.576,1.576,0,0,0,1.329-.588,2.78,2.78,0,0,0,.454-1.721,2.735,2.735,0,0,0-.454-1.705,1.6,1.6,0,0,0-1.34-.583,1.569,1.569,0,0,0-1.321.575A2.766,2.766,0,0,0-31.781-2.949ZM-18.068,0l-1.08-3.454q-.1-.317-.381-1.439h-.043q-.215.94-.376,1.45L-21.06,0h-1.031L-23.7-5.887h.935l.867,3.378a13.688,13.688,0,0,1,.341,1.563h.043q.059-.306.191-.792t.228-.771l1.08-3.378h.967l1.053,3.378a11.4,11.4,0,0,1,.408,1.552h.043a5.693,5.693,0,0,1,.115-.6q.094-.4,1.12-4.334h.924L-17.01,0Zm6.236.107a2.7,2.7,0,0,1-2.06-.795A3.077,3.077,0,0,1-14.647-2.9a3.413,3.413,0,0,1,.7-2.261,2.328,2.328,0,0,1,1.883-.838,2.22,2.22,0,0,1,1.751.728,2.789,2.789,0,0,1,.645,1.92v.564h-4.055A2.333,2.333,0,0,0-13.2-1.208a1.811,1.811,0,0,0,1.4.537,4.741,4.741,0,0,0,1.88-.4v.795a4.718,4.718,0,0,1-.894.293A5.026,5.026,0,0,1-11.833.107Zm-.242-5.355a1.456,1.456,0,0,0-1.131.462,2.129,2.129,0,0,0-.5,1.278h3.078A1.96,1.96,0,0,0-11-4.8,1.323,1.323,0,0,0-12.074-5.248Zm6.666-.736a2.189,2.189,0,0,1,1.8.792,3.477,3.477,0,0,1,.642,2.242A3.5,3.5,0,0,1-3.612-.7a2.18,2.18,0,0,1-1.8.8A2.548,2.548,0,0,1-6.459-.1a1.975,1.975,0,0,1-.8-.653h-.064L-7.509,0h-.639V-8.357h.892v2.03q0,.682-.043,1.225h.043A2.117,2.117,0,0,1-5.409-5.983Zm-.129.747a1.557,1.557,0,0,0-1.316.524,2.954,2.954,0,0,0-.4,1.764,2.946,2.946,0,0,0,.414,1.775,1.573,1.573,0,0,0,1.327.534,1.375,1.375,0,0,0,1.225-.6,3.078,3.078,0,0,0,.4-1.721,2.958,2.958,0,0,0-.4-1.713A1.428,1.428,0,0,0-5.538-5.237Zm6.053-.65h.956L2.761-2.53A12.769,12.769,0,0,1,3.287-.87H3.33q.07-.274.293-.937T5.081-5.887h.956L3.507.816a3.344,3.344,0,0,1-.878,1.41A1.867,1.867,0,0,1,1.4,2.643a3.587,3.587,0,0,1-.806-.091V1.837a3.108,3.108,0,0,0,.661.064A1.362,1.362,0,0,0,2.562.87L2.89.032ZM13.857-.79h-.048a2.1,2.1,0,0,1-1.848.9,2.186,2.186,0,0,1-1.8-.79,3.475,3.475,0,0,1-.642-2.245,3.534,3.534,0,0,1,.645-2.261,2.169,2.169,0,0,1,1.794-.806,2.141,2.141,0,0,1,1.837.87h.07l-.038-.424-.021-.414v-2.4H14.7V0h-.725Zm-1.783.15a1.623,1.623,0,0,0,1.324-.5,2.51,2.51,0,0,0,.411-1.6v-.188a2.954,2.954,0,0,0-.416-1.786,1.581,1.581,0,0,0-1.329-.534,1.365,1.365,0,0,0-1.2.61,3.031,3.031,0,0,0-.416,1.721,2.906,2.906,0,0,0,.414,1.7A1.4,1.4,0,0,0,12.074-.639Zm7,.747a2.7,2.7,0,0,1-2.06-.795A3.077,3.077,0,0,1,16.264-2.9a3.413,3.413,0,0,1,.7-2.261,2.328,2.328,0,0,1,1.883-.838,2.22,2.22,0,0,1,1.751.728,2.789,2.789,0,0,1,.645,1.92v.564H17.188a2.333,2.333,0,0,0,.524,1.574,1.811,1.811,0,0,0,1.4.537,4.741,4.741,0,0,0,1.88-.4v.795A4.718,4.718,0,0,1,20.1.019,5.026,5.026,0,0,1,19.078.107Zm-.242-5.355a1.456,1.456,0,0,0-1.131.462,2.129,2.129,0,0,0-.5,1.278h3.078A1.96,1.96,0,0,0,19.911-4.8,1.323,1.323,0,0,0,18.836-5.248ZM26.56-1.606a1.475,1.475,0,0,1-.612,1.268,2.878,2.878,0,0,1-1.719.446A3.737,3.737,0,0,1,22.4-.263V-1.09a4.416,4.416,0,0,0,.91.338,3.8,3.8,0,0,0,.937.124,2.125,2.125,0,0,0,1.074-.223.737.737,0,0,0,.376-.679.737.737,0,0,0-.3-.588A4.689,4.689,0,0,0,24.24-2.7a6.306,6.306,0,0,1-1.168-.534,1.6,1.6,0,0,1-.516-.518,1.352,1.352,0,0,1-.169-.693,1.321,1.321,0,0,1,.585-1.136,2.728,2.728,0,0,1,1.606-.416,4.7,4.7,0,0,1,1.858.387l-.317.725a4.266,4.266,0,0,0-1.606-.365,1.848,1.848,0,0,0-.956.2.614.614,0,0,0-.322.548.667.667,0,0,0,.121.4,1.193,1.193,0,0,0,.389.317,8.7,8.7,0,0,0,1.031.435,3.853,3.853,0,0,1,1.415.768A1.354,1.354,0,0,1,26.56-1.606ZM31.63,0l-.177-.838H31.41a2.477,2.477,0,0,1-.878.749,2.677,2.677,0,0,1-1.093.2,1.966,1.966,0,0,1-1.372-.451,1.646,1.646,0,0,1-.5-1.284q0-1.783,2.852-1.869l1-.032v-.365a1.492,1.492,0,0,0-.3-1.023,1.226,1.226,0,0,0-.953-.33A3.885,3.885,0,0,0,28.5-4.8l-.274-.682a4.19,4.19,0,0,1,.953-.371,4.129,4.129,0,0,1,1.039-.134,2.242,2.242,0,0,1,1.56.467,1.95,1.95,0,0,1,.508,1.5V0ZM29.616-.628a1.81,1.81,0,0,0,1.308-.457A1.689,1.689,0,0,0,31.4-2.363V-2.9l-.892.038a3.243,3.243,0,0,0-1.533.33,1,1,0,0,0-.47.91.919.919,0,0,0,.293.736A1.215,1.215,0,0,0,29.616-.628Zm7.2-5.366a3.489,3.489,0,0,1,.7.064l-.124.827a3.037,3.037,0,0,0-.645-.081,1.569,1.569,0,0,0-1.222.58,2.115,2.115,0,0,0-.508,1.445V0h-.892V-5.887h.736l.1,1.09h.043a2.588,2.588,0,0,1,.79-.886A1.777,1.777,0,0,1,36.813-5.994Zm4.49,0a3.489,3.489,0,0,1,.7.064l-.124.827a3.037,3.037,0,0,0-.645-.081,1.569,1.569,0,0,0-1.222.58,2.115,2.115,0,0,0-.508,1.445V0h-.892V-5.887h.736l.1,1.09H39.5a2.588,2.588,0,0,1,.79-.886A1.777,1.777,0,0,1,41.3-5.994Zm6.886,3.045A3.247,3.247,0,0,1,47.464-.7a2.554,2.554,0,0,1-2,.808,2.653,2.653,0,0,1-1.4-.371,2.446,2.446,0,0,1-.945-1.063,3.706,3.706,0,0,1-.333-1.622,3.242,3.242,0,0,1,.72-2.242,2.545,2.545,0,0,1,2-.8,2.49,2.49,0,0,1,1.963.822A3.233,3.233,0,0,1,48.189-2.949Zm-4.485,0a2.794,2.794,0,0,0,.451,1.719,1.566,1.566,0,0,0,1.327.591,1.576,1.576,0,0,0,1.329-.588,2.78,2.78,0,0,0,.454-1.721,2.735,2.735,0,0,0-.454-1.705,1.6,1.6,0,0,0-1.34-.583,1.569,1.569,0,0,0-1.321.575A2.766,2.766,0,0,0,43.7-2.949ZM50.644,0h-.892V-8.357h.892Zm2.782,0h-.892V-8.357h.892ZM60.4-2.949A3.247,3.247,0,0,1,59.673-.7a2.554,2.554,0,0,1-2,.808,2.653,2.653,0,0,1-1.4-.371,2.446,2.446,0,0,1-.945-1.063,3.706,3.706,0,0,1-.333-1.622,3.242,3.242,0,0,1,.72-2.242,2.545,2.545,0,0,1,2-.8,2.49,2.49,0,0,1,1.963.822A3.233,3.233,0,0,1,60.4-2.949Zm-4.485,0a2.794,2.794,0,0,0,.451,1.719,1.566,1.566,0,0,0,1.327.591,1.576,1.576,0,0,0,1.329-.588,2.78,2.78,0,0,0,.454-1.721,2.735,2.735,0,0,0-.454-1.705,1.6,1.6,0,0,0-1.34-.583,1.569,1.569,0,0,0-1.321.575A2.766,2.766,0,0,0,55.913-2.949Z" transform="translate(-553 2875.623)"/>
      <g id="Grupo_3108" data-name="Grupo 3108" transform="translate(-598.6 2829)" clip-path="url(#clip-path)">
        <path id="Trazado_256" data-name="Trazado 256" d="M432.239,39.07a2,2,0,0,0-1.479-.846,3.968,3.968,0,0,0-1.675.087,3.8,3.8,0,0,0-1.392.713,3.656,3.656,0,0,0-.963,1.206,3.469,3.469,0,0,0-.367,1.544,3.03,3.03,0,0,0,.257,1.29,10.691,10.691,0,0,0,.568,1.1q.3.513.569.982a1.912,1.912,0,0,1,.259.967,1.54,1.54,0,0,1-.141.684.493.493,0,0,1-.488.265c-.179,0-.289-.037-.329-.107a.417.417,0,0,1-.059-.219c0-.076,0-.149-.008-.218s-.052-.1-.135-.1a.458.458,0,0,0-.447.307,1.009,1.009,0,0,0-.038.685,1.346,1.346,0,0,0,.489.691,1.8,1.8,0,0,0,1.133.323,2.962,2.962,0,0,0,2.135-.706,2.631,2.631,0,0,0,.506-3.048,10.378,10.378,0,0,0-.62-1.035q-.336-.491-.61-.962a1.931,1.931,0,0,1-.269-1.01,2.6,2.6,0,0,1,.47-1.533,1.6,1.6,0,0,1,1.412-.63q.392,0,.462.306a1.022,1.022,0,0,1-.11.674,2.077,2.077,0,0,1-.523.67,1.111,1.111,0,0,1-.757.293q-.227,0-.282.278a1.161,1.161,0,0,0,.056.6,1.74,1.74,0,0,0,.366.606.824.824,0,0,0,.627.287,1.079,1.079,0,0,0,.674-.242,2.322,2.322,0,0,0,.564-.638,3.9,3.9,0,0,0,.391-.858,3,3,0,0,0,.154-.881,2.813,2.813,0,0,0-.4-1.52" transform="translate(-342.16 -30.637)"/>
        <path id="Trazado_257" data-name="Trazado 257" d="M266.123,77.529a1.5,1.5,0,0,0-.626-.344q-.286-.061-.178.212a.959.959,0,0,1-.352,1.239,4.02,4.02,0,0,1-2.122.567,15.9,15.9,0,0,1-3.664-.32,74.826,74.826,0,0,1-7.921-2.6c-2.688-.936-7.931-2.073-8.571-1.757a1.6,1.6,0,0,0-.939,1.662c.175.579.891-.026,6.45,1.383a29.811,29.811,0,0,1,4.021,1.563q2.7,1.158,5.034,1.935a18.107,18.107,0,0,0,4.2.928,6.394,6.394,0,0,0,3.2-.456,3.994,3.994,0,0,0,2-2.2,1.263,1.263,0,0,0,.024-1.054,2.105,2.105,0,0,0-.559-.766" transform="translate(-193.995 -59.772)"/>
        <path id="Trazado_258" data-name="Trazado 258" d="M63.111,5.452a3.051,3.051,0,0,0-.788-1.314,1.674,1.674,0,0,0-1.15-.488,2.534,2.534,0,0,0-.952.178s-.922.4-.876.7a.754.754,0,0,0,.973.523c1.011-.344,1.332,1.174,1.125,2.167-.9,4.3-3.371,4.212-3.3,3.026a6.567,6.567,0,0,1,.219-1.38,4.763,4.763,0,0,1,.421-1.086,6.91,6.91,0,0,1,.953-1.43c.409-.451-.293-1.129-.928-1.039a.618.618,0,0,0-.379.165A6.145,6.145,0,0,0,56.72,8.4c-.061.2-.113.395-.161.594q-.293.406-.638.869Q55.46,10.483,55,11a1.215,1.215,0,0,1-.831.511.408.408,0,0,1-.42-.347,2.334,2.334,0,0,1-.012-.893,7.34,7.34,0,0,1,.291-1.212q.213-.662.488-1.314a11.138,11.138,0,0,1,.6-1.219,6.581,6.581,0,0,1,.6-.9.316.316,0,0,0-.016-.457,2.268,2.268,0,0,0-.553-.474,4.637,4.637,0,0,0-.709-.371,1.7,1.7,0,0,0-.484-.15q-.269,0-.6.42a5.792,5.792,0,0,0-.662,1.115,14.46,14.46,0,0,0-.626,1.585,16.329,16.329,0,0,0-.494,1.812c-.062.292-.113.581-.154.869l-.334.44q-.336.444-.649.824a6.016,6.016,0,0,1-.584.627.748.748,0,0,1-.437.245q-.351,0-.409-.409a3.32,3.32,0,0,1,.083-1.089,11.9,11.9,0,0,1,.449-1.554q.309-.869.711-1.81t.845-1.861q.443-.919.865-1.7t.768-1.353a5.623,5.623,0,0,1,.535-.774q.188-.205-.026-.478a2.448,2.448,0,0,0-.584-.515,4.607,4.607,0,0,0-.75-.4,1.785,1.785,0,0,0-.5-.16q-.228,0-.583.451a8.962,8.962,0,0,0-.777,1.227q-.421.774-.876,1.809T48.3,5.658l-.1.4-.015-.049a1.4,1.4,0,0,0-.192-.375,1.232,1.232,0,0,0-.379-.336,1.214,1.214,0,0,0-.619-.151A2.969,2.969,0,0,0,45.88,5.4a4.465,4.465,0,0,0-1.258.8,5.784,5.784,0,0,0-1.14,1.4,6.746,6.746,0,0,0-.775,2.038c-.069.343-.115.632-.139.867l-.42.591q-.315.444-.639.824a4.535,4.535,0,0,1-.636.627.934.934,0,0,1-.56.244.422.422,0,0,1-.441-.355,6.7,6.7,0,0,1,.287-1.834q.223-.692.51-1.362a11.11,11.11,0,0,1,.622-1.247,5.727,5.727,0,0,1,.629-.905.332.332,0,0,0-.005-.486,2.294,2.294,0,0,0-.574-.483,4.682,4.682,0,0,0-.74-.372,1.9,1.9,0,0,0-.5-.15q-.248,0-.551.368a5,5,0,0,0-.6.981,11.845,11.845,0,0,0-.573,1.4,18.372,18.372,0,0,0-.533,2.083c-.088.2-.189.407-.31.634a6.733,6.733,0,0,1-.483.775,3.228,3.228,0,0,1-.564.606.949.949,0,0,1-.612.243.434.434,0,0,1-.441-.306,1.788,1.788,0,0,1-.065-.78,5.072,5.072,0,0,1,.238-1.068,11.715,11.715,0,0,1,.456-1.179,12.048,12.048,0,0,1,.569-1.116,5.261,5.261,0,0,1,.6-.856.383.383,0,0,0,.026-.488,1.786,1.786,0,0,0-.46-.483,3.406,3.406,0,0,0-.627-.37,1.417,1.417,0,0,0-.453-.15.835.835,0,0,0-.541.327,5.029,5.029,0,0,0-.65.9A11.944,11.944,0,0,0,33.867,8.4q-.317.724-.573,1.5-.2.607-.343,1.222c-.068.085-.138.175-.213.273l-.618.815q-.335.443-.659.814a7.629,7.629,0,0,1-.6.617.749.749,0,0,1-.437.245.387.387,0,0,1-.4-.367,2.694,2.694,0,0,1,.051-.976,11.089,11.089,0,0,1,.386-1.4q.266-.787.626-1.656t.772-1.757q.389-.841.77-1.588a3.857,3.857,0,0,1,.675.044,2.343,2.343,0,0,1,.6.172.874.874,0,0,1,.288.2.225.225,0,0,0,.164.1q.124,0,.168-.264a1.421,1.421,0,0,0-.066-.632,2.112,2.112,0,0,0-.416-.733,1.732,1.732,0,0,0-.547-.419l.085-.15a4.893,4.893,0,0,1,.691-1.032.347.347,0,0,0-.005-.5,2.449,2.449,0,0,0-.584-.515,4.436,4.436,0,0,0-.761-.4,1.869,1.869,0,0,0-.515-.161q-.289,0-.824.75a14.034,14.034,0,0,0-1.125,1.972,2.679,2.679,0,0,1-1.816-.253.826.826,0,0,1-.275-.355c-.033-.118-.091-.178-.174-.178-.055,0-.114.065-.178.2a1.359,1.359,0,0,0-.118.477,2.245,2.245,0,0,0,.045.624,1.406,1.406,0,0,0,.3.626,2.822,2.822,0,0,0,1.41.623q-.381.911-.732,1.893t-.608,1.954q-.258.974-.422,1.876a9.962,9.962,0,0,0-.172,1.671,4.574,4.574,0,0,0,.094.946,4.259,4.259,0,0,0,.28.9,2.316,2.316,0,0,0,.448.68.911.911,0,0,0,.6.3,1.977,1.977,0,0,0,.807-.075,3.455,3.455,0,0,0,.768-.345,4,4,0,0,0,.7-.533q.323-.308.616-.638a9.566,9.566,0,0,0,.778-1.028,3.015,3.015,0,0,0,.261.754,1.989,1.989,0,0,0,.573.691,1.438,1.438,0,0,0,.938.259,1.737,1.737,0,0,0,.944-.344,5.639,5.639,0,0,0,.875-.76,7.3,7.3,0,0,0,.711-.875q.3-.443.472-.712l.022-.185A4.95,4.95,0,0,0,38,14.592q.4.856,1.066.863a2.927,2.927,0,0,0,1.721-.516,6.529,6.529,0,0,0,1.313-1.17,8.464,8.464,0,0,0,.573-.742v0a3.477,3.477,0,0,0,.465,1.023,1.9,1.9,0,0,0,.635.6,1.483,1.483,0,0,0,.7.194,1.189,1.189,0,0,0,.862-.407,4.7,4.7,0,0,0,.7-.907,8.53,8.53,0,0,0,.654-1.323l.006-.022c-.009.143-.016.282-.018.415a4.768,4.768,0,0,0,.045.644,2.443,2.443,0,0,0,.2.708,1.668,1.668,0,0,0,.428.575,1.118,1.118,0,0,0,.752.247,2.849,2.849,0,0,0,1.658-.513A6.527,6.527,0,0,0,51.075,13.1c.122-.14.24-.286.355-.437a2.331,2.331,0,0,0,.466.97,1.3,1.3,0,0,0,1.029.436,2.89,2.89,0,0,0,1.678-.492A6.592,6.592,0,0,0,55.9,12.463a7.822,7.822,0,0,0,.513-.664c.023.113.047.225.079.333a2.576,2.576,0,0,0,.825,1.294,2.093,2.093,0,0,0,1.616.442c3.124-.337,4.281-4.911,4.4-6.455a5.093,5.093,0,0,0-.213-1.961m-15.684,3.3c-.029.111-.05.186-.064.228a6.461,6.461,0,0,1-.339.879,6.172,6.172,0,0,1-.558.971,4.217,4.217,0,0,1-.711.793,1.226,1.226,0,0,1-.821.325q-.248,0-.306-.377a3,3,0,0,1,.04-.945A7.346,7.346,0,0,1,45,9.4a7.588,7.588,0,0,1,.56-1.22,3.978,3.978,0,0,1,.722-.938,1.171,1.171,0,0,1,.809-.366c.165,0,.275.1.328.294a2.353,2.353,0,0,1,.076.645,7.987,7.987,0,0,1-.071.934" transform="translate(-22.251 0)"/>
        <path id="Trazado_259" data-name="Trazado 259" d="M376.165,31.94a3,3,0,0,0,.154-.881,2.813,2.813,0,0,0-.4-1.52,2,2,0,0,0-1.479-.847,3.968,3.968,0,0,0-1.675.087,3.8,3.8,0,0,0-1.392.713,3.653,3.653,0,0,0-.963,1.206,3.468,3.468,0,0,0-.367,1.544,3.028,3.028,0,0,0,.257,1.29,10.646,10.646,0,0,0,.567,1.1q.3.513.569.982a1.912,1.912,0,0,1,.259.967,1.54,1.54,0,0,1-.141.684.494.494,0,0,1-.488.265c-.179,0-.289-.037-.33-.107a.416.416,0,0,1-.059-.219c0-.076,0-.149-.008-.218s-.051-.1-.133-.105a.458.458,0,0,0-.447.307,1.009,1.009,0,0,0-.038.685,1.345,1.345,0,0,0,.489.691,1.794,1.794,0,0,0,1.133.323,2.963,2.963,0,0,0,2.135-.706,2.631,2.631,0,0,0,.506-3.048,10.371,10.371,0,0,0-.62-1.035q-.336-.491-.61-.962a1.929,1.929,0,0,1-.269-1.01,2.6,2.6,0,0,1,.47-1.533,1.6,1.6,0,0,1,1.412-.63q.392,0,.462.306a1.023,1.023,0,0,1-.11.674,2.079,2.079,0,0,1-.523.67,1.112,1.112,0,0,1-.757.293q-.228,0-.282.278a1.164,1.164,0,0,0,.056.6,1.743,1.743,0,0,0,.366.606.825.825,0,0,0,.627.287,1.078,1.078,0,0,0,.674-.242,2.321,2.321,0,0,0,.564-.638,3.9,3.9,0,0,0,.391-.858" transform="translate(-296.961 -22.986)"/>
        <path id="Trazado_260" data-name="Trazado 260" d="M5.964,33.323a3.767,3.767,0,0,0-.372-1.742A1.851,1.851,0,0,0,4.2,30.613a3.1,3.1,0,0,0-1.579.1,3.423,3.423,0,0,0-1.315.821,4.176,4.176,0,0,0-.91,1.384,4.694,4.694,0,0,0-.35,1.771A4.12,4.12,0,0,0,.282,36.17a13.3,13.3,0,0,0,.533,1.256q.286.587.534,1.125a2.563,2.563,0,0,1,.242,1.11,2.094,2.094,0,0,1-.135.785.458.458,0,0,1-.461.3c-.169,0-.272-.042-.311-.122a.557.557,0,0,1-.056-.251c0-.087,0-.171-.008-.25a.114.114,0,0,0-.125-.12q-.292,0-.423.353a1.389,1.389,0,0,0-.037.786,1.571,1.571,0,0,0,.46.79,1.484,1.484,0,0,0,1.068.368,2.513,2.513,0,0,0,2.016-.813,3.157,3.157,0,0,0,.743-2.135,3.331,3.331,0,0,0-.26-1.359,12.534,12.534,0,0,0-.583-1.185q-.316-.562-.574-1.1a2.58,2.58,0,0,1-.251-1.157A3.449,3.449,0,0,1,3.1,32.8a1.429,1.429,0,0,1,1.333-.725.4.4,0,0,1,.434.35,1.4,1.4,0,0,1-.105.773,2.391,2.391,0,0,1-.494.768.957.957,0,0,1-.715.338q-.215,0-.267.319a1.607,1.607,0,0,0,.052.691A2.105,2.105,0,0,0,3.686,36a.725.725,0,0,0,.592.328.916.916,0,0,0,.635-.279,2.582,2.582,0,0,0,.533-.733,5,5,0,0,0,.371-.985,4.111,4.111,0,0,0,.147-1.011" transform="translate(0.002 -24.523)"/>
        <path id="Trazado_261" data-name="Trazado 261" d="M273.91,25.97c-.264,0-.827.8-1.557,1.345a2.513,2.513,0,0,1-1.576.513.891.891,0,0,1-.884-.476,2.044,2.044,0,0,1-.133-1.154,3.168,3.168,0,0,0,1.305-.319,7.212,7.212,0,0,0,1.393-.827,6.366,6.366,0,0,0,1.158-1.121,2.8,2.8,0,0,0,.6-1.2,2.042,2.042,0,0,0-.272-1.706,1.881,1.881,0,0,0-1.585-.66,3.442,3.442,0,0,0-1.648.482,6.56,6.56,0,0,0-1.7,1.354,8.022,8.022,0,0,0-1.342,2.033,5.868,5.868,0,0,0-.483,1.573c-.079.108-.156.217-.237.331q-.315.444-.639.824a4.514,4.514,0,0,1-.636.627.933.933,0,0,1-.56.244.426.426,0,0,1-.43-.355,2.176,2.176,0,0,1-.012-.912,8.332,8.332,0,0,1,.312-1.25q.224-.691.51-1.362a11.91,11.91,0,0,1,.622-1.257,5.54,5.54,0,0,1,.629-.915.333.333,0,0,0-.005-.486,2.231,2.231,0,0,0-.584-.483,5.029,5.029,0,0,0-.75-.37,1.872,1.872,0,0,0-.5-.15,1.765,1.765,0,0,0-1.016.353,5.73,5.73,0,0,0-1.022.925,12.794,12.794,0,0,0-.963,1.237q-.461.671-.809,1.29t-.569,1.085a4.5,4.5,0,0,0-.265.631,9.248,9.248,0,0,1,.727-2.371,7.2,7.2,0,0,1,1.05-1.7.336.336,0,0,0-.005-.489,2.22,2.22,0,0,0-.584-.483,5,5,0,0,0-.75-.371,1.89,1.89,0,0,0-.5-.151q-.351,0-.761.657a8.956,8.956,0,0,0-.77,1.664c-.155.431-.292.892-.413,1.375-.022.033-.043.067-.066.1a11.989,11.989,0,0,1-.828,1.155,6.723,6.723,0,0,1-1.189,1.152,2.491,2.491,0,0,1-1.576.513.891.891,0,0,1-.884-.476,2.045,2.045,0,0,1-.133-1.154,3.171,3.171,0,0,0,1.305-.319,7.214,7.214,0,0,0,1.393-.827,6.362,6.362,0,0,0,1.158-1.121,2.8,2.8,0,0,0,.6-1.2,2.041,2.041,0,0,0-.272-1.706,1.887,1.887,0,0,0-1.586-.662,3.44,3.44,0,0,0-1.648.482,6.555,6.555,0,0,0-1.7,1.354,8.011,8.011,0,0,0-1.342,2.033,5.992,5.992,0,0,0-.562,2.518,4.741,4.741,0,0,0,.252,1.685,3.75,3.75,0,0,0,.66,1.17,2.79,2.79,0,0,0,.871.695,2.331,2.331,0,0,0,.886.258,3.4,3.4,0,0,0,1.7-.4,6.579,6.579,0,0,0,1.54-1.106,9.025,9.025,0,0,0,.983-1.107c0,.016,0,.033,0,.05a3.518,3.518,0,0,0,.155,1.05,3.251,3.251,0,0,0,.466.96,2.541,2.541,0,0,0,.758.7,2.025,2.025,0,0,0,1.051.281c.1,0,.146-.061.147-.186a6.324,6.324,0,0,1,.339-1.887A16.686,16.686,0,0,1,261.5,26q.443-.941.9-1.7t.683-1.136a14.267,14.267,0,0,0-.481,1.584,16.3,16.3,0,0,0-.316,1.648,10.057,10.057,0,0,0-.1,1.557,4.556,4.556,0,0,0,.194,1.31,2.068,2.068,0,0,0,.538.9,1.362,1.362,0,0,0,.957.342,2.926,2.926,0,0,0,1.721-.516,6.517,6.517,0,0,0,1.313-1.17c.144-.165.28-.341.413-.521.015.048.027.1.044.145a3.753,3.753,0,0,0,.66,1.17,2.79,2.79,0,0,0,.871.694,2.332,2.332,0,0,0,.886.258,3.407,3.407,0,0,0,1.7-.4,6.574,6.574,0,0,0,1.54-1.106,5.212,5.212,0,0,0,.919-1.078c.741-1.143.237-2.005-.026-2.008m-3.025-2.711a5.874,5.874,0,0,1,.628-.845,3.234,3.234,0,0,1,.678-.585,1.215,1.215,0,0,1,.653-.212q.33,0,.286.325a1.664,1.664,0,0,1-.39.754,4.8,4.8,0,0,1-.959.873,4.715,4.715,0,0,1-1.443.681q.253-.516.547-.992M254.7,22.3a5.879,5.879,0,0,1,.628-.845,3.24,3.24,0,0,1,.678-.585,1.215,1.215,0,0,1,.653-.211q.33,0,.286.325a1.665,1.665,0,0,1-.39.754,4.8,4.8,0,0,1-.959.873,4.706,4.706,0,0,1-1.443.681q.253-.516.547-.992" transform="translate(-201.382 -15.57)"/>
        <path id="Trazado_262" data-name="Trazado 262" d="M403.261,40.7a.461.461,0,0,0-.523.185h0c-.28.371-.561.717-.84,1.03a1.217,1.217,0,0,1-.832.511.408.408,0,0,1-.42-.347,2.335,2.335,0,0,1-.012-.893,7.339,7.339,0,0,1,.291-1.212q.213-.662.488-1.314a11.127,11.127,0,0,1,.6-1.219,6.586,6.586,0,0,1,.6-.9.316.316,0,0,0-.016-.457,2.273,2.273,0,0,0-.553-.474,4.639,4.639,0,0,0-.709-.371,1.708,1.708,0,0,0-.484-.15q-.269,0-.6.42a5.794,5.794,0,0,0-.662,1.115,14.428,14.428,0,0,0-.625,1.583,16.312,16.312,0,0,0-.494,1.813,13.04,13.04,0,0,0-.257,1.815,6.124,6.124,0,0,0,.077,1.59,2.419,2.419,0,0,0,.505,1.127,1.3,1.3,0,0,0,1.029.436A2.89,2.89,0,0,0,401.5,44.5c.2-.131.373-.273.548-.417,1.593-1.378,1.515-3.287,1.216-3.38" transform="translate(-319.576 -28.162)"/>
        <path id="Trazado_263" data-name="Trazado 263" d="M420.114,18.71a2.184,2.184,0,0,0,.457-1.252,1.141,1.141,0,0,0-.415-.991,1.094,1.094,0,0,0-1.053-.1,2.3,2.3,0,0,0-1.083.809,2.211,2.211,0,0,0-.447,1.273,1.165,1.165,0,0,0,.424.991,1.152,1.152,0,0,0,1.053.094,2.091,2.091,0,0,0,1.062-.82" transform="translate(-335.133 -13.061)"/>
        <path id="Trazado_264" data-name="Trazado 264" d="M207.079,26.358q.225-.657.439-1.272t.4-1.125q.182-.511.331-.823.169-.27-.13-.535a1.917,1.917,0,0,0-.756-.395,2.786,2.786,0,0,0,.382-.728,2.923,2.923,0,0,0,.155-.961,1.9,1.9,0,0,0-.078-.534,1.408,1.408,0,0,0-.286-.526,1.478,1.478,0,0,0-.558-.394,2.364,2.364,0,0,0-.893-.156,3.367,3.367,0,0,0-.917.158,5.976,5.976,0,0,0-1.2.511,8.7,8.7,0,0,0-1.3.886,6.39,6.39,0,0,0-1.189,1.285,6.767,6.767,0,0,0-1.09,5.237c.015.065.029.131.047.192a3.467,3.467,0,0,0,.489,1.062,2.039,2.039,0,0,0,.671.613,1.546,1.546,0,0,0,.726.206.9.9,0,0,0,.47-.142,2.77,2.77,0,0,0,.472-.361,5.7,5.7,0,0,0,.442-.466q.21-.249.379-.456-.234.479-.468,1.062c-.157.389-.268.737-.425,1.167l-.024.007a11.757,11.757,0,0,0-1.576.527c-.082.033-.166.061-.247.1a7.385,7.385,0,0,0-1.591.936A5.067,5.067,0,0,0,198.58,32.7a3.82,3.82,0,0,0-.616,3.415,2.252,2.252,0,0,0,.44.79,2.507,2.507,0,0,0,.826.626,2.907,2.907,0,0,0,1.267.264,2.415,2.415,0,0,0,1.314-.353,3.925,3.925,0,0,0,1.093-1.056,10.689,10.689,0,0,0,.985-1.706c.171-.361.393-.908.618-1.471l1.876-4.822c.085-.246.174-.5.27-.783l.429-1.251m-5.153,6.581h0c-.239.512-.5,1.058-.636,1.267a3.4,3.4,0,0,1-.747.85,1.509,1.509,0,0,1-.846.336c-.3.018-1.021.147-1.294-.416-.127-.6-.047-.972,1.283-1.924a5.215,5.215,0,0,1,1.15-.543c.052-.02.11-.038.163-.057.4-.147.83-.285,1.288-.411l.062-.018c-.089.192-.25.544-.422.914m4.517-11.953a1.725,1.725,0,0,1-.36.582q-.284.332-.6.663a.934.934,0,0,0-.317.52.34.34,0,0,0,.081.252.948.948,0,0,0,.186.148q-.192.417-.395.916a8.511,8.511,0,0,1-.446.937,3.2,3.2,0,0,1-.538.727.915.915,0,0,1-.669.286.539.539,0,0,1-.537-.4,2.19,2.19,0,0,1-.073-.984,4.969,4.969,0,0,1,.346-1.273,5.664,5.664,0,0,1,.711-1.269,4.273,4.273,0,0,1,1-.973,2.081,2.081,0,0,1,1.232-.385q.458,0,.382.255" transform="translate(-158.743 -15.176)"/>
        <path id="Trazado_265" data-name="Trazado 265" d="M166.663,5.972a1.152,1.152,0,0,0,1.053.094,2.091,2.091,0,0,0,1.062-.82,2.182,2.182,0,0,0,.457-1.252A1.141,1.141,0,0,0,168.821,3a1.094,1.094,0,0,0-1.053-.1,2.3,2.3,0,0,0-1.083.809,2.21,2.21,0,0,0-.447,1.273,1.165,1.165,0,0,0,.424.991" transform="translate(-133.417 -2.255)"/>
      </g>
    </g>
  </g>
</svg>
