<svg xmlns="http://www.w3.org/2000/svg" width="21.505" height="17.466" viewBox="0 0 21.505 17.466">
  <path id="Icon_awesome-twitter" data-name="Icon awesome-twitter" d="M19.295,7.734c.014.191.014.382.014.573a12.454,12.454,0,0,1-12.54,12.54A12.455,12.455,0,0,1,0,18.869a9.118,9.118,0,0,0,1.064.055A8.827,8.827,0,0,0,6.536,17.04a4.415,4.415,0,0,1-4.121-3.057,5.558,5.558,0,0,0,.832.068,4.662,4.662,0,0,0,1.16-.15A4.408,4.408,0,0,1,.873,9.576V9.521a4.439,4.439,0,0,0,1.992.559A4.414,4.414,0,0,1,1.5,4.186,12.528,12.528,0,0,0,10.589,8.8a4.976,4.976,0,0,1-.109-1.01,4.412,4.412,0,0,1,7.628-3.016,8.678,8.678,0,0,0,2.8-1.064,4.4,4.4,0,0,1-1.938,2.429,8.836,8.836,0,0,0,2.538-.682,9.474,9.474,0,0,1-2.211,2.279Z" transform="translate(0 -3.381)" fill="#565f81"/>
</svg>
