<svg xmlns="http://www.w3.org/2000/svg" width="24.5" height="24.5" viewBox="0 0 24.5 24.5">
  <path id="Icon_awesome-whatsapp" data-name="Icon awesome-whatsapp" d="M20.83,5.81A12.145,12.145,0,0,0,1.723,20.461L0,26.75l6.437-1.69a12.1,12.1,0,0,0,5.8,1.477h.005A12.257,12.257,0,0,0,24.5,14.4,12.188,12.188,0,0,0,20.83,5.81ZM12.245,24.491A10.073,10.073,0,0,1,7.1,23.086l-.366-.219-3.817,1,1.017-3.724L3.7,19.761A10.11,10.11,0,1,1,22.449,14.4,10.2,10.2,0,0,1,12.245,24.491Zm5.534-7.558c-.3-.153-1.794-.886-2.073-.984s-.481-.153-.684.153-.782.984-.962,1.192-.355.23-.656.077a8.257,8.257,0,0,1-4.129-3.609c-.312-.536.312-.5.891-1.657a.562.562,0,0,0-.027-.53c-.077-.153-.684-1.646-.935-2.253-.246-.591-.5-.509-.684-.52s-.377-.011-.58-.011a1.124,1.124,0,0,0-.809.377A3.409,3.409,0,0,0,6.07,11.7a5.943,5.943,0,0,0,1.236,3.139,13.556,13.556,0,0,0,5.184,4.583c1.925.831,2.68.9,3.642.76a3.107,3.107,0,0,0,2.045-1.444,2.537,2.537,0,0,0,.175-1.444C18.282,17.158,18.08,17.081,17.779,16.934Z" transform="translate(0 -2.25)" fill="#565f81"/>
</svg>
