<svg xmlns="http://www.w3.org/2000/svg" width="30" height="30" viewBox="0 0 30 30">
  <g id="Grupo_1085" data-name="Grupo 1085" transform="translate(16840 -5987)">
    <circle id="Elipse_51" data-name="Elipse 51" cx="15" cy="15" r="15" transform="translate(-16840 5987)" fill="#4fd96b"/>
    <path id="whatsapp" d="M13.069,2.191A7.473,7.473,0,0,0,1.31,11.206L.25,15.078l3.961-1.039a7.463,7.463,0,0,0,3.57.909h0A7.475,7.475,0,0,0,13.069,2.191Zm-5.285,11.5h0a6.2,6.2,0,0,1-3.161-.866l-.227-.135-2.35.617.627-2.292-.148-.235a6.21,6.21,0,1,1,5.261,2.91ZM11.19,9.035c-.187-.093-1.1-.545-1.276-.607s-.3-.093-.42.093-.482.607-.591.732-.218.14-.4.047A5.1,5.1,0,0,1,7,8.373,5.631,5.631,0,0,1,5.959,7.08c-.109-.187,0-.278.082-.381a5.281,5.281,0,0,0,.467-.639.343.343,0,0,0-.016-.327c-.047-.093-.42-1.012-.575-1.386s-.305-.315-.42-.32-.233-.007-.358-.007a.686.686,0,0,0-.5.234,2.094,2.094,0,0,0-.653,1.557A3.632,3.632,0,0,0,4.75,7.743a8.321,8.321,0,0,0,3.189,2.819A10.685,10.685,0,0,0,9,10.955a2.559,2.559,0,0,0,1.176.074,1.923,1.923,0,0,0,1.26-.888,1.56,1.56,0,0,0,.109-.888C11.5,9.175,11.377,9.129,11.19,9.035Zm0,0" transform="translate(-16832.824 5994.461)" fill="#fff" fill-rule="evenodd"/>
  </g>
</svg>
